<?xml version="1.0" encoding="iso-8859-1"?>
<!-- Generator: Adobe Illustrator 18.0.0, SVG Export Plug-In . SVG Version: 6.00 Build 0)  -->
<!DOCTYPE svg PUBLIC "-//W3C//DTD SVG 1.1//EN" "http://www.w3.org/Graphics/SVG/1.1/DTD/svg11.dtd">
<svg version="1.1" id="Capa_1" xmlns="http://www.w3.org/2000/svg" xmlns:xlink="http://www.w3.org/1999/xlink" x="0px" y="0px"
	 viewBox="0 0 458.36 458.36" style="enable-background:new 0 0 458.36 458.36;" xml:space="preserve">
<g>
	<path d="M414.83,147.235c-0.31,0-0.62,0.013-0.931,0.02c-17.173-36.88-53.987-60.399-95.429-60.399H216.99
		c-6.15,0-12.278,0.526-18.279,1.548c-8.039-7.611-18.696-11.898-29.9-11.898c-13.029,0-25.05,5.683-33.251,15.444
		c-8.87-2.636-18.256-4.059-27.97-4.059c-10.55,0-20.714,1.677-30.248,4.766C69.147,82.569,56.722,76.505,43.53,76.505
		C19.527,76.505,0,96.028,0,120.025c0,12.841,5.536,24.719,15.053,32.919c-3.752,10.4-5.803,21.607-5.803,33.285
		c0,54.224,44.114,98.338,98.338,98.338c11.969,0,23.443-2.152,34.061-6.085v62.313c0,22.641,18.419,41.06,41.06,41.06
		c7.44,0,14.729-2.045,21.063-5.825c6.321,3.78,13.604,5.825,21.047,5.825c10.965,0,21.269-4.271,29.011-12.028
		c7.731-7.743,11.989-18.054,11.989-29.032v-40.94h12.36v40.94c0,22.641,18.419,41.06,41.06,41.06
		c7.549,0,14.918-2.094,21.297-5.965c6.372,3.872,13.736,5.965,21.283,5.965c10.965,0,21.269-4.271,29.011-12.028
		c7.731-7.743,11.989-18.054,11.989-29.032v-87.142c4.459-6.377,8.234-12.864,11.295-19.372c0.238,0.004,0.477,0.014,0.714,0.014
		c24.003,0,43.53-19.527,43.53-43.53S438.833,147.235,414.83,147.235z M168.81,92.505c8.109,0,15.764,3.55,21.009,9.745
		c4.199,4.95,6.511,11.263,6.511,17.775c0,5.586-1.63,10.862-4.621,15.314c-9.561-15.746-23.419-28.604-39.932-36.945
		C156.547,94.626,162.489,92.505,168.81,92.505z M16,120.025c0-15.175,12.35-27.52,27.53-27.52c6.731,0,13.153,2.491,18.106,6.805
		c-16.465,8.74-30.169,22.018-39.424,38.161C18.239,132.631,16,126.522,16,120.025z M25.25,186.228
		c0-45.401,36.937-82.338,82.338-82.338s82.338,36.937,82.338,82.338s-36.937,82.338-82.338,82.338S25.25,231.629,25.25,186.228z
		 M157.65,340.795v-59.354c8.113,5.19,16.935,9.274,26.17,12.081v47.273c0,8.552,2.632,16.737,7.412,23.563
		c-2.716,0.981-5.6,1.497-8.522,1.497C168.892,365.855,157.65,354.613,157.65,340.795z M294.18,340.795v-41.36
		c7.656-0.418,18.777-1.039,26.64-1.536v42.896c0,8.478,2.599,16.615,7.316,23.416c-2.82,1.071-5.832,1.644-8.896,1.644
		C305.421,365.855,294.18,354.613,294.18,340.795z M401.692,222.816c-3.201,7.854-7.691,15.788-13.347,23.581l-1.525,2.102v92.297
		c0,6.709-2.597,13.005-7.313,17.728c-4.72,4.728-11.001,7.332-17.688,7.332c-5.906,0-11.628-2.09-16.116-5.89
		c-5.646-4.772-8.884-11.759-8.884-19.17v-60.563l-8.992,1.125c-2.632,0.328-25.872,1.641-40.791,2.441
		c-0.718,0.038-1.43,0.057-2.149,0.057H249.82v56.94c0,7.693-3.414,14.842-9.521,19.7c-4.219,3.356-9.484,5.23-14.874,5.353
		c-6.13,0.14-11.861-1.849-16.539-5.732c-5.762-4.776-9.066-11.819-9.066-19.321v-59.707l-6.145-1.465
		c-10.536-2.512-20.562-6.957-29.484-13.024c25.229-17.82,41.737-47.203,41.737-80.371c0-12.421-2.321-24.309-6.542-35.26
		c8.186-8.114,12.944-19.275,12.944-30.943c0-5.816-1.169-11.532-3.382-16.818c2.667-0.23,5.351-0.352,8.042-0.352h101.48
		c36.887,0,69.453,21.919,82.969,55.843c4.254,10.669,6.411,22.027,6.411,33.757C407.85,202.525,405.777,212.744,401.692,222.816z
		 M420.309,217.746c2.351-8.404,3.541-16.871,3.541-25.291c0-9.835-1.303-19.456-3.87-28.73c12.726,2.419,22.379,13.62,22.379,27.04
		C442.36,204.07,432.873,215.198,420.309,217.746z"/>
	<path d="M69.261,143.757c-16.039,0-29.087,13.048-29.087,29.087s13.048,29.088,29.087,29.088s29.088-13.049,29.088-29.088
		S85.3,143.757,69.261,143.757z M69.261,185.933c-7.216,0-13.087-5.871-13.087-13.088c0-7.216,5.871-13.087,13.087-13.087
		c7.217,0,13.088,5.871,13.088,13.087C82.349,180.062,76.478,185.933,69.261,185.933z"/>
	<path d="M176.368,172.845c0-16.039-13.048-29.087-29.087-29.087s-29.088,13.048-29.088,29.087s13.049,29.088,29.088,29.088
		S176.368,188.884,176.368,172.845z M147.28,185.933c-7.217,0-13.088-5.871-13.088-13.088c0-7.216,5.871-13.087,13.088-13.087
		c7.216,0,13.087,5.871,13.087,13.087C160.368,180.062,154.497,185.933,147.28,185.933z"/>
</g>
<g>
</g>
<g>
</g>
<g>
</g>
<g>
</g>
<g>
</g>
<g>
</g>
<g>
</g>
<g>
</g>
<g>
</g>
<g>
</g>
<g>
</g>
<g>
</g>
<g>
</g>
<g>
</g>
<g>
</g>
</svg>
