<?xml version="1.0" encoding="iso-8859-1"?>
<!-- Generator: Adobe Illustrator 18.0.0, SVG Export Plug-In . SVG Version: 6.00 Build 0)  -->
<!DOCTYPE svg PUBLIC "-//W3C//DTD SVG 1.1//EN" "http://www.w3.org/Graphics/SVG/1.1/DTD/svg11.dtd">
<svg version="1.1" id="Capa_1" xmlns="http://www.w3.org/2000/svg" xmlns:xlink="http://www.w3.org/1999/xlink" x="0px" y="0px"
	 viewBox="0 0 404.95 404.95" style="enable-background:new 0 0 404.95 404.95;" xml:space="preserve">
<g>
	<path d="M390.1,99.595c-11.34-16.17-28.08-27.7-47.14-32.48c-11.28-2.82-23.34-3.21-34.73-1.13c-19.63,3.56-37.28,14.2-49.68,29.95
		c-9.46,11.99-15.25,26-17,40.95c-11.979-4.17-24.509-6.38-37.378-6.58c0.571-2.399,0.878-4.887,0.878-7.43
		c0-17.882-14.548-32.43-32.43-32.43c-2.928,0-5.837,0.413-8.637,1.186c-0.004-0.005-0.008-0.01-0.013-0.016
		c-11.2-13.3-26.06-23.42-43.02-28.79c-0.002-0.001-0.004-0.001-0.006-0.002c-1.803-16.187-15.563-28.818-32.224-28.818
		c-17.746,0-32.202,14.33-32.42,32.026c-0.003,0.001-0.007,0.003-0.01,0.004C23.22,80.275,0,113.195,0,151.435v68.01
		c0,10.71,6.78,19.85,16.28,23.37v31.58H74.9v-30.04h6.93v6.26c0,4.82,0.29,9.68,0.87,14.51c-9.25,11.52-14.3,25.83-14.3,40.71
		c0,8.12,1.5,15.91,4.23,23.08c0.002,0.006,0.005,0.012,0.007,0.019c-1.014,0.848-2.004,1.724-2.939,2.659
		c-8.369,8.382-12.979,19.517-12.979,31.353v8l258.348-0.136c5.445-0.003,10.846-1.158,15.748-3.531
		c19.759-9.564,37.023-26.685,50.334-50.013c13.83-24.24,22.21-53.43,23.6-82.18c0.13-2.72,0.2-5.53,0.2-8.36v-80.08
		C404.95,129.685,399.81,113.415,390.1,99.595z M381.97,117.085c3.84,7.65,6.15,15.96,6.79,24.57l-15.68-15.68L381.97,117.085z
		 M298.25,178.185c-7.02-9.29-15.4-17.57-24.76-24.48l16.42-16.42l24.62,24.62L298.25,178.185z M322.47,248.455l3.37-3.37
		l24.61,24.61l-24.61,24.62l-3.35-3.36C322.49,290.955,322.48,249.175,322.47,248.455z M316.54,213.155
		c-0.18-0.55-0.36-1.09-0.55-1.64c-2.33-6.79-5.28-13.37-8.8-19.65l18.65-18.65l24.62,24.62l-24.62,24.62L316.54,213.155z
		 M337.15,161.905l24.62-24.62l24.62,24.62l-24.62,24.62L337.15,161.905z M343.32,83.875c11.46,3.72,21.68,10.52,29.57,19.66
		l-11.12,11.12l-24.61-24.61L343.32,83.875z M325.84,101.355l24.61,24.62l-24.61,24.61l-24.61-24.61L325.84,101.355z M307.09,82.605
		l7.44,7.44l-24.62,24.61l-14.12-14.12C284.36,91.755,295.18,85.545,307.09,82.605z M265.98,113.355l12.62,12.62l-18.93,18.92
		c-0.87-0.47-1.74-0.93-2.61-1.37C257.55,132.775,260.6,122.525,265.98,113.355z M189.05,122.875c0,4.432-1.809,8.541-4.77,11.543
		c0-0.001,0-0.002,0-0.003c-1.84-9.939-5.269-19.328-10.029-27.887C182.548,107.349,189.05,114.366,189.05,122.875z M88.72,50.005
		c6.423,0,11.981,3.713,14.682,9.098c-3.434-0.399-6.928-0.598-10.472-0.598c-6.704,0-13.238,0.709-19.543,2.077
		C75.752,54.408,81.724,50.005,88.72,50.005z M32.28,244.355h5.3v14.04h-5.3V244.355z M58.9,258.395h-5.32v-14.04h5.32V258.395z
		 M24.91,228.355c-4.91,0-8.91-3.99-8.91-8.91v-68.01c0-42.42,34.51-76.93,76.93-76.93c42.41,0,76.92,34.51,76.92,76.93
		c0,42.41-34.51,76.92-76.92,76.92H74.9H24.91z M133.518,354.945c-27.089-0.001-49.118-22.031-49.118-49.11
		c0-6.16,1.15-12.19,3.34-17.81c9.24,28.4,28.69,52.19,54.35,66.92H133.518z M80.439,343.517c2.998,4.205,6.475,8.041,10.361,11.428
		H73.859C75.099,350.706,77.34,346.808,80.439,343.517z M190.63,354.945h-7.7c0.16-0.56,0.35-1.11,0.55-1.66v-0.01
		c1.39-3.85,3.62-7.38,6.6-10.36c0.16-0.16,0.32-0.32,0.49-0.47c3.61,4.64,7.77,8.84,12.38,12.5H190.63z M306.49,354.945h-38.98
		h-18.76c-31.83,0-57.73-25.9-57.73-57.73c0-31.84,25.9-57.74,57.73-57.74c31.84,0,57.74,25.9,57.74,57.74V354.945z M248.75,223.475
		c-40.65,0-73.73,33.08-73.73,73.74c0,11.22,2.52,21.87,7.04,31.41c-1.14,0.93-2.24,1.92-3.29,2.97
		c-5.02,5.03-8.69,11.04-10.82,17.61c-36.42-12.57-63.1-44.28-68.94-82.8c-0.78-5.23-1.18-10.54-1.18-15.79v-6.39
		c48.63-2.54,87.47-42.63,88.01-91.74c0-0.002,0-0.003,0-0.005c3.423-1.536,6.519-3.644,9.175-6.195h7.145
		c15.18,0,29.81,3.19,43.5,9.48c3.29,1.5,6.6,3.24,9.83,5.16c13.61,8.11,25.39,19.41,34.07,32.7c4.72,7.22,8.52,14.98,11.29,23.08
		c2.99,8.69,4.8,17.75,5.4,27.01c0.16,2.18,0.24,4.5,0.24,6.9v0.79C292.97,234.395,272.11,223.475,248.75,223.475z M322.49,353.465
		v-33.17l3.35-3.36l20,20C338.36,344.125,330.42,349.715,322.49,353.465z M356.6,325.065l-19.44-19.44l24.61-24.61l13.21,13.21
		C369.85,305.905,363.57,316.255,356.6,325.065z M381.15,277.765l-8.07-8.07l13.23-13.23
		C385.01,263.895,383.27,271.005,381.15,277.765z M361.77,258.385l-24.62-24.62l24.62-24.62l24.62,24.62L361.77,258.385z
		 M388.95,213.695l-15.86-15.86l15.86-15.86V213.695z"/>
	<path d="M119.68,154.865c0-18.31-14.89-33.2-33.2-33.2s-33.21,14.89-33.21,33.2s14.9,33.21,33.21,33.21
		S119.68,173.175,119.68,154.865z M86.48,172.075c-9.49,0-17.21-7.72-17.21-17.21c0-9.48,7.72-17.2,17.21-17.2
		c9.48,0,17.2,7.72,17.2,17.2C103.68,164.355,95.96,172.075,86.48,172.075z"/>
</g>
<g>
</g>
<g>
</g>
<g>
</g>
<g>
</g>
<g>
</g>
<g>
</g>
<g>
</g>
<g>
</g>
<g>
</g>
<g>
</g>
<g>
</g>
<g>
</g>
<g>
</g>
<g>
</g>
<g>
</g>
</svg>
