<?xml version="1.0" encoding="iso-8859-1"?>
<!-- Generator: Adobe Illustrator 18.0.0, SVG Export Plug-In . SVG Version: 6.00 Build 0)  -->
<!DOCTYPE svg PUBLIC "-//W3C//DTD SVG 1.1//EN" "http://www.w3.org/Graphics/SVG/1.1/DTD/svg11.dtd">
<svg version="1.1" id="Capa_1" xmlns="http://www.w3.org/2000/svg" xmlns:xlink="http://www.w3.org/1999/xlink" x="0px" y="0px"
	 viewBox="0 0 392.142 392.142" style="enable-background:new 0 0 392.142 392.142;" xml:space="preserve">
<path d="M329.012,274.007c10.213-10.222,16.548-23.291,18.309-37.411h44.821v-16.187h-44.831
	c-2.059-15.78-10.064-30.354-22.284-40.739c21.28-17.158,38.696-39.319,50.296-65.226l3.221-7.194l-7.194-3.221
	c-22.905-10.255-47.145-15.455-72.046-15.455c-4.698,0-9.367,0.193-13.999,0.562c2.879-11.646,4.569-23.618,5.036-35.732
	l0.304-7.877l-7.877-0.302c-39.027-1.502-76.514,9.568-108.373,32.012c-29.911,21.072-52.886,51.421-64.981,85.737
	c-3.866,1.963-7.581,4.268-11.096,6.911c-3.059-18.214-18.764-32.131-37.539-32.131v16.187c11.426,0,21.9,10.059,21.9,22.425v1.156
	c-7.875-1.495-16.014-1.257-23.805,0.707v-1.863c0-21.172-17.139-38.397-38.088-38.397v16.187c11.426,0,21.9,9.964,21.9,22.21v8.883
	c-3.23,2.079-6.293,4.519-9.118,7.343c-3.127,3.129-5.839,6.593-8.11,10.334c-9.041,0.853-17.22,6.054-21.764,14.023
	c-3.711,6.508-4.666,14.073-2.687,21.3c1.978,7.227,6.652,13.25,13.161,16.961c3.273,1.866,6.888,3.043,10.601,3.483
	c2.399,4.181,5.345,8.031,8.799,11.485c10.696,10.696,24.746,16.044,38.797,16.044c6.067,0,12.133-1.002,17.93-2.997v17.484
	c0,25.552,20.855,46.34,46.489,46.34h16.356v-16.187h-16.356c-16.708,0-30.301-13.527-30.301-30.153v-5.658
	c11.385,6.419,24.094,9.649,36.815,9.648c3.12,0,6.238-0.214,9.339-0.601c1.743,23.85,21.69,42.725,45.977,42.725h16.936v-15.763
	h-16.936c-16.614,0-30.153-13.417-30.35-29.985c-0.001-0.122-0.002-0.633-0.002-0.633c5.431-1.91,10.678-4.472,15.634-7.668h28.281
	v7.935c0,25.552,20.945,46.34,46.691,46.34h16.154v-16.187h-16.154c-16.82,0-30.503-13.527-30.503-30.153v-7.935h44.753v7.935
	c0,25.552,20.637,46.34,46.003,46.34h16.841v-16.187h-16.841c-16.441,0-29.816-13.527-29.816-30.153v-8.2
	C304.352,291.188,318.282,284.738,329.012,274.007z M217.426,218.854c9.283-0.174,18.444-1.085,27.418-2.674
	c0.882,3.33,1.406,6.765,1.56,10.294c0.034,0.616,0.051,1.313,0.051,2.13c0,12.922-5.034,25.075-14.172,34.22
	c-7.557,7.556-17.474,12.412-28.021,13.764h-2.441C214.822,260.333,220.457,239.404,217.426,218.854z M243.431,273.968
	c12.114-12.124,18.786-28.234,18.786-45.364c0-1.113-0.025-2.097-0.071-2.913c-0.192-4.399-0.843-8.728-1.919-12.952
	c8.175-2.217,16.149-5.012,23.866-8.349c4.253,7.334,6.497,15.648,6.497,24.214c0,12.922-5.034,25.075-14.172,34.22
	c-7.557,7.556-17.474,12.412-28.021,13.764h-7.771C241.583,275.741,242.524,274.875,243.431,273.968z M331.655,228.472
	c0,12.865-5.005,25.012-14.09,34.104c-8.735,8.735-20.33,13.662-32.766,13.981c0.944-0.838,1.873-1.694,2.769-2.589
	c12.114-12.124,18.786-28.234,18.786-45.364c0-10.973-2.772-21.645-8.048-31.126c4.492-2.438,8.875-5.069,13.137-7.883
	C324.176,199.097,331.655,212.866,331.655,228.472z M357.45,115.293c-27.321,53.617-82.731,87.834-143.354,87.831
	c-19.986-0.001-39.509-3.683-58.146-10.955c27.319-53.613,82.729-87.832,143.353-87.832
	C319.288,104.337,338.81,108.019,357.45,115.293z M183.473,90.124c26.804-18.883,57.973-28.923,90.605-29.261
	c-0.913,10.353-2.816,20.547-5.675,30.447c-43.069,7.669-81.772,31.121-108.509,65.435c-10.287-2.338-20.774-2.451-30.834-0.507
	C140.832,129.931,159.758,106.831,183.473,90.124z M16.211,234.088c-0.867-3.165-0.449-6.479,1.177-9.33
	c2.182-3.827,6.28-6.205,10.694-6.205c2.114,0,4.212,0.559,6.066,1.616c5.886,3.356,7.944,10.875,4.589,16.761
	c-2.182,3.827-6.279,6.204-10.693,6.204c-2.115,0-4.213-0.559-6.067-1.616C19.125,239.892,17.078,237.253,16.211,234.088z
	 M44.716,259.034c-1.144-1.144-2.203-2.351-3.188-3.61c2.771-1.518,5.284-3.496,7.416-5.87c1.963,2.196,4.301,4.12,6.997,5.657
	c4.229,2.411,9.027,3.686,13.875,3.686h0c10.062,0,19.407-5.426,24.386-14.16c7.66-13.437,2.961-30.6-10.475-38.262
	c-4.229-2.411-9.027-3.686-13.874-3.686c-8.051,0-15.636,3.481-20.901,9.344c-1.917-2.145-4.195-4.027-6.812-5.546
	c0.81-0.985,1.665-1.939,2.574-2.849c15.247-15.246,40.056-15.246,55.302,0c15.244,15.245,15.244,40.05,0,55.295
	C84.771,274.28,59.963,274.281,44.716,259.034z M59.159,224.757c2.182-3.827,6.28-6.205,10.694-6.205
	c2.114,0,4.212,0.559,6.066,1.616c5.886,3.356,7.944,10.875,4.589,16.761c-2.182,3.827-6.279,6.204-10.693,6.204
	c-2.115,0-4.213-0.559-6.068-1.616C57.862,238.162,55.803,230.643,59.159,224.757z M152.5,274.316v13.903
	c-3.047,0.476-6.124,0.726-9.202,0.726c-13.496-0.001-26.988-4.591-37.928-13.743c2.016-1.521,3.957-3.187,5.793-5.023
	c21.39-21.391,21.39-56.195,0-77.586c-2.43-2.43-5.04-4.569-7.777-6.447c12.7-11.618,29.648-17.022,46.486-15.132
	c-4.407,6.986-8.358,14.329-11.795,22.005l-3.221,7.193l7.194,3.221c18.977,8.496,38.875,13.511,59.308,14.984
	c3.763,19.235-2.21,39.215-16.221,53.227c-5.036,5.036-10.761,8.972-16.874,11.809v-9.137H152.5z"/>
<g>
</g>
<g>
</g>
<g>
</g>
<g>
</g>
<g>
</g>
<g>
</g>
<g>
</g>
<g>
</g>
<g>
</g>
<g>
</g>
<g>
</g>
<g>
</g>
<g>
</g>
<g>
</g>
<g>
</g>
</svg>
