<?xml version="1.0" encoding="iso-8859-1"?>
<!-- Generator: Adobe Illustrator 18.0.0, SVG Export Plug-In . SVG Version: 6.00 Build 0)  -->
<!DOCTYPE svg PUBLIC "-//W3C//DTD SVG 1.1//EN" "http://www.w3.org/Graphics/SVG/1.1/DTD/svg11.dtd">
<svg version="1.1" id="Capa_1" xmlns="http://www.w3.org/2000/svg" xmlns:xlink="http://www.w3.org/1999/xlink" x="0px" y="0px"
	 viewBox="0 0 449.375 449.375" style="enable-background:new 0 0 449.375 449.375;" xml:space="preserve">
<g>
	<path d="M121.592,213.315c-6.517,0-12.675,2.505-17.342,7.054c-4.753,4.633-7.417,10.839-7.502,17.476
		c-0.084,6.636,2.42,12.908,7.053,17.661c4.716,4.839,11.035,7.504,17.794,7.504c6.516,0,12.675-2.505,17.341-7.054
		c4.753-4.632,7.417-10.838,7.502-17.475s-2.419-12.909-7.052-17.662C134.669,215.98,128.349,213.315,121.592,213.315z
		 M127.767,244.497c-1.662,1.62-3.854,2.512-6.173,2.512c-2.407,0-4.657-0.949-6.337-2.672c-1.649-1.692-2.541-3.926-2.511-6.289
		s0.979-4.572,2.671-6.222c1.661-1.62,3.854-2.512,6.174-2.512c2.406,0,4.657,0.949,6.337,2.672
		c1.649,1.692,2.541,3.925,2.511,6.288S129.46,242.847,127.767,244.497z"/>
	<path d="M442.132,154.301c-18.246-8.552-38.783-9.64-57.824-3.06c-8.399,2.902-16.103,7.158-22.874,12.547
		c-0.667-29.102-17.916-55.686-44.344-68.067l-7.245-3.394l-3.394,7.246c-7.477,15.964-9.254,34.161-5.003,51.24
		c3.069,12.333,9.176,23.715,17.594,33.066c-11.466,22.529-38.705,32.601-62.239,22.45c-10.255-4.418-18.422-11.968-23.61-21.817
		c-0.649-1.267-3.062-7.573-3.706-9.462c-10.74-31.433-34.388-57.005-64.882-70.159C104.91,79.142,35.389,106.765,9.641,166.466
		c-24.203,56.117-1.255,120.905,51.165,149.865c0.99,0.547,1.945,1.156,2.844,1.841l0,0c-4.053,9.316-6.253,19.422-6.403,29.676
		l-0.117,8.001c0,0,8.763,0.123,9.144,0.123c19.192,0,37.245-6.958,51.41-19.727c14.983,3.071,30.218,4.62,45.456,4.62
		c20.634,0,41.265-2.813,61.254-8.4c0.356,0.381,0.697,0.771,1.061,1.146c14.345,14.753,33.576,23.037,54.151,23.326l7.999,0.112
		l0.112-7.999c0.199-14.187-3.486-27.534-10.043-39.055c40.598-23.507,72.234-58.185,92.073-100.963
		c2.138,0.181,4.283,0.273,6.419,0.273c29.779,0,57.184-17.415,69.814-44.365l3.395-7.244L442.132,154.301z M317.848,114.427
		c17.011,11.174,27.618,30.416,27.618,51.108c0,5.642-0.791,11.181-2.32,16.555l0,0c-3.976-1.683-7.605-4.112-10.615-7.208
		C317.119,159.024,311.432,135.614,317.848,114.427z M78.382,324.435c6.359,2.551,12.83,4.821,19.374,6.792
		c-7.239,4.392-15.3,7.205-23.78,8.267C74.789,334.296,76.281,329.234,78.382,324.435z M220.141,287.664
		c26.726,4.172,47.674,25.717,51.095,52.549C244.507,336.044,223.56,314.498,220.141,287.664z M268.324,296.912
		c-13.881-15.655-34.035-25.655-56.555-25.971l-7.999-0.112l-0.112,7.999c-0.199,14.191,3.424,27.849,10.397,39.799
		c-31.798,7.883-65.127,8.311-97.075,1.123c-10.039-2.256-19.985-5.272-29.672-8.992c0,0-9.813-4.041-9.846-4.054
		c-24.525-10.604-42.771-29.762-52.769-52.486c0.087,0.092,0.17,0.187,0.258,0.278c5.356,5.496,12.782,8.188,20.568,7.355
		c4.351-0.465,8.53-2.116,12.033-4.739c12.25-9.174,13.31-26.707,2.984-37.303c-5.375-5.513-12.831-8.204-20.645-7.346
		c-4.396,0.483-8.613,2.176-12.129,4.859c-5.379,4.105-8.742,9.955-9.626,16.411c-4.11-19.796-2.403-40.995,6.194-60.929
		c22.255-51.601,82.337-75.476,133.936-53.222c26.355,11.369,46.795,33.472,56.077,60.638c0.376,1.103,3.328,9.154,4.684,11.735
		c6.821,12.947,17.988,23.271,31.44,29.067c8.282,3.572,16.906,5.262,25.4,5.261c22.245-0.001,43.57-11.602,55.354-31.368
		c0,0,10.593,6.776,22.468,11.776C334.903,244.169,304.773,276.146,268.324,296.912z M33.898,237.039
		c0.03-2.363,0.979-4.572,2.671-6.221c1.662-1.62,3.854-2.512,6.174-2.512c2.506,0,4.841,1.028,6.539,2.887
		c2.869,3.141,3.078,8.037,0.454,11.385c-1.719,2.192-4.267,3.422-6.99,3.422c-2.407,0-4.657-0.949-6.337-2.672
		C34.76,241.635,33.868,239.402,33.898,237.039z M376.166,193.305c-0.026,0-0.051,0-0.077,0c-4.433-0.006-8.809-1-12.892-2.728
		l-3.716-1.573c7.325-10.484,17.75-18.391,30.051-22.64c12.341-4.264,25.471-4.464,37.752-0.687
		C416.111,182.692,396.862,193.305,376.166,193.305z"/>
</g>
<g>
</g>
<g>
</g>
<g>
</g>
<g>
</g>
<g>
</g>
<g>
</g>
<g>
</g>
<g>
</g>
<g>
</g>
<g>
</g>
<g>
</g>
<g>
</g>
<g>
</g>
<g>
</g>
<g>
</g>
</svg>
