<?xml version="1.0" encoding="iso-8859-1"?>
<!-- Generator: Adobe Illustrator 18.0.0, SVG Export Plug-In . SVG Version: 6.00 Build 0)  -->
<!DOCTYPE svg PUBLIC "-//W3C//DTD SVG 1.1//EN" "http://www.w3.org/Graphics/SVG/1.1/DTD/svg11.dtd">
<svg version="1.1" id="Capa_1" xmlns="http://www.w3.org/2000/svg" xmlns:xlink="http://www.w3.org/1999/xlink" x="0px" y="0px"
	 viewBox="0 0 443 443" style="enable-background:new 0 0 443 443;" xml:space="preserve">
<g>
	<path d="M316.591,283.382c-8.123,0-15.692,3.23-21.311,9.093c-11.26,11.749-10.861,30.469,0.888,41.727
		c5.521,5.291,12.772,8.205,20.417,8.205c8.123,0,15.692-3.23,21.31-9.093c5.455-5.691,8.367-13.166,8.199-21.048
		c-0.167-7.881-3.395-15.226-9.087-20.68C331.486,286.295,324.235,283.382,316.591,283.382z M325.95,321.867
		c-2.47,2.576-5.795,3.996-9.365,3.996c-3.359,0-6.544-1.28-8.97-3.605c-5.163-4.947-5.337-13.173-0.39-18.336
		c2.47-2.576,5.795-3.996,9.366-3.996c3.358,0,6.544,1.28,8.969,3.606c2.501,2.396,3.919,5.623,3.993,9.086
		C329.627,316.081,328.347,319.366,325.95,321.867z"/>
	<path d="M109.98,292.475c-11.26,11.749-10.861,30.469,0.888,41.727c5.521,5.291,12.772,8.205,20.417,8.205
		c8.123,0,15.692-3.23,21.31-9.093c5.455-5.691,8.367-13.166,8.199-21.048c-0.167-7.881-3.395-15.226-9.087-20.68
		c-5.521-5.291-12.772-8.205-20.417-8.205C123.168,283.382,115.6,286.611,109.98,292.475z M144.254,312.618
		c0.074,3.463-1.206,6.748-3.603,9.249c-2.47,2.576-5.795,3.996-9.365,3.996c-3.359,0-6.544-1.28-8.97-3.605
		c-5.163-4.947-5.337-13.173-0.39-18.336c2.47-2.576,5.795-3.996,9.366-3.996c3.358,0,6.544,1.28,8.969,3.606
		C142.762,305.928,144.179,309.156,144.254,312.618z"/>
	<path d="M398.527,61.422c-60.618,0-115.356,33.576-143.021,86.614c-0.721-0.514-1.746-0.998-2.531-1.445
		c-2.406-1.372-5.974-2.346-7.974-2.901V84.165c0-8.294,7.206-15.042,15.5-15.042c8.294,0,15.5,6.748,15.5,15.042v0.257h16v-0.257
		c0-17.417-14.583-31.587-32-31.587s-32,14.17-32,31.587v61.544c-2,1.163-4.192,2.7-6.173,4.556c-1.493-1.4-3.218-2.637-5.041-3.676
		c-0.564-0.322-0.786-0.616-1.786-0.894v-61.53c0-17.417-14.083-31.587-31.5-31.587S152,66.748,152,84.165v0.257h16v-0.257
		c0-8.294,7.206-15.042,15.5-15.042S199,75.87,199,84.165v59.526c-3,0.695-6.493,2.037-9.308,3.929
		c-12.279-24.01-30.335-44.716-52.828-60.064c-26.812-18.294-58.187-28.133-90.77-28.133H0v106.995
		c0,52.964,41.588,96.45,93.749,99.922C79.117,278.565,70,296.936,70,317.451v70.971h8.346c52.916,0,98.487-32.144,118.378-77.822
		c0.193,5.508,0.729,10.919,1.627,16.234c2.039,12.068,6.861,28.742,18.247,39.792l5.936,5.746l5.762-5.944
		c11.179-11.518,18.258-31.272,19.445-54.228c19.838,45.801,65.475,78.221,118.48,78.221H374v-71.317
		c0-20.513-9.527-38.883-24.157-51.11C401.9,264.542,443,221.048,443,168.071V61.422H398.527z M215.376,277.97
		c-9.115-25.388-8.562-60.68,1.108-85.379c2.112-1.103,4.068-2.492,5.814-4.129c1.478,1.391,3.137,2.634,4.976,3.683
		c0.347,0.198,0.703,0.377,1.058,0.558c4.785,11.511,7.309,26.367,7.309,43.226c0,14.996-2.24,29.326-6.479,41.444
		c-1.943,5.556-4.293,10.532-6.948,14.751C219.604,288.124,217.317,283.393,215.376,277.97z M248.666,174.159
		c-1.718,3.014-4.946,4.886-8.422,4.886c-1.688,0-3.294-0.428-4.776-1.273c-4.635-2.642-6.255-8.563-3.613-13.198
		c1.718-3.014,4.945-4.886,8.422-4.886c1.687,0,3.294,0.429,4.775,1.274C249.688,163.604,251.308,169.524,248.666,174.159z
		 M204.376,159.688c1.687,0,3.294,0.429,4.775,1.273c2.245,1.28,3.857,3.358,4.54,5.851c0.683,2.493,0.353,5.102-0.927,7.347
		c-1.718,3.014-4.946,4.886-8.422,4.886c-1.687,0-3.294-0.428-4.775-1.273c-4.635-2.643-6.256-8.563-3.613-13.198
		C197.672,161.561,200.899,159.688,204.376,159.688z M16,166.417V76.422h30.094c29.242,0,57.412,8.617,81.464,25.027
		c22.702,15.49,40.375,36.842,51.289,61.911c-2.23,9.45,1.098,19.52,8.564,25.92c2.294,10.252,3.59,20.925,3.59,31.808v29.334
		h-90.235C54.6,250.422,16,212.518,16,166.417z M86,371.327v-53.877c0-27.6,23.072-50.029,50.672-50.029h53.875
		C186.497,323.422,142,367.276,86,371.327z M222.215,346.889c-5.646-9.917-8.87-24.214-9.066-39.314
		c1.117,1.307,2.27,2.548,3.466,3.709l5.938,5.766l5.763-5.94c1.04-1.072,2.046-2.208,3.026-3.394
		C230.986,323.038,227.661,337.051,222.215,346.889z M358,319.105v53.876c-56-4.051-99.93-47.559-103.981-103.559h53.876
		C335.495,269.422,358,291.505,358,319.105z M427,168.071c0,46.102-37.107,84.351-83.145,84.351H253v-29.679
		c0-11.287,1.684-22.635,4.351-33.779c2.112-1.872,4.095-4.093,5.53-6.61c3.225-5.657,4.178-12.289,3.025-18.23
		c23.166-52.598,74.973-86.702,132.62-86.702H427V168.071z"/>
	<path d="M152.823,171.438c0-30.105-24.492-54.597-54.597-54.597s-54.597,24.492-54.597,54.597s24.492,54.597,54.597,54.597
		S152.823,201.543,152.823,171.438z M98.225,209.491c-20.982,0-38.053-17.07-38.053-38.053s17.07-38.053,38.053-38.053
		s38.053,17.07,38.053,38.053S119.207,209.491,98.225,209.491z"/>
	<path d="M98.229,141.925c-8.124,0-15.692,3.229-21.311,9.093c-5.455,5.692-8.366,13.167-8.199,21.048
		c0.168,7.881,3.395,15.225,9.087,20.68c5.521,5.291,12.772,8.205,20.417,8.205c8.124,0,15.692-3.229,21.311-9.093
		c11.26-11.749,10.861-30.468-0.888-41.727C113.124,144.84,105.873,141.925,98.229,141.925z M107.588,180.411
		c-2.47,2.577-5.795,3.996-9.366,3.996c-3.358,0-6.544-1.28-8.969-3.605c-2.501-2.397-3.919-5.624-3.992-9.087
		c-0.074-3.463,1.205-6.747,3.602-9.249c2.47-2.577,5.795-3.996,9.366-3.996c3.358,0,6.544,1.28,8.969,3.605
		C112.361,167.023,112.536,175.248,107.588,180.411z"/>
	<path d="M347.222,116.841c-30.105,0-54.597,24.492-54.597,54.597s24.492,54.597,54.597,54.597s54.597-24.492,54.597-54.597
		S377.327,116.841,347.222,116.841z M347.222,209.491c-20.982,0-38.053-17.07-38.053-38.053s17.071-38.053,38.053-38.053
		s38.053,17.07,38.053,38.053S368.204,209.491,347.222,209.491z"/>
	<path d="M347.225,141.925c-8.124,0-15.692,3.229-21.311,9.093c-5.455,5.692-8.366,13.167-8.199,21.048
		c0.168,7.881,3.395,15.225,9.087,20.68c5.521,5.291,12.772,8.205,20.417,8.205c8.124,0,15.692-3.229,21.311-9.093
		c11.26-11.749,10.861-30.468-0.888-41.727C362.121,144.84,354.869,141.925,347.225,141.925z M356.584,180.411
		c-2.47,2.577-5.795,3.996-9.366,3.996c-3.358,0-6.544-1.28-8.969-3.605c-2.501-2.397-3.919-5.624-3.992-9.087
		c-0.074-3.463,1.205-6.747,3.602-9.249c2.47-2.577,5.795-3.996,9.366-3.996c3.358,0,6.544,1.28,8.969,3.605
		C361.357,167.023,361.532,175.248,356.584,180.411z"/>
</g>
<g>
</g>
<g>
</g>
<g>
</g>
<g>
</g>
<g>
</g>
<g>
</g>
<g>
</g>
<g>
</g>
<g>
</g>
<g>
</g>
<g>
</g>
<g>
</g>
<g>
</g>
<g>
</g>
<g>
</g>
</svg>
