<?xml version="1.0" encoding="iso-8859-1"?>
<!-- Generator: Adobe Illustrator 18.0.0, SVG Export Plug-In . SVG Version: 6.00 Build 0)  -->
<!DOCTYPE svg PUBLIC "-//W3C//DTD SVG 1.1//EN" "http://www.w3.org/Graphics/SVG/1.1/DTD/svg11.dtd">
<svg version="1.1" id="Capa_1" xmlns="http://www.w3.org/2000/svg" xmlns:xlink="http://www.w3.org/1999/xlink" x="0px" y="0px"
	 viewBox="0 0 463.561 463.561" style="enable-background:new 0 0 463.561 463.561;" xml:space="preserve">
<path d="M428.201,198.99c-5.866-10.19-15.641-17.679-27.641-20.099v-34.343c0-26.102-21.31-47.686-47.044-48.115
	c-0.268-0.004-0.376-0.007-0.643-0.007c-26.179,0-47.313,21.299-47.313,47.478v27.487c0,3.674-3.326,6.664-7,6.664
	c-3.674,0-7-2.989-7-6.664v-26.843c0-26.102-20.952-47.686-46.685-48.115c-0.268-0.004-0.055-0.007-0.323-0.007
	c-26.179,0-46.992,21.299-46.992,47.478v42.48c0,13.293-11.721,21.521-22.123,21.522c-3.668,0-8.944-0.996-13.961-5.744
	c-12.939-12.243-19.916-28.792-19.916-46.598V98.079c0-23.875-20.218-43.296-44.094-43.296H39.148C17.562,54.782,0,72.196,0,93.782
	s17.562,39,39.148,39h24.413v22.782c0,37.573,13.807,72.993,40.053,99.738c12.425,12.661,26.947,22.716,41.947,29.884v59.731
	c0,14.41,10,26.64,23,30.741v24.791c0,4.6,3.9,8.329,8.5,8.329c4.6,0,8.5-3.73,8.5-8.329v-24.115
	c7-1.533,12.469-5.208,16.867-10.271c3.991,4.59,10.133,8.036,15.133,9.78v24.606c0,4.6,3.9,8.329,8.5,8.329
	c4.6,0,8.5-3.73,8.5-8.329v-24.33c14-3.564,24-16.207,24-31.202v-46.136h41v46.135c0,13.148,8,24.475,19,29.474v26.058
	c0,4.6,3.9,8.329,8.5,8.329c4.6,0,8.5-3.73,8.5-8.329v-23.547c8-0.927,14.422-4.736,19.501-10.355
	c3.977,4.399,8.499,7.688,14.499,9.356v24.546c0,4.6,3.9,8.329,8.5,8.329c4.6,0,8.5-3.73,8.5-8.329v-24.331
	c14-3.569,25-16.21,25-31.2v-53.911c14-8.516,22-23.762,22-40.207c0,0-0.199-32.792-0.249-33.631
	c7.864,3.25,13.249,10.998,13.249,20.022v45.591h17v-45.591C463.561,217.008,448.023,200.432,428.201,198.99z M67.5,92.551
	c0,2.973-2.418,5.391-5.391,5.391c-2.973,0-5.391-2.418-5.391-5.391s2.419-5.391,5.391-5.391C65.081,87.159,67.5,89.578,67.5,92.551
	z M193.561,344.917c0,8.575-7.003,15.551-15.5,15.551s-15.5-6.976-15.5-15.551v-53.374c10,3.085,21,5.087,31,5.952V344.917z
	 M347.561,344.917c0,8.575-7.503,15.551-16,15.551s-16-6.976-16-15.551v-46.135h32V344.917z M417.561,250.8
	c0,11.829-7.193,22.7-17.93,27.697l-5.07,2.241v64.18c0,8.558-7.217,15.463-15.734,15.482c-8.479-0.02-15.457-6.618-15.457-15.618
	h0.191v-55.114v-7.886h-122v63.136c0,8.562-6.524,15.537-15.024,15.549c-8.484-0.012-14.976-6.987-14.976-15.549V281.47
	l-8.574-0.165c-33.254-0.672-64.324-14.05-87.504-37.671c-23.17-23.611-35.922-54.888-35.922-88.07v-38.782H39.148
	c-12.401,0-22.489-10.099-22.489-22.5s10.089-22.5,22.489-22.5h16.607c-9.071,3-15.697,10.991-15.697,20.941
	c0,12.158,9.892,21.964,22.05,21.964c12.158,0,22.05-9.763,22.05-21.921c0-9.95-6.627-17.984-15.697-20.984h29.006
	c14.69,0,27.094,11.606,27.094,26.296v57.486c0,22.431,8.75,43.277,25.049,58.698c7.021,6.643,16.65,10.302,26.112,10.302
	c21.112-0.001,38.839-17.129,38.839-38.181v-42.48c0-16.993,13.161-30.819,30.155-30.819c0.175,0,0.367,0.002,0.543,0.005
	c16.702,0.278,30.302,14.39,30.302,31.458v26.843c0,12.86,10.14,23.322,23,23.322c12.86,0,23-10.462,23-23.322v-27.487
	c0-17.169,14.283-31.135,31.53-30.814c16.702,0.278,30.47,14.39,30.47,31.458v50.235h7.922c13.779,0,26.078,11.14,26.078,24.919
	V250.8z"/>
<g>
</g>
<g>
</g>
<g>
</g>
<g>
</g>
<g>
</g>
<g>
</g>
<g>
</g>
<g>
</g>
<g>
</g>
<g>
</g>
<g>
</g>
<g>
</g>
<g>
</g>
<g>
</g>
<g>
</g>
</svg>
