<?xml version="1.0" encoding="iso-8859-1"?>
<!-- Generator: Adobe Illustrator 18.0.0, SVG Export Plug-In . SVG Version: 6.00 Build 0)  -->
<!DOCTYPE svg PUBLIC "-//W3C//DTD SVG 1.1//EN" "http://www.w3.org/Graphics/SVG/1.1/DTD/svg11.dtd">
<svg version="1.1" id="Capa_1" xmlns="http://www.w3.org/2000/svg" xmlns:xlink="http://www.w3.org/1999/xlink" x="0px" y="0px"
	 viewBox="0 0 475.677 475.677" style="enable-background:new 0 0 475.677 475.677;" xml:space="preserve">
<g>
	<path d="M50.339,226.719c-12.423,0-22.53,10.107-22.53,22.53s10.107,22.529,22.53,22.529s22.529-10.106,22.529-22.529
		S62.762,226.719,50.339,226.719z M50.339,256.779c-4.152,0-7.53-3.378-7.53-7.529c0-4.152,3.378-7.53,7.53-7.53
		s7.529,3.378,7.529,7.53C57.869,253.401,54.491,256.779,50.339,256.779z"/>
	<path d="M475.677,251.327c0-28.266-22.996-51.262-51.262-51.262h-12.578c-9.513,0-18.035,4.311-23.726,11.078
		c-5.685-6.464-14.008-10.554-23.272-10.554h-3.002c-9.389,0-17.81,4.201-23.499,10.816c-5.689-6.615-14.11-10.816-23.499-10.816
		h-3.002c-9.389,0-17.81,4.201-23.499,10.816c-5.689-6.615-14.11-10.816-23.499-10.816h-3.002c-9.665,0-18.31,4.449-23.999,11.404
		c-5.689-6.955-14.334-11.404-24-11.404h-3.001c-9.389,0-17.81,4.201-23.5,10.816c-5.689-6.615-14.11-10.816-23.5-10.816h-3.001
		c-9.389,0-17.81,4.201-23.5,10.816c-5.689-6.615-14.11-10.816-23.5-10.816h-3.001c-8.804,0-16.755,3.695-22.404,9.608
		c-4.408-5.741-10.774-9.901-18.094-11.47v-9.918c0-5.359,4.36-9.72,9.719-9.72v-15c-13.63,0-24.719,11.089-24.719,24.72v9.227
		h-4.079c-2.835,0-5.613,0.241-8.324,0.686v-9.913c0-5.359,4.36-9.72,9.719-9.72v-15c-13.63,0-24.719,11.089-24.719,24.72v14.864
		C11.37,212.177,0,229.428,0,249.297c0,28.266,22.996,51.262,51.262,51.262h12.577c8.921,0,16.968-3.793,22.629-9.844
		c2.785,3.541,6.322,6.461,10.37,8.52v12.355h15v-9h2v9h15v-12.882c3.231-1.794,6.106-4.151,8.5-6.934
		c2.394,2.783,5.269,5.139,8.5,6.934v12.882h15v-9h2v9h15v-12.355c3.638-1.85,6.862-4.395,9.5-7.461
		c2.638,3.067,5.862,5.612,9.5,7.461v12.355h15v-9h2v9h15v-12.882c3.457-1.92,6.512-4.479,9-7.521c2.725,3.331,6.131,6.082,10,8.049
		v12.355h15v-9h2v9h15v-12.882c3.231-1.794,6.106-4.151,8.5-6.934c2.638,3.067,5.862,5.612,9.5,7.461v12.355h15v-9h2v9h15v-12.882
		c3.231-1.794,6.106-4.151,8.5-6.934c2.394,2.783,5.269,5.139,8.5,6.934v12.882h15v-9h2v9h15v-12.355
		c3.638-1.85,6.862-4.395,9.5-7.461c1.624,1.888,3.471,3.579,5.5,5.031v14.785h15v-9.148c0.66,0.064,1.328,0.101,2,0.122v9.025h15
		v-9.036C453.447,301.794,475.677,279.115,475.677,251.327z M63.839,285.558H51.262C31.267,285.558,15,269.292,15,249.297
		s16.267-36.262,36.262-36.262h12.577c8.822,0,16,7.177,16,15.999v2.554v37.972C79.838,278.382,72.661,285.558,63.839,285.558z
		 M113.839,287.589h-3.001c-8.822,0-16-7.177-16-15.999v-2.03v-37.972c0-7.075,4.621-13.083,11-15.188v24.189
		c0,4.143,3.358,7.5,7.5,7.5s7.5-3.357,7.5-7.5v-23.366c5.319,2.603,9,8.055,9,14.365v40.002
		C129.838,280.412,122.661,287.589,113.839,287.589z M163.839,287.589h-3.001c-8.822,0-16-7.177-16-15.999v-40.002
		c0-6.7,4.144-12.442,10-14.821v23.822c0,4.143,3.358,7.5,7.5,7.5s7.5-3.357,7.5-7.5v-23.822c5.856,2.379,10,8.121,10,14.821v40.002
		C179.838,280.412,172.661,287.589,163.839,287.589z M229.838,271.59c0,8.822-7.177,15.999-16,15.999h-3.001
		c-8.822,0-16-7.177-16-15.999v-40.002c0-6.7,4.144-12.442,10-14.821v23.822c0,4.143,3.358,7.5,7.5,7.5s7.5-3.357,7.5-7.5v-23.822
		c5.856,2.379,10,8.121,10,14.821V271.59z M264.839,287.589h-3.002c-8.822,0-15.999-7.177-15.999-15.999v-40.002
		c0-6.7,4.144-12.442,10-14.822v23.823c0,4.143,3.357,7.5,7.5,7.5s7.5-3.357,7.5-7.5v-23.823c5.856,2.379,10,8.121,10,14.822v40.002
		C280.838,280.412,273.662,287.589,264.839,287.589z M314.839,287.589h-3.002c-8.822,0-15.999-7.177-15.999-15.999v-40.002
		c0-7.076,4.621-13.083,11-15.188v24.189c0,4.143,3.357,7.5,7.5,7.5s7.5-3.357,7.5-7.5v-23.366c5.319,2.603,9,8.055,9,14.365v40.002
		C330.838,280.412,323.662,287.589,314.839,287.589z M364.839,287.589h-3.002c-8.822,0-15.999-7.177-15.999-15.999v-40.002
		c0-6.7,4.144-12.442,10-14.822v23.823c0,4.143,3.357,7.5,7.5,7.5s7.5-3.357,7.5-7.5v-23.823c5.856,2.379,10,8.121,10,14.822v40.002
		C380.838,280.412,373.662,287.589,364.839,287.589z M424.416,287.589h-12.578c-8.822,0-15.999-7.177-15.999-15.999v-40.002v-0.523
		c0-7.076,4.621-13.083,11-15.188v24.713c0,4.143,3.357,7.5,7.5,7.5s7.5-3.357,7.5-7.5v-25.523h2.577
		c19.995,0,36.262,16.267,36.262,36.262S444.411,287.589,424.416,287.589z"/>
</g>
<g>
</g>
<g>
</g>
<g>
</g>
<g>
</g>
<g>
</g>
<g>
</g>
<g>
</g>
<g>
</g>
<g>
</g>
<g>
</g>
<g>
</g>
<g>
</g>
<g>
</g>
<g>
</g>
<g>
</g>
</svg>
