<?xml version="1.0" encoding="iso-8859-1"?>
<!-- Generator: Adobe Illustrator 18.0.0, SVG Export Plug-In . SVG Version: 6.00 Build 0)  -->
<!DOCTYPE svg PUBLIC "-//W3C//DTD SVG 1.1//EN" "http://www.w3.org/Graphics/SVG/1.1/DTD/svg11.dtd">
<svg version="1.1" id="Capa_1" xmlns="http://www.w3.org/2000/svg" xmlns:xlink="http://www.w3.org/1999/xlink" x="0px" y="0px"
	 viewBox="0 0 302.163 302.163" style="enable-background:new 0 0 302.163 302.163;" xml:space="preserve">
<g>
	<path d="M195.551,55.828c-8.504-2.131-17.303-3.212-26.151-3.212c-2.66,0-5.326,0.1-7.979,0.295C154.159,22.603,126.844,0,94.341,0
		c-38.037,0-68.99,30.945-68.99,68.981v68.182H64.3c-1.509,8-2.288,14.994-2.288,22.442c0,26.013,9.616,51.31,26.724,70.868
		c15.334,17.53,35.615,29.761,58.615,34.564v37.126h16v-34.94c2,0.103,4.417,0.171,6.334,0.171c1.697,0,3.666-0.055,5.666-0.134
		v34.903h16v-37.011c22-4.311,40.076-14.847,55.018-30.164c16.687-17.107,27.25-39.565,29.823-63.227
		c0.426-3.872,0.62-7.828,0.62-11.756C276.812,110.634,243.382,67.794,195.551,55.828z M260.107,160.005
		c0,0.996-0.022,1.994-0.055,2.992c-0.255,0.003-0.508,0.011-0.763,0.011c-36.111,0-65.49-29.378-65.49-65.49
		c0-8.179,1.469-16.073,4.363-23.556C234.959,86.199,260.107,120.637,260.107,160.005z M42.351,68.981
		c0-28.837,23.311-52.298,52.149-52.298s52.224,22.903,52.224,51.74s-23.536,51.74-52.374,51.74H42.351V68.981z M234.337,223.339
		c-14.071,14.425-32.76,23.85-52.638,26.539c-8.255,1.13-16.896,1.106-25.219-0.086c-21.399-3.047-41.067-13.739-55.381-30.103
		c-14.447-16.517-22.404-38.113-22.404-60.085c0-7.477,0.921-14.442,2.715-22.442H94.35c37.859,0,68.681-30.259,68.968-68.051
		c2.024-0.134,4.054-0.013,6.083-0.013c4.155,0,8.293,0.392,12.384,0.95c-3.096,8.74-4.668,17.955-4.668,27.419
		c0,44.858,36.132,81.455,80.82,82.18C254.296,195.996,246.12,211.259,234.337,223.339z"/>
	<path d="M117.137,91.769c6.087-6.087,9.439-14.18,9.439-22.788c0-8.607-3.352-16.7-9.439-22.787s-14.179-9.439-22.787-9.439
		s-16.701,3.352-22.787,9.439s-9.439,14.179-9.439,22.787c0,8.608,3.352,16.701,9.439,22.788s14.179,9.439,22.787,9.439
		S111.05,97.856,117.137,91.769z M78.807,68.981c0-4.151,1.617-8.055,4.552-10.99c2.936-2.935,6.839-4.552,10.991-4.552
		s8.055,1.617,10.991,4.552c2.935,2.935,4.552,6.839,4.552,10.99c0,4.152-1.617,8.055-4.552,10.991
		c-2.936,2.936-6.839,4.553-10.991,4.553s-8.055-1.617-10.991-4.553C80.424,77.037,78.807,73.133,78.807,68.981z"/>
</g>
<g>
</g>
<g>
</g>
<g>
</g>
<g>
</g>
<g>
</g>
<g>
</g>
<g>
</g>
<g>
</g>
<g>
</g>
<g>
</g>
<g>
</g>
<g>
</g>
<g>
</g>
<g>
</g>
<g>
</g>
</svg>
