<?xml version="1.0" encoding="iso-8859-1"?>
<!-- Generator: Adobe Illustrator 18.1.1, SVG Export Plug-In . SVG Version: 6.00 Build 0)  -->
<svg version="1.1" id="Capa_1" xmlns="http://www.w3.org/2000/svg" xmlns:xlink="http://www.w3.org/1999/xlink" x="0px" y="0px"
	 viewBox="0 0 359.01 359.01" style="enable-background:new 0 0 359.01 359.01;" xml:space="preserve">
<g>
	<path d="M341.59,146.972c0.749,0.419,1.491,0.85,2.218,1.311l15.202,9.636l-3.983-17.553c-1.791-7.895-5.085-15.28-9.792-21.953
		c-5.895-8.347-13.732-14.996-22.658-19.51l17.235-0.918L326.407,85.99c-6.028-5.395-12.997-9.504-20.713-12.213
		c-32.198-11.299-67.592,5.7-78.898,37.892c-0.71,2.015-1.305,4.08-1.802,6.165c-15.311,8.307-32.48,12.686-49.87,12.686
		c-9.114,0-18.132-1.206-26.891-3.552c0.028-0.773,0.056-1.545,0.056-2.322c0-10.252-2.494-20.12-7.197-28.911l27.155-36.155
		l-5.94-4.46c-10.365-7.784-24.094-9.471-36.167-5.794l6.618-17.207l-6.931-2.667c-9.225-3.55-20.159-3.198-29.997,0.963
		c-4.396,1.859-8.326,4.355-11.69,7.366l-1.34-18.5l-7.408,0.538c-21.343,1.547-38.708,21.625-37.16,42.968
		c0.459,6.319,2.488,12.339,5.924,17.739c-0.239,0.231-0.486,0.453-0.722,0.689L0,124.644l43.433,43.433
		c0.194,0.194,0.399,0.375,0.594,0.566c-3.702,11.642-5.563,23.757-5.563,36.085c0,50.823,31.321,94.29,77.039,111.25v23.752h13.715
		v-19.234c3.657,0.571,5.486,1.057,8.229,1.473v17.762h15.544v-16.247c1.829,0.06,2.926,0.101,4.496,0.101
		c31.748,0,61.5-12.363,83.948-34.811c22.449-22.449,34.765-52.297,34.765-84.044c0-7.752-0.788-15.478-2.273-23.053
		c6.054-2.134,12.506-3.016,18.967-2.561c19.088,1.35,35.312,13.957,41.34,32.114l5.672,17.094l8.023-16.126
		c3.608-7.251,5.729-15.055,6.307-23.195c0.95-13.435-2.393-26.509-9.664-37.81C343.64,149.741,342.641,148.336,341.59,146.972z
		 M333.099,126.98c0.243,0.345,0.482,0.692,0.715,1.041c-6.664-1.688-13.604-2.261-20.508-1.672
		c-5.265-1.881-10.786-3.043-16.447-3.447c-9.668-0.689-19.077,0.837-27.948,4.516c-5.219,2.151-10.174,5.063-14.652,8.575
		c-0.604-0.85-1.217-1.694-1.842-2.525c2.563-5.253,6.093-10.035,10.378-13.968c1.507-1.377,3.103-2.662,4.747-3.82
		c8.24-5.814,17.907-8.775,27.959-8.602C310.436,107.349,324.491,114.79,333.099,126.98z M300.773,87.793
		c0.4,0.141,0.797,0.286,1.191,0.437c-2.875,1.116-5.665,2.46-8.353,3.997c-12.453,0.19-24.387,4.084-34.632,11.314
		c-2.15,1.515-4.237,3.195-6.218,5.003c-4.122,3.784-7.717,8.151-10.674,12.915c-0.25-0.255-1.672-1.674-2.139-2.126
		c0.262-0.921,0.543-1.836,0.86-2.738C249.404,92.127,276.303,79.207,300.773,87.793z M146.624,63.632l-14.58,19.412
		c-0.571-0.619-1.147-1.233-1.746-1.832c-3.688-3.688-7.764-6.843-12.132-9.44C124.985,62.978,137.209,60.744,146.624,63.632z
		 M101.616,44.095c3.754-1.587,7.702-2.339,11.475-2.223l-9.138,23.76c-5.485-1.58-11.222-2.41-17.088-2.41
		c-0.133,0-0.266,0.009-0.4,0.01c0.227-1.856,0.66-3.666,1.319-5.382C90.127,51.76,95.039,46.876,101.616,44.095z M53.047,61.709
		c-0.816-11.255,7.017-21.126,16.109-25.172l2.078,28.693c-5.326,1.392-10.423,3.497-15.18,6.265
		C54.546,68.842,53.328,65.571,53.047,61.709z M21.008,124.644l32.929-32.929c8.795-8.795,20.49-13.639,32.929-13.639
		s24.133,4.844,32.929,13.639c8.795,8.795,13.639,20.49,13.639,32.929s-4.844,24.133-13.639,32.929
		c-8.795,8.796-20.49,13.639-32.929,13.639s-24.133-4.844-32.929-13.639L21.008,124.644z M125.433,184.899
		c-1.007,3.556-3.339,6.505-6.567,8.306c-3.229,1.802-6.966,2.237-10.526,1.227c-4.584-1.298-8.05-4.874-9.419-9.212
		c0.016-0.113,0.037-0.226,0.051-0.339c9.016-1.792,17.47-5.594,24.839-11.166C125.871,176.97,126.532,181.023,125.433,184.899z
		 M56.986,178.322c8.07,4.508,17.081,7.138,26.493,7.647c-1.144,3.074-3.31,5.62-6.207,7.236c-3.229,1.802-6.966,2.237-10.526,1.227
		c-3.555-1.008-6.505-3.339-8.306-6.566C56.801,184.931,56.305,181.578,56.986,178.322z M230.837,278.267
		c-19.643,19.643-45.76,30.461-73.539,30.461c-57.342,0-103.994-46.654-103.994-104c0-0.214,0.005-0.426,0.007-0.64
		c2.78,2.081,5.941,3.661,9.381,4.636c2.601,0.739,5.248,1.104,7.879,1.104c4.83-0.001,9.606-1.233,13.939-3.651
		c2.577-1.438,4.874-3.231,6.849-5.312c3.447,3.645,7.86,6.422,12.926,7.858c2.601,0.739,5.248,1.104,7.879,1.104
		c4.83-0.001,9.606-1.233,13.939-3.651c6.693-3.735,11.53-9.854,13.619-17.227c2.564-9.046,0.508-18.561-5.119-25.658
		c5.215-6.417,9.02-13.735,11.276-21.573c9.542,2.424,19.345,3.655,29.242,3.655c19.484,0,38.724-4.806,55.951-13.94
		c2.466,2.482,4.816,5.1,7.006,7.806c3.057,3.747,5.872,7.754,8.375,11.923c5.079,8.423,8.921,17.509,11.429,27.022l0.718,2.893
		c1.79,7.728,2.697,15.674,2.697,23.65C261.298,232.507,250.48,258.625,230.837,278.267z M339.417,187.951
		c-0.028,0.402-0.062,0.804-0.101,1.204c-10.561-14.28-26.961-23.556-45.384-24.859c-8.091-0.576-16.187,0.454-23.822,2.978
		c-2.125-6.401-4.791-12.601-7.973-18.542c3.737-3.149,7.96-5.736,12.449-7.586c6.736-2.794,13.876-3.948,21.219-3.426
		c4.778,0.341,9.421,1.383,13.806,3.099C328.9,148.343,340.878,167.286,339.417,187.951z"/>
	<path d="M130.853,232.994c0,29.634,23.495,53.967,53.13,53.967s53.13-23.886,53.13-53.52v-54.638h-52.516
		C154.963,178.803,130.853,203.359,130.853,232.994z M223.398,233.441c0,21.444-17.401,38.889-38.845,38.889l0,0
		c-21.444,0-38.867-17.548-38.867-38.991c0-21.444,17.467-38.992,38.91-38.992h38.801L223.398,233.441L223.398,233.441z"/>
	<path d="M85.688,153.339c7.665,0,14.871-2.984,20.291-8.405c11.188-11.188,11.188-29.393,0-40.581
		c-5.419-5.419-12.625-8.404-20.291-8.404s-14.871,2.984-20.291,8.404c-11.188,11.188-11.188,29.393,0,40.581
		C70.818,150.354,78.024,153.339,85.688,153.339z M75.902,114.858c2.614-2.614,6.09-4.053,9.786-4.053s7.172,1.439,9.786,4.053
		c5.397,5.396,5.397,14.176,0,19.572c-2.614,2.614-6.09,4.054-9.786,4.054s-7.172-1.44-9.786-4.054
		C70.506,129.034,70.506,120.253,75.902,114.858z"/>
</g>
<g>
</g>
<g>
</g>
<g>
</g>
<g>
</g>
<g>
</g>
<g>
</g>
<g>
</g>
<g>
</g>
<g>
</g>
<g>
</g>
<g>
</g>
<g>
</g>
<g>
</g>
<g>
</g>
<g>
</g>
</svg>
