<?xml version="1.0" encoding="iso-8859-1"?>
<!-- Generator: Adobe Illustrator 18.0.0, SVG Export Plug-In . SVG Version: 6.00 Build 0)  -->
<!DOCTYPE svg PUBLIC "-//W3C//DTD SVG 1.1//EN" "http://www.w3.org/Graphics/SVG/1.1/DTD/svg11.dtd">
<svg version="1.1" id="Capa_1" xmlns="http://www.w3.org/2000/svg" xmlns:xlink="http://www.w3.org/1999/xlink" x="0px" y="0px"
	 viewBox="0 0 453.832 453.832" style="enable-background:new 0 0 453.832 453.832;" xml:space="preserve">
<g>
	<path d="M77.103,165.865c-17.765,0-32.218,14.453-32.218,32.217s14.453,32.217,32.218,32.217c17.765,0,32.217-14.453,32.217-32.217
		S94.868,165.865,77.103,165.865z M77.103,214.299c-8.942,0-16.218-7.275-16.218-16.217s7.275-16.217,16.218-16.217
		s16.217,7.275,16.217,16.217S86.045,214.299,77.103,214.299z"/>
	<path d="M178.95,198.082c0-17.765-14.453-32.217-32.217-32.217s-32.217,14.453-32.217,32.217s14.453,32.217,32.217,32.217
		S178.95,215.847,178.95,198.082z M146.733,214.299c-8.942,0-16.217-7.275-16.217-16.217s7.275-16.217,16.217-16.217
		s16.217,7.275,16.217,16.217S155.675,214.299,146.733,214.299z"/>
	<path d="M409.474,203.118c-2.439-21.631-11.503-40.789-26.625-55.911c-6.685-6.696-12.671-11.316-20.021-15.452
		c-13.321-7.489-29.276-11.286-47.421-11.286H204.827c-2.543-10.495-7.921-20.426-16.082-28.587
		c-5.653-5.653-12.227-10.058-19.541-13.092l-17.9-7.427l7.448,17.891c5.446,13.081,4.325,27.692-2.686,39.628
		c-12.48-7.57-26.824-11.621-41.794-11.621c-16.242,0-31.751,4.763-44.937,13.623c-8.03-12.21-9.66-27.866-3.931-41.631
		l7.445-17.889L54.952,78.79c-7.313,3.034-13.888,7.439-19.541,13.092c-21.071,21.071-23.483,53.802-6.776,77.546L0,198.063
		l57.137,57.136c15.261,15.262,35.553,23.667,57.136,23.667c4.641,0,9.217-0.412,13.701-1.174c2.84,3.421,5.914,6.613,9.194,9.572
		v95.206h42h15h41v-69h38.599c3.715,9.552,9.772,17.809,17.401,24.16v17.84h16v-8.293c1.636,0.657,3.302,1.25,5,1.762v33.532h98
		V219.373c15.702,2.798,27.664,16.54,27.664,33.034v81.694h16v-81.694C453.832,226.836,434.366,205.729,409.474,203.118z
		 M349.168,142.826v36.274c0,3.292-2.691,5.97-6,5.97c-12.131,0-22,9.86-22,21.98v10.03c0,5.412-1.406,9.559-4.188,12.333
		c-3.149,3.15-8.074,5.106-12.853,5.106c-9.735,0-17.96-7.986-17.96-17.44v-49.16c0-0.552-0.41-3.84,1.751-6
		c1.449-1.45,3.535-1.691,4.739-1.691c12.062,0,21.51-9.655,21.51-21.98v-1.78h1.24
		C328.141,136.469,339.461,138.609,349.168,142.826z M178.152,103.934c13.349,13.966,16.001,34.538,7.408,51.146l-14.153-14.153
		c-0.812-0.812-1.645-1.594-2.485-2.367C175.495,128.119,178.657,116.046,178.152,103.934z M46.053,103.882
		c-0.526,13.153,3.246,26.287,10.9,37.229l-16.779,16.779C29.783,140.928,31.841,118.704,46.053,103.882z M68.45,243.885
		l-45.822-45.822l45.822-45.822c12.24-12.239,28.513-18.98,45.822-18.98s33.583,6.741,45.822,18.98l45.822,45.822l-45.822,45.822
		c-12.24,12.239-28.513,18.98-45.822,18.98S80.69,256.125,68.45,243.885z M178.168,308.935v28.534h-25v-38.591
		C160.881,303.319,169.278,306.711,178.168,308.935z M153.168,366.469v-13h25v13H153.168z M195.168,366.469v-13h24v13H195.168z
		 M227.168,297.469h-8v40h-24v-41.557l-6.662-1.13c-16.836-2.856-31.884-10.545-43.381-21.994c9.712-4.009,18.63-9.936,26.283-17.59
		l57.136-57.136l-31.269-31.269c5.86-9.326,8.919-19.805,9.225-30.325h91.668v1.78c0,3.409-2.369,5.98-5.51,5.98
		c-5.729,0-10.798,2.165-15.066,6.433c-4.926,4.925-7.424,10.152-7.424,15.537v50.88c0,18.439,15.234,33.44,33.96,33.44
		c9.001,0,18.035-3.661,24.16-9.787c5.81-5.796,8.88-13.976,8.88-23.653v-10.03c0-3.297,2.691-5.98,6-5.98
		c12.131,0,22-9.856,22-21.97v-26.413c2.089,1.727,4.176,3.64,6.362,5.83c14.81,14.81,22.638,34.39,22.638,56.623v122.33h-24
		v-61.375l-12.055,7.089c-14.583,8.575-27.427,14.286-42.705,14.286h-41.561H227.168z M353.168,328.357
		c-7.048,4.607-15.352,7.113-23.85,7.113c-15.891,0-30.259-8.663-37.884-22h23.974c13.911,0,25.758-3.581,37.76-9.419V328.357z
		 M328.168,366.469v-13h25v13H328.168z M370.168,366.469v-13h24v13H370.168z"/>
	<path d="M245.69,219.435c-12.413,0-22.511,10.099-22.511,22.511v27.606c0,12.413,10.098,22.511,22.511,22.511
		c12.412,0,22.511-10.098,22.511-22.511v-27.606C268.201,229.533,258.103,219.435,245.69,219.435z M252.201,269.552
		c0,3.59-2.921,6.511-6.511,6.511s-6.511-2.921-6.511-6.511v-27.606c0-3.59,2.921-6.511,6.511-6.511s6.511,2.921,6.511,6.511
		V269.552z"/>
</g>
<g>
</g>
<g>
</g>
<g>
</g>
<g>
</g>
<g>
</g>
<g>
</g>
<g>
</g>
<g>
</g>
<g>
</g>
<g>
</g>
<g>
</g>
<g>
</g>
<g>
</g>
<g>
</g>
<g>
</g>
</svg>
