<?xml version="1.0" encoding="iso-8859-1"?>
<!-- Generator: Adobe Illustrator 18.0.0, SVG Export Plug-In . SVG Version: 6.00 Build 0)  -->
<!DOCTYPE svg PUBLIC "-//W3C//DTD SVG 1.1//EN" "http://www.w3.org/Graphics/SVG/1.1/DTD/svg11.dtd">
<svg version="1.1" id="Capa_1" xmlns="http://www.w3.org/2000/svg" xmlns:xlink="http://www.w3.org/1999/xlink" x="0px" y="0px"
	 viewBox="0 0 474.232 474.232" style="enable-background:new 0 0 474.232 474.232;" xml:space="preserve">
<g>
	<path d="M139.223,207.533c-7.166,0-13.902,2.79-18.969,7.857c-10.459,10.459-10.458,27.478,0,37.936
		c5.066,5.067,11.803,7.858,18.969,7.858c7.165,0,13.902-2.791,18.968-7.857c10.458-10.459,10.459-27.478,0-37.938
		C153.124,210.323,146.388,207.533,139.223,207.533z M146.877,242.014c-2.044,2.045-4.763,3.171-7.654,3.171
		c-2.892,0-5.61-1.126-7.655-3.172c-4.221-4.221-4.221-11.088,0-15.309c2.044-2.045,4.763-3.171,7.655-3.171s5.61,1.126,7.654,3.17
		C151.098,230.925,151.098,237.793,146.877,242.014z"/>
	<path d="M195.406,261.185c7.165,0,13.902-2.791,18.968-7.857c10.458-10.459,10.459-27.478,0-37.938
		c-5.067-5.066-11.803-7.856-18.968-7.856c-7.166,0-13.902,2.79-18.969,7.857c-10.458,10.459-10.458,27.478,0,37.936
		C181.503,258.394,188.24,261.185,195.406,261.185z M206.115,232.894c0.439,3.238-0.572,6.636-3.055,9.119
		c-2.044,2.045-4.763,3.171-7.654,3.171c-2.892,0-5.61-1.126-7.655-3.172c-4.22-4.22-4.22-11.088,0-15.309
		c2.045-2.045,4.763-3.171,7.655-3.171c2.892,0,5.61,1.126,7.654,3.17c1.736,1.736,2.746,3.922,3.054,6.186"/>
	<path d="M474.232,272.051l-18.374-26.43c-2.545-3.66-4.596-7.63-6.248-11.77c-5.453-13.671-15.642-25.373-28.755-32.762
		c-15.633-8.807-33.729-10.903-50.957-5.902l-48.909,14.189c-10.523,3.051-21.938,2.53-32.147-1.466l-19.62-7.676
		c-0.22-0.225-0.426-0.459-0.649-0.681c-10.073-10.072-22.577-17.043-36.336-20.311c-1.608-2.434-3.389-4.785-5.307-7.059
		c22.054-8.424,37.316-29.675,37.316-54.423v-2.745h35.181c20.985,0,37.997-17.012,37.997-37.997V41.924h-16v35.093
		c0,12.149-9.848,21.997-21.997,21.997h-35.181V58.938h-16v58.82c0,2.036-0.143,4.04-0.419,6.001h-18.416
		c-7.158,0-12.96-5.802-12.96-12.96V85.262h-16V110.8c0,15.994,12.966,28.96,28.96,28.96h12.716
		c-6.176,10.189-16.557,17.553-28.938,19.665c-12.853-9.288-28.241-14.316-44.409-14.316c-16.18,0-31.58,5.035-44.438,14.336
		c-12.297-2.095-23.023-9.633-29.293-20.195h11.717c15.994,0,28.96-12.966,28.96-28.96V85.771h-16v24.521
		c0,7.158-5.802,12.96-12.96,12.96H89.539c-0.235-1.816-0.361-3.65-0.361-5.492v-58.82h-16v40.075h-35.18
		C25.848,99.014,16,89.165,16,77.017V41.924H0v35.093c0,20.985,17.012,37.997,37.997,37.997h35.18v2.745
		c0,5.298,0.714,10.557,2.122,15.631c4.986,17.958,18.4,32.26,35.333,38.792c-25.167,29.845-23.72,74.637,4.381,102.738
		l34.026,34.025c5.273,5.274,12.285,8.179,19.742,8.179c0.332,0,0.663-0.013,0.993-0.024l36.143,36.143v79.066h30.13h13.6h30.13
		v-98.395l50.533-3.638c3.804,22.941,23.774,40.492,47.777,40.492c1.573,0,3.146-0.076,4.71-0.227v61.767h27.35h8.38h35.35V322.365
		l0.23-51.233l6.988,10.051L474.232,272.051z M126.326,263.604c-11.34-11.34-17.585-26.417-17.585-42.454
		c0-16.038,6.245-31.115,17.585-42.455c11.34-11.341,26.417-17.586,42.455-17.586c16.037,0,31.114,6.245,42.455,17.586
		c11.34,11.34,17.585,26.417,17.585,42.455c0,16.037-6.246,31.114-17.585,42.454l-34.026,34.026
		c-2.251,2.252-5.245,3.492-8.429,3.492c-3.184,0-6.177-1.24-8.428-3.492L126.326,263.604z M188.523,308.945l34.026-34.026
		c20.353-20.353,26.732-49.468,19.14-75.315c5.71,2.876,10.964,6.656,15.572,11.263c11.426,11.421,17.718,26.61,17.718,42.769
		s-6.293,31.351-17.719,42.776l-42.773,42.773l-28.219-28.22C187.049,310.336,187.804,309.665,188.523,308.945z M221.917,416.309
		v-61.926l11.73-11.73v73.656H221.917z M346.368,329.12l10.989-0.791c1.165,9.385,5.034,17.939,10.79,24.875
		C357.214,349.676,348.801,340.495,346.368,329.12z M398.797,416.309v-45.997c2.172,0.299,4.388,0.457,6.64,0.457
		c1.574,0,3.149-0.076,4.71-0.227v45.767H398.797z M437.877,322.329v93.979h-11.73v-66.791l-10.595,3.634
		c-3.041,1.043-6.633,1.617-10.115,1.617c-17.893,0-32.45-14.553-32.45-32.439v-11.167l-109.21,7.861v97.285h-11.73v-92.055
		l16.527-16.527c14.449-14.449,22.406-33.658,22.406-54.091c0-10.547-2.136-20.761-6.175-30.168
		c13.008,4.655,27.358,5.125,40.642,1.274l48.911-14.19c13.065-3.792,26.789-2.202,38.644,4.477
		c11.573,6.521,20.134,17.435,23.489,29.943l0.127,0.466c0.914,3.53,1.426,7.188,1.524,10.946c0.017,0.466,0.025,0.939,0.025,1.369
		L437.877,322.329z"/>
</g>
<g>
</g>
<g>
</g>
<g>
</g>
<g>
</g>
<g>
</g>
<g>
</g>
<g>
</g>
<g>
</g>
<g>
</g>
<g>
</g>
<g>
</g>
<g>
</g>
<g>
</g>
<g>
</g>
<g>
</g>
</svg>
