<?xml version="1.0" encoding="iso-8859-1"?>
<!-- Generator: Adobe Illustrator 18.0.0, SVG Export Plug-In . SVG Version: 6.00 Build 0)  -->
<!DOCTYPE svg PUBLIC "-//W3C//DTD SVG 1.1//EN" "http://www.w3.org/Graphics/SVG/1.1/DTD/svg11.dtd">
<svg version="1.1" id="Capa_1" xmlns="http://www.w3.org/2000/svg" xmlns:xlink="http://www.w3.org/1999/xlink" x="0px" y="0px"
	 viewBox="0 0 354 354" style="enable-background:new 0 0 354 354;" xml:space="preserve">
<g>
	<path d="M157.334,37.572c-16.734,0-30.348,13.614-30.348,30.348c0,16.733,13.614,30.347,30.348,30.347
		c16.733,0,30.347-13.614,30.347-30.347C187.681,51.185,174.067,37.572,157.334,37.572z M157.334,82.007
		c-7.768,0-14.089-6.32-14.089-14.088s6.32-14.089,14.089-14.089c7.768,0,14.088,6.32,14.088,14.089S165.103,82.007,157.334,82.007z
		"/>
	<path d="M337,55.5v159.096c-8-11.301-17.934-21.642-28.568-30.879C281.286,160.123,249,144.128,214,137.237v-7.794v-16.259V100.5
		h26.285C266.124,100.5,287,80.236,287,54.397V46.5h-11.304C282.82,38.5,287,27.337,287,15.63V7.5H0v8.13
		C0,28.19,1.668,39.496,5.563,51.206c5.677,17.098,14.942,32.574,27.07,44.701c21.644,21.645,49.876,33.594,79.494,33.594H137
		v159.246c-21,3.897-38,23.102-38,46.136V346.5h53.16c21.889,0,39.84-17.987,39.84-40.094v-24.918
		c7,8.106,15.67,15.546,24.412,22.299c-0.574,0.512-1.079,1.028-1.617,1.566C205.968,314.181,201,325.907,201,338.37v8.13h153
		v-65.489v-21.244V55.5H337z M214,23.5h55.79c-3.569,13-15.445,23-29.504,23H214V23.5z M214,62.5h55.79
		c-3.569,13-15.445,22-29.504,22H214V62.5z M16.279,23.5h16.553c-2.174,7-7.333,12.54-14.038,15.266
		C17.527,33.739,16.691,28.5,16.279,23.5z M112.127,113.5c-25.275,0-49.423-10.387-67.996-28.961
		c-8.343-8.342-15.19-18.778-20.091-30.137C37.266,49.405,47.123,37.5,49.712,23.5H198v90H112.127z M194.606,259.842
		c-0.504-0.626-0.998-1.254-1.493-1.884c-0.996-1.268-1.826-2.578-2.983-3.943L176,237.105v69.301
		c0,13.366-10.698,24.094-23.84,24.094h-36.375c2.205-15,14.699-26,29.734-26H154v-175h44v14.543c0,2.714,1.429,7.495,7.633,8.194
		l0.017,0.015c34.059,5.721,65.922,20.843,92.265,43.738c11.161,9.696,21.125,20.72,29.791,32.874
		c-2.921-2.232-6.034-4.236-9.305-5.947c-9.306-4.877-19.823-7.455-30.4-7.455c-36.15,0-65.564,29.405-65.564,65.549
		c0,1.446,0.048,2.91,0.145,4.328c0.063,0.966,0.155,1.926,0.26,2.884C212.492,279.821,203.039,270.331,194.606,259.842z
		 M218.494,330.5c1.384-5,3.983-9.738,7.766-13.52c1.389-1.389,2.895-2.69,4.585-3.804c2.907,5.164,6.522,10.052,10.785,14.317
		c1.012,1.012,2.062,2.008,3.128,3.008H218.494z M337,330.5h-49.017c-13.187,0-25.566-5.246-34.854-14.535
		c-8.463-8.468-13.549-19.738-14.325-31.643c-0.073-1.076-0.11-2.2-0.11-3.279c0-27.179,22.116-49.306,49.302-49.306
		c7.959,0,15.858,1.927,22.851,5.592c11.232,5.876,19.775,16.101,23.766,28.066c1.709,5.114,2.389,10.365,2.389,15.616V330.5z"/>
</g>
<g>
</g>
<g>
</g>
<g>
</g>
<g>
</g>
<g>
</g>
<g>
</g>
<g>
</g>
<g>
</g>
<g>
</g>
<g>
</g>
<g>
</g>
<g>
</g>
<g>
</g>
<g>
</g>
<g>
</g>
</svg>
