<?xml version="1.0" encoding="iso-8859-1"?>
<!-- Generator: Adobe Illustrator 18.0.0, SVG Export Plug-In . SVG Version: 6.00 Build 0)  -->
<!DOCTYPE svg PUBLIC "-//W3C//DTD SVG 1.1//EN" "http://www.w3.org/Graphics/SVG/1.1/DTD/svg11.dtd">
<svg version="1.1" id="Capa_1" xmlns="http://www.w3.org/2000/svg" xmlns:xlink="http://www.w3.org/1999/xlink" x="0px" y="0px"
	 viewBox="0 0 383.046 383.046" style="enable-background:new 0 0 383.046 383.046;" xml:space="preserve">
<g>
	<path d="M383.046,213.293c0-29.6-9.731-57.458-28.142-80.565l-10.166-12.759l-3.863,15.85
		c-8.573,35.169-39.89,59.731-76.156,59.731c-25.491,0-48.266-12.35-62.608-31.377c-12.976-17.217-14.134-40.387-4.231-59.537
		c5.46-10.558,8.201-22.739,7.28-35.617c-2.396-33.503-29.714-60.332-63.253-62.157c-35.543-1.934-65.552,23.945-70.242,57.804
		c-22.544,0.432-44.241-8.246-60.35-24.356L0,51.623c15.044,15.044,34.174,24.652,54.676,27.864
		c-9.651,4.767-18.52,11.106-26.256,18.843l11.314,11.313c9.352-9.353,20.668-16.274,33.083-20.308
		c6.986,29.626,33.628,51.75,65.357,51.75c2.844,0,5.642-0.198,8.394-0.543c-14.436,21.175-22.333,46.348-22.333,72.752
		c0,61.167,42.666,112.553,99.803,125.977v37.016h16v-34.309c4.474,0.47,9.013,0.715,13.609,0.715c2.481,0,4.944-0.077,7.391-0.216
		v33.81h16v-35.717C337.261,329.528,383.046,276.659,383.046,213.293z M264.719,211.55c38.051,0,71.578-22.463,86.404-56.269
		c10.458,17.455,15.923,37.244,15.923,58.012c0,0.122,0,0.245-0.001,0.367c-0.073,22.973-14.92,43.519-36.76,50.646
		c-11.227,3.664-23.055,5.547-35.194,5.547c-60.543,0-110.158-47.683-113.255-107.463c4.345,7.938,9.854,15.296,16.459,21.838
		C216.087,201.847,239.677,211.55,264.719,211.55z M87.012,73.922c0-28.211,22.951-51.163,51.162-51.163
		s51.162,22.952,51.162,51.163s-22.951,51.162-51.162,51.162S87.012,102.133,87.012,73.922z M253.646,326.692
		c-62.536,0-113.412-50.871-113.412-113.399c0-27.038,9.445-52.607,26.449-72.832c-0.653,5.29-1.002,10.629-1.002,15.994
		c0,71.35,58.053,129.398,129.41,129.398c19.069,0,37.468-4.085,54.337-11.92C329.296,305.62,293.887,326.692,253.646,326.692z"/>
	<path d="M155.58,48.508c-5.149-3.529-11.161-5.408-17.386-5.408c-10.174,0-19.677,4.978-25.421,13.362
		c-4.65,6.785-6.379,14.92-4.869,23.006s6.078,14.991,12.863,19.641c5.148,3.528,11.161,5.178,17.385,5.178c0.001,0,0.001,0,0.002,0
		c10.172,0,19.676-4.793,25.42-13.177c4.65-6.785,6.379-14.762,4.869-22.847S162.365,53.156,155.58,48.508z M150.376,82.284
		c-2.76,4.029-7.33,6.434-12.223,6.434c-2.982,0-5.867-0.896-8.342-2.592c-3.26-2.233-5.454-5.603-6.18-9.487
		c-0.725-3.884,0.105-7.818,2.34-11.078c2.76-4.028,7.329-6.433,12.223-6.433c2.981,0,5.866,0.896,8.342,2.593
		c3.259,2.233,5.454,5.603,6.18,9.487C153.44,75.09,152.61,79.024,150.376,82.284z"/>
</g>
<g>
</g>
<g>
</g>
<g>
</g>
<g>
</g>
<g>
</g>
<g>
</g>
<g>
</g>
<g>
</g>
<g>
</g>
<g>
</g>
<g>
</g>
<g>
</g>
<g>
</g>
<g>
</g>
<g>
</g>
</svg>
