<?xml version="1.0" encoding="iso-8859-1"?>
<!-- Generator: Adobe Illustrator 18.0.0, SVG Export Plug-In . SVG Version: 6.00 Build 0)  -->
<!DOCTYPE svg PUBLIC "-//W3C//DTD SVG 1.1//EN" "http://www.w3.org/Graphics/SVG/1.1/DTD/svg11.dtd">
<svg version="1.1" id="Capa_1" xmlns="http://www.w3.org/2000/svg" xmlns:xlink="http://www.w3.org/1999/xlink" x="0px" y="0px"
	 viewBox="0 0 447.505 447.505" style="enable-background:new 0 0 447.505 447.505;" xml:space="preserve">
<g>
	<path d="M64.091,178.538c-3.971-2.264-8.477-3.461-13.03-3.461c-9.45,0-18.225,5.096-22.902,13.299
		c-7.194,12.618-2.782,28.737,9.837,35.933c3.972,2.264,8.478,3.461,13.031,3.461h0c9.449,0,18.225-5.096,22.901-13.299
		c3.485-6.112,4.381-13.217,2.523-20.003C74.594,187.681,70.204,182.024,64.091,178.538z M60.029,206.547
		c-1.837,3.222-5.286,5.223-9.001,5.223c-1.779,0-3.545-0.471-5.106-1.361c-4.955-2.824-6.687-9.153-3.862-14.107
		c1.837-3.222,5.287-5.224,9.003-5.224c1.778,0,3.543,0.471,5.105,1.361c2.4,1.368,4.124,3.589,4.853,6.254
		C61.749,201.357,61.397,204.147,60.029,206.547z"/>
	<path d="M400.861,164.563c-7.149-24.167-21.762-45.917-41.615-61.724c-22.063-17.566-48.662-26.852-76.92-26.852h-88.297
		c-2.992,0-5.982,0.166-8.931,0.486c-1.748-1.219-3.555-2.38-5.442-3.455c-10.598-6.038-22.613-9.23-34.747-9.23
		c-14.332,0-28.078,4.394-39.57,12.199H42.616C19.117,75.988,0,95.101,0,118.594V305.3c0,33.063,26.602,60.094,59.3,60.258
		c0.102,0,0.204,0.001,0.306,0.001c15.838,0,30.736-6.15,41.98-17.339c11.368-11.312,17.629-26.381,17.629-42.433v-27.668H74.545
		v27.353c0,8.342-6.565,15.258-14.632,15.417c-4.047,0.044-7.839-1.431-10.71-4.248c-2.923-2.866-4.532-6.722-4.532-10.854v-43.923
		h21.407c20.784,0,41.008-6.423,57.906-18.224c0.436,0.686,0.88,1.367,1.337,2.042v138.035h95.677V281.934h88.171v101.783h96.757
		V199.6c0-6.042-0.444-12.061-1.313-17.996c15.509,4.467,26.891,18.776,26.891,35.703v48.741h16v-48.741
		C447.505,190.203,427.109,167.786,400.861,164.563z M171.734,86.921c26.016,14.824,35.122,48.051,20.298,74.066l-26.885,47.183
		l-47.182-26.886c-26.016-14.824-35.121-48.05-20.297-74.065c9.641-16.92,27.743-27.431,47.241-27.431
		C154.269,79.788,163.545,82.255,171.734,86.921z M28.671,245.865v59.923c0,8.464,3.313,16.375,9.328,22.275
		c5.964,5.85,13.856,8.997,22.226,8.822c16.719-0.33,30.32-14.422,30.32-31.413v-11.353h12.671v11.668
		c0,11.763-4.586,22.805-12.914,31.091c-8.277,8.235-19.234,12.768-30.921,12.68C35.46,349.439,16,329.584,16,305.3V118.594
		c0-14.671,11.94-26.606,26.616-26.606H88.57c-1.738,2.32-3.348,4.756-4.803,7.31c-19.192,33.682-7.404,76.697,26.278,95.89
		l25.627,14.602c-2.453,3.472-5.168,6.769-8.127,9.851c-2.02,2.108-4.125,4.091-6.257,5.894l-0.396,0.346
		c-15.305,12.892-34.751,19.985-54.813,19.985H28.671z M141.321,367.717V263.344c5.224,4.333,10.955,8.021,17.086,10.967v93.406
		H141.321z M325.17,367.717v-85.814c6.207-0.148,12.281-0.966,18.167-2.454v88.269H325.17z M389.927,367.717h-30.591V256.392
		l-11.071,4.602c-7.886,3.278-16.345,4.94-25.142,4.94H204.999v101.783h-30.591V263.69l-5.019-2.016
		c-11.8-4.738-22.032-12.754-29.59-23.181c-1.202-1.658-2.325-3.368-3.365-5.115c0.898-0.87,1.788-1.755,2.659-2.665
		c3.869-4.032,7.386-8.38,10.527-12.977l21.507,12.255l34.806-61.083c14.258-25.023,11.405-55.191-4.81-76.922h81.202
		c49.799,0,92.788,33.746,104.543,82.074c2.03,8.298,3.059,16.891,3.059,25.538V367.717z"/>
</g>
<g>
</g>
<g>
</g>
<g>
</g>
<g>
</g>
<g>
</g>
<g>
</g>
<g>
</g>
<g>
</g>
<g>
</g>
<g>
</g>
<g>
</g>
<g>
</g>
<g>
</g>
<g>
</g>
<g>
</g>
</svg>
