<?xml version="1.0" encoding="iso-8859-1"?>
<!-- Generator: Adobe Illustrator 18.0.0, SVG Export Plug-In . SVG Version: 6.00 Build 0)  -->
<!DOCTYPE svg PUBLIC "-//W3C//DTD SVG 1.1//EN" "http://www.w3.org/Graphics/SVG/1.1/DTD/svg11.dtd">
<svg version="1.1" id="Capa_1" xmlns="http://www.w3.org/2000/svg" xmlns:xlink="http://www.w3.org/1999/xlink" x="0px" y="0px"
	 viewBox="0 0 443.841 443.841" style="enable-background:new 0 0 443.841 443.841;" xml:space="preserve">
<g>
	<path d="M75.59,164.387c-17.457,0-31.66,14.203-31.66,31.66s14.203,31.661,31.66,31.661s31.66-14.203,31.66-31.661
		S93.047,164.387,75.59,164.387z M75.59,211.708c-8.635,0-15.66-7.025-15.66-15.661s7.025-15.66,15.66-15.66
		s15.66,7.025,15.66,15.66S84.225,211.708,75.59,211.708z"/>
	<path d="M175.279,196.047c0-17.458-14.203-31.66-31.66-31.66c-17.458,0-31.661,14.203-31.661,31.66s14.203,31.661,31.661,31.661
		C161.076,227.708,175.279,213.505,175.279,196.047z M143.619,211.708c-8.636,0-15.661-7.025-15.661-15.661
		s7.025-15.66,15.661-15.66c8.635,0,15.66,7.025,15.66,15.66S152.254,211.708,143.619,211.708z"/>
	<path d="M427.841,105.649v79.816c0,15.001-10.185,27.66-24,31.447v-4.195c0-25.31-9.978-49.157-28.097-67.15
		c-18.087-17.94-42-27.82-67.333-27.82H203.403c-2.489-10.669-7.888-20.47-15.805-28.387c-5.536-5.537-11.979-9.854-19.148-12.832
		l-17.904-7.436l7.45,17.898c5.789,13.908,3.908,29.61-4.599,41.646C141.043,121,126.792,116.9,111.904,116.9
		c-14.518,0-28.438,3.884-40.576,11.16c-8.145-11.961-9.872-27.436-4.2-41.07l7.443-17.894l-17.898,7.433
		c-7.168,2.977-13.61,7.293-19.149,12.832c-20.613,20.613-23.006,52.613-6.731,75.876L0,196.029l55.952,55.953
		c14.945,14.945,34.816,23.176,55.952,23.176c5.043,0,10.011-0.482,14.86-1.399c2.525,3.016,5.219,5.858,8.076,8.509v92.48h42h15h40
		v-67h32.7h3.27c13.38,0,26.47-2.864,39.03-8.529v75.529h40h15h42V233.295c22.708-4.077,40-23.965,40-47.83v-79.816H427.841z
		 M177.303,101.727c13.764,14.689,15.483,36.338,4.983,52.778l-14.428-14.428c-0.579-0.579-1.179-1.13-1.773-1.689
		C173.848,127.655,177.727,114.736,177.303,101.727z M47.842,101.703c-0.409,12.708,3.273,25.359,10.664,35.941
		c-0.864,0.792-1.719,1.598-2.554,2.432l-13.611,13.611C32.454,137.348,34.379,116.063,47.842,101.703z M67.267,240.668
		l-44.64-44.639l44.64-44.639c11.923-11.923,27.776-18.49,44.638-18.49c16.862,0,32.716,6.566,44.639,18.49l44.64,44.639
		l-44.64,44.639c-11.923,11.923-27.776,18.49-44.639,18.49C95.043,259.157,79.189,252.591,67.267,240.668z M175.841,304.482v33.266
		h-25v-43.541C158.563,298.77,166.967,302.232,175.841,304.482z M150.841,358.747v-5h25v5H150.841z M192.841,358.747v-5h23v5
		H192.841z M215.841,337.747h-23v-30h23V337.747z M196.146,291.509c-2.2-0.027-4.395-0.225-6.564-0.592l-3.405-0.577
		c-16.369-2.772-31.133-10.394-42.542-21.801c8.92-3.906,17.131-9.465,24.223-16.558l55.952-55.953l-30.024-30.024
		c6.798-9.406,10.668-20.552,11.136-32.257h103.49c21.084,0,40.995,8.232,56.063,23.177c15.068,14.964,23.367,34.778,23.367,55.793
		v125.03h-25v-103.83l-14.162,17.108c-8.127,9.817-52.149,40.722-84.138,40.722L196.146,291.509z M345.841,289.384
		c-3.922-1.522-7.492-4.149-10.26-7.564c3.701-2.403,7.143-4.806,10.26-7.131V289.384z M345.841,306.045v31.703h-23v-46.221
		C328.695,298.97,336.849,304.137,345.841,306.045z M322.841,358.747v-5h23v5H322.841z M362.841,358.747v-5h25v5H362.841z"/>
</g>
<g>
</g>
<g>
</g>
<g>
</g>
<g>
</g>
<g>
</g>
<g>
</g>
<g>
</g>
<g>
</g>
<g>
</g>
<g>
</g>
<g>
</g>
<g>
</g>
<g>
</g>
<g>
</g>
<g>
</g>
</svg>
