<?xml version="1.0" encoding="iso-8859-1"?>
<!-- Generator: Adobe Illustrator 18.0.0, SVG Export Plug-In . SVG Version: 6.00 Build 0)  -->
<!DOCTYPE svg PUBLIC "-//W3C//DTD SVG 1.1//EN" "http://www.w3.org/Graphics/SVG/1.1/DTD/svg11.dtd">
<svg version="1.1" id="Capa_1" xmlns="http://www.w3.org/2000/svg" xmlns:xlink="http://www.w3.org/1999/xlink" x="0px" y="0px"
	 viewBox="0 0 470.063 470.063" style="enable-background:new 0 0 470.063 470.063;" xml:space="preserve">
<g>
	<path d="M186.51,188.767c0-17.049-13.871-30.92-30.92-30.92c-13.36,0-24.765,8.518-29.077,20.407
		c-2.773-0.616-5.65-0.951-8.606-0.951c-2.731,0-5.398,0.278-7.976,0.806c-3.715-12.908-15.624-22.382-29.711-22.382
		c-17.05,0-30.92,13.871-30.92,30.92c0,16.382,12.809,29.822,28.937,30.849v12.819c0,14.518,11.812,26.329,26.33,26.329h26.683
		c14.518,0,26.33-11.811,26.33-26.329v-10.699C173.704,218.587,186.51,205.147,186.51,188.767z M65.3,186.647
		c0-8.227,6.693-14.92,14.92-14.92c7.54,0,13.775,5.627,14.766,12.898c-5.967,4.24-10.722,10.079-13.617,16.897
		c-0.38,0.029-0.763,0.045-1.15,0.045C71.994,201.566,65.3,194.874,65.3,186.647z M141.579,230.315
		c0,5.695-4.634,10.329-10.33,10.329h-26.683c-5.696,0-10.33-4.634-10.33-10.329v-13.342c0-13.052,10.619-23.67,23.671-23.67
		s23.671,10.619,23.671,23.67V230.315z M141.2,184.889c1.714-6.35,7.507-11.042,14.391-11.042c8.227,0,14.92,6.693,14.92,14.92
		s-6.693,14.92-14.92,14.92c-0.104,0-0.207-0.009-0.312-0.011C152.568,196.082,147.606,189.553,141.2,184.889z"/>
	<path d="M106.981,207.107c-4.418,0-8,3.582-8,8v12c0,4.418,3.582,8,8,8s8-3.582,8-8v-12
		C114.981,210.688,111.399,207.107,106.981,207.107z"/>
	<path d="M127.981,207.107c-4.418,0-8,3.582-8,8v12c0,4.418,3.582,8,8,8c4.418,0,8-3.582,8-8v-12
		C135.981,210.688,132.399,207.107,127.981,207.107z"/>
	<path d="M469.537,205.533c-1.153-6.499-4.438-12.508-9.43-16.825c-6.123-5.295-13.837-7.729-21.604-7.003
		c-7.2,0.674-13.921,4.285-18.152,10.149c-4.081,5.656-5.568,12.593-4.186,19.396l15.68-3.187c-0.472-2.323,0.002-4.686,1.334-6.638
		c1.454-2.13,4.908-3.734,7.485-3.829c6.154-0.226,11.765,4.039,13.032,10.275c1.982,9.751-4.311,19.292-14.027,21.266
		c-0.393,0.08-0.786,0.15-1.178,0.21c-14.632,2.244-27.389-10.049-26.562-24.829c0.034-0.61,0.018-4.797-0.048-6.414
		c-1.132-27.442-11.83-52.744-30.411-71.689c-19.803-20.191-46.787-31.311-75.979-31.311h-101.52
		c-17.016,0-33.973,3.841-49.298,11.124c-11.25-4.984-23.689-7.759-36.765-7.759c-26.127,0-49.716,11.062-66.339,28.745
		L4.65,114.198l-2.138,7.71c-7.543,27.199,2.273,55.935,24.474,72.845c2.708,47.805,42.452,85.867,90.922,85.867
		c1.163,0,2.32-0.024,3.472-0.069c1.802-0.071,3.564,0.64,4.759,1.99c0.038,0.043,0.069,0.08,0.092,0.109
		c10.75,14.122,15.367,61.005,15.367,61.005c2.945,17.761,16.556,30.651,32.362,30.651c13.783,0,25.901-9.817,30.73-24.119
		c4.47,14.819,16.671,24.769,31.141,24.769c7.835,0,15.383-2.979,21.252-8.388c4.665-4.3,8.049-9.856,9.947-16.244
		c4.859,14.227,16.942,23.982,30.681,23.982c14.18,0,26.594-10.393,31.125-25.369c4.301,15.361,15.941,25.358,30.145,25.358
		c7.881,0,15.638-3.149,21.843-8.868c6.104-5.628,10.237-13.358,11.638-21.767l5.675-39.112c0.531-3.253,6.185-40.178,10.101-68.857
		c1.313,1.138,2.699,2.207,4.169,3.183c6.712,4.458,14.417,6.768,22.298,6.767c2.707,0,5.436-0.272,8.15-0.824
		C460.936,241.145,472.748,223.633,469.537,205.533z M16.375,134.056l24.586,6.822c-6.277,9.889-10.7,21.062-12.78,33.031
		C18.997,162.903,14.647,148.505,16.375,134.056z M42.833,189.546c0-41.396,33.678-75.075,75.075-75.075
		s75.075,33.678,75.075,75.075s-33.678,75.075-75.075,75.075S42.833,230.943,42.833,189.546z M207.723,174.44
		c-1.907-11.375-5.927-22.041-11.646-31.58l23.694-5.032C220.565,151.243,216.207,164.278,207.723,174.44z M173.961,358.307
		c-7.947,0-14.918-7.263-16.579-17.272l-6.491-39.027c-0.058-0.345-0.099-0.692-0.143-1.039c13.712,7.65,28.81,12.386,44.17,13.733
		l-4.378,26.331C188.872,351.042,181.9,358.307,173.961,358.307z M297.711,358.307c-7.939,0-14.912-7.265-16.579-17.272
		l-4.391-26.408c11.363-0.57,29.717-1.56,42.372-2.588l-4.823,28.995C312.622,351.042,305.65,358.307,297.711,358.307z
		 M382.339,302.015l-5.673,39.095c-0.832,4.887-3.205,9.344-6.688,12.555c-3.241,2.987-7.146,4.632-10.998,4.632
		c-7.659,0-13.713-6.604-15.442-16.832l-6.593-48.182l-77.146,6.128l-7.391,43.251c-0.832,4.989-2.965,9.188-6.17,12.142
		c-2.948,2.717-6.547,4.153-10.409,4.153c-8.131,0-14.949-6.836-16.586-16.667l-7.434-43.183h-7.84
		c-21.523,0-43.007-8.004-60.241-22.22c35.888-10.629,62.598-42.819,65.06-81.497c21.133-16.041,31.128-42.604,25.556-68.835
		l-1.662-7.825l-47.052,9.992c-4.087-4.545-8.622-8.679-13.537-12.33c10.231-3.478,21.039-5.285,31.876-5.285h101.52
		c24.86,0,47.787,9.417,64.556,26.514c16.724,17.051,25.934,40.262,25.934,65.366C395.981,211.837,384.269,290.406,382.339,302.015z
		"/>
</g>
<g>
</g>
<g>
</g>
<g>
</g>
<g>
</g>
<g>
</g>
<g>
</g>
<g>
</g>
<g>
</g>
<g>
</g>
<g>
</g>
<g>
</g>
<g>
</g>
<g>
</g>
<g>
</g>
<g>
</g>
</svg>
