<?xml version="1.0" encoding="iso-8859-1"?>
<!-- Generator: Adobe Illustrator 18.0.0, SVG Export Plug-In . SVG Version: 6.00 Build 0)  -->
<!DOCTYPE svg PUBLIC "-//W3C//DTD SVG 1.1//EN" "http://www.w3.org/Graphics/SVG/1.1/DTD/svg11.dtd">
<svg version="1.1" id="Capa_1" xmlns="http://www.w3.org/2000/svg" xmlns:xlink="http://www.w3.org/1999/xlink" x="0px" y="0px"
	 viewBox="0 0 414.001 414.001" style="enable-background:new 0 0 414.001 414.001;" xml:space="preserve">
<path d="M351.666,251.001v-8c0-67.286-54.741-122.027-122.027-122.027c-28.316,0-52.115,19.65-58.513,46.027l-11.615,0.008
	c-17.885,0.82-33.587-13.313-35.035-31.475c-1.35-16.912,10.25-32.542,25.945-35.986c1.121-0.246,5.651-0.647,6.001-0.686
	c12.42-1.399,23.711-7.63,31.888-17.629c8.298-10.146,12.303-22.814,11.277-35.671c-1.411-17.615-12.592-32.413-28.164-39.324
	c-2.862-1.27-14.918-6.321-30.542-6.238c-9.397,0.05-18.014,3.393-24.702,9.012L82.714,34.955
	C64.213,49.515,57.479,74.064,65.957,96.04l4.511,11.694l20.288-21.006c7.243-7.501,15.124-14.393,23.476-20.577
	c6.918,6.66,16.31,10.768,26.648,10.768c21.207,0,38.46-17.253,38.46-38.46c0-1.985-0.151-3.936-0.443-5.841
	c2.64,4.142,4.319,8.967,4.74,14.218c1.43,17.924-11.989,34.403-29.366,36.164c0,0-4.859,0.446-5.849,0.632
	c-23.98,4.515-41.914,27.877-39.895,53.174c2.068,25.926,24.064,46.234,49.542,46.234c0.655,0,11.398-0.041,11.398-0.041
	c0.818,31.912,23.14,58.56,52.995,65.95l-25.274,71.244l46.233-23.462v117.268h16V288.614l22.62-11.479l-7.24-14.268l-15.38,7.804
	v-19.67H351.666z M79.246,75.613l-0.896,0.929c0.062-11.097,5.101-21.806,14.263-29.018l9.842-7.756
	c0.156,4.63,1.132,9.053,2.79,13.131C95.984,59.71,87.256,67.319,79.246,75.613z M140.88,60.92
	c-12.384,0-22.459-10.075-22.459-22.46c0-12.384,10.075-22.459,22.459-22.459c12.385,0,22.46,10.075,22.46,22.459
	C163.34,50.845,153.265,60.92,140.88,60.92z M185.421,181.192c0-24.382,19.836-44.219,44.218-44.219
	c55.773,0,101.626,43.285,105.729,98.027H239.23C209.56,235.001,185.421,210.862,185.421,181.192z M243.421,278.79l-17.767,9.015
	l13.062-36.818c0.172,0.001,0.341,0.013,0.513,0.013h4.191V278.79z"/>
<g>
</g>
<g>
</g>
<g>
</g>
<g>
</g>
<g>
</g>
<g>
</g>
<g>
</g>
<g>
</g>
<g>
</g>
<g>
</g>
<g>
</g>
<g>
</g>
<g>
</g>
<g>
</g>
<g>
</g>
</svg>
