<?xml version="1.0" encoding="iso-8859-1"?>
<!-- Generator: Adobe Illustrator 18.0.0, SVG Export Plug-In . SVG Version: 6.00 Build 0)  -->
<!DOCTYPE svg PUBLIC "-//W3C//DTD SVG 1.1//EN" "http://www.w3.org/Graphics/SVG/1.1/DTD/svg11.dtd">
<svg version="1.1" id="Capa_1" xmlns="http://www.w3.org/2000/svg" xmlns:xlink="http://www.w3.org/1999/xlink" x="0px" y="0px"
	 viewBox="0 0 462.346 462.346" style="enable-background:new 0 0 462.346 462.346;" xml:space="preserve">
<g>
	<path d="M404.598,81.652c-26.538-0.178-51.458,9.97-70.313,28.577c-18.134,17.897-28.517,41.559-29.441,66.905
		c-1.984,0.379-3.963,0.828-5.929,1.398l-47.373,13.606c-10.07,2.926-21.064,2.405-30.949-1.465l-0.377-0.148l16.703-16.701
		l-22.697-22.697c2.503-7.752,3.79-15.811,3.79-24.036c0-23.054-10.049-44.839-27.571-59.769l-6.089-5.188L153.89,97.882
		c-10.952-5.118-22.982-7.823-35.431-7.823c-12.237,0-24.066,2.623-34.869,7.573L53.344,62.134l-6.089,5.188
		c-17.522,14.931-27.572,36.715-27.572,59.769c0,8.009,1.224,15.869,3.603,23.444L0,173.825l59.226,59.226
		c2.206,2.206,4.544,4.297,6.933,6.202c7.064,5.662,15.01,10.09,23.452,13.184c2.076,12.514,7.425,24.043,15.672,33.737v92.619
		c0,11.811,9.609,21.42,21.42,21.42c11.816,0,21.43-9.609,21.43-21.42v-49.419l10.82,10.822l8.7-8.7v47.297
		c0,11.811,9.645,21.42,21.5,21.42s21.5-9.609,21.5-21.42v-65.727l26.998-1.95c4.497,21.381,23.787,37.637,46.422,37.637
		c1.529,0,3.058-0.072,4.58-0.216v30.256c0,11.811,9.645,21.42,21.5,21.42c5.715,0,11.101-2.22,15.163-6.25
		c4.087-4.052,6.337-9.44,6.337-15.17v-30.05c0.14,0.001,0.279,0.01,0.42,0.01c1.529,0,3.058-0.072,4.58-0.216v30.256
		c0,12.011,9.224,21.42,21,21.42s21-9.409,21-21.42v-77.054c2.143-63.104,2.134-63.578,2.127-63.929
		c-0.011-0.391-0.048-0.777-0.066-1.167c46.524-8.433,80.922-48.737,81.249-96.868l0.383-57.74L404.598,81.652z M185.821,85.08
		c10.371,11.426,16.192,26.35,16.192,42.012c0,3.671-0.332,7.298-0.961,10.866l-23.367-23.367c-3.087-3.087-6.377-5.893-9.832-8.427
		L185.821,85.08z M35.683,127.092c0-15.662,5.821-30.585,16.192-42.012l17.672,20.741c-3.632,2.624-7.09,5.54-10.321,8.77
		l-22.694,22.697C35.978,133.934,35.683,130.532,35.683,127.092z M70.54,221.737l-47.913-47.913l47.912-47.918
		c12.801-12.798,29.82-19.847,47.92-19.847c18.1,0,35.116,7.048,47.914,19.846l47.919,47.919l-47.92,47.914
		c-12.797,12.8-29.811,19.85-47.909,19.85c-15.352,0-30.373-5.263-42.313-14.833C74.211,225.209,72.323,223.521,70.54,221.737z
		 M126.703,384.212c-2.989,0-5.42-2.431-5.42-5.42v-22.58h10.85v22.58C132.133,381.781,129.697,384.212,126.703,384.212z
		 M132.133,340.212h-10.85v-37.694l10.85,10.852V340.212z M118.324,276.787c-5.224-5.86-9.03-12.638-11.285-20
		c3.774,0.522,7.589,0.801,11.424,0.801c22.372,0,43.405-8.714,59.223-24.536l24.797-24.794
		c16.079,21.393,14.254,51.519-5.116,70.898l-38.414,38.413L118.324,276.787z M194.653,304.496v35.716h-11v-24.716L194.653,304.496z
		 M189.153,384.212c-3.033,0-5.5-2.431-5.5-5.42v-22.58h11v22.58C194.653,381.781,192.186,384.212,189.153,384.212z
		 M284.073,332.752c-14.261,0-26.525-9.707-30.258-22.804l31.232-2.255c1.134,8.704,4.665,16.67,9.911,23.223l-0.742,0.237
		C290.898,332.214,287.486,332.752,284.073,332.752z M314.049,382.602c-1.046,1.038-2.43,1.61-3.896,1.61
		c-3.033,0-5.5-2.431-5.5-5.42v-14.58h11v14.58C315.653,380.223,315.084,381.576,314.049,382.602z M315.653,348.212h-11v-8.175
		c3.369,2.383,7.061,4.339,11,5.79V348.212z M342.215,331.152c-3.317,1.062-6.729,1.6-10.142,1.6
		c-17.325,0-31.42-13.974-31.42-31.15v-11.079l-99.192,7.164l7.22-7.22c22.478-22.488,26.695-56.157,12.36-82.818
		c11.433,3.162,23.622,3.149,34.94-0.139l47.371-13.606c14.411-4.179,29.677-1.471,41.882,7.435
		c11.982,8.743,19.102,22.144,19.546,36.714c-0.087,3.176-1.554,46.52-2.123,63.277l-0.003,46.881h-10.002v-20.399L342.215,331.152z
		 M357.653,384.212c-2.851,0-5-2.33-5-5.42v-14.58h10.001l-0.001,14.58C362.653,381.882,360.504,384.212,357.653,384.212z
		 M445.963,139.667c-0.274,40.319-29.048,74.09-67.987,81.215c-3.975-12.864-12.017-24.228-23.311-32.469
		c-10.093-7.364-21.766-11.536-33.762-12.306c1.149-20.648,9.801-39.865,24.621-54.49c15.812-15.604,36.752-24.131,58.966-23.965
		l41.75,0.277L445.963,139.667z"/>
	<path d="M137.907,208.498c3.646,2.079,7.782,3.177,11.961,3.177c0,0,0,0,0.001,0c8.673,0,16.728-4.677,21.021-12.207
		c3.199-5.611,4.021-12.132,2.316-18.361c-1.706-6.23-5.735-11.422-11.346-14.621c-3.646-2.079-7.782-3.177-11.962-3.177
		c-8.673,0-16.728,4.677-21.021,12.207c-3.199,5.611-4.022,12.132-2.316,18.362C128.267,200.107,132.296,205.299,137.907,208.498z
		 M142.776,183.44c1.453-2.548,4.182-4.131,7.122-4.131c1.426,0,2.784,0.362,4.038,1.077c1.898,1.083,3.261,2.839,3.838,4.947
		c0.577,2.107,0.299,4.314-0.783,6.212c-1.453,2.548-4.182,4.131-7.122,4.131c-1.426,0-2.784-0.362-4.038-1.077
		c-1.898-1.083-3.261-2.839-3.838-4.947C141.416,187.544,141.694,185.338,142.776,183.44z"/>
	<path d="M94.446,166.486c-3.646-2.079-7.782-3.177-11.962-3.177c-8.673,0-16.728,4.677-21.021,12.207
		c-3.199,5.611-4.022,12.132-2.316,18.362c1.706,6.23,5.735,11.422,11.346,14.621c3.646,2.079,7.782,3.177,11.961,3.177
		c0,0,0,0,0.001,0c8.673,0,16.728-4.677,21.021-12.207c3.199-5.611,4.021-12.132,2.316-18.361
		C104.086,174.877,100.057,169.685,94.446,166.486z M89.576,191.544c-1.453,2.548-4.182,4.131-7.122,4.131
		c-1.426,0-2.784-0.362-4.038-1.077c-1.898-1.083-3.261-2.839-3.838-4.947c-0.577-2.107-0.298-4.313,0.784-6.212
		c1.453-2.548,4.182-4.131,7.122-4.131c1.426,0,2.784,0.362,4.038,1.077c1.898,1.083,3.261,2.839,3.838,4.947
		C90.937,187.439,90.658,189.646,89.576,191.544z"/>
</g>
<g>
</g>
<g>
</g>
<g>
</g>
<g>
</g>
<g>
</g>
<g>
</g>
<g>
</g>
<g>
</g>
<g>
</g>
<g>
</g>
<g>
</g>
<g>
</g>
<g>
</g>
<g>
</g>
<g>
</g>
</svg>
