<?xml version="1.0" encoding="iso-8859-1"?>
<!-- Generator: Adobe Illustrator 18.0.0, SVG Export Plug-In . SVG Version: 6.00 Build 0)  -->
<!DOCTYPE svg PUBLIC "-//W3C//DTD SVG 1.1//EN" "http://www.w3.org/Graphics/SVG/1.1/DTD/svg11.dtd">
<svg version="1.1" id="Capa_1" xmlns="http://www.w3.org/2000/svg" xmlns:xlink="http://www.w3.org/1999/xlink" x="0px" y="0px"
	 viewBox="0 0 456.195 456.195" style="enable-background:new 0 0 456.195 456.195;" xml:space="preserve">
<path d="M374.767,272.195h-1.98c-3.04-3-6.272-6.668-9.703-9.747c-7.663-6.863-16.128-12.755-25.168-17.518
	c-6.795-3.573-13.931-6.534-21.21-8.798l-51.596-16.057c-5.121-1.593-9.683-4.856-12.846-9.189L169.262,97.164
	c20.57-11.64,25.67-33.333,25.91-34.407l2.58-11.562h-57.154V9.484c0-5.238-4.262-9.484-9.5-9.484c-5.238,0-9.5,4.247-9.5,9.484
	V51.44c-1-0.146-1.772-0.245-3.059-0.245h-3.941V9.484c0-5.238-4.262-9.484-9.5-9.484s-9.5,4.247-9.5,9.484v41.711H64.82
	c-26.162,0-47.222,21.302-48.222,47.52v0.321c1,18.083,15.641,33.158,33.844,33.158h66.181c6.806,0,13.041,3.814,15.886,9.996
	l33.208,72.107c5.07,11.036,9.147,22.513,12.117,34.204c3.293,12.939,5.283,26.155,5.938,39.445
	c0.142,2.887,0.247,9.516,0.247,9.872c0,10.612,2.78,21.055,8.042,30.214c0.366,0.637,0.744,1.264,1.132,1.885
	c3.534,5.66,8.061,10.585,13.532,14.644c0.621,0.461,1.623,1.197,1.873,1.327v110.307h24.739h9.484h33.777v-98
	c0,0,17,0.292,25,0.295v1.884c0,15.619,9,29.528,22,36.02v59.8h34.932h11.381h33.687c0,0,0.218-104.252,0.198-105.141
	c-0.424-20.437-6.274-40.391-16.371-58.007c19.234,5.647,33.174,23.444,33.174,44.481v23.668h19v-23.668
	C439.598,301.505,410.788,272.195,374.767,272.195z M365.705,293.674c6.084,8.518,10.847,17.879,14.128,27.735
	c-1.788,0.692-3.702,1.058-5.654,1.058c-8.629,0-15.649-7.021-15.649-15.649C358.529,301.404,361.356,296.494,365.705,293.674z
	 M320.117,257.519c-4.789,5.569-11.864,8.99-19.442,8.99c-13.389,0-24.404-10.331-25.509-23.438l35.903,11.173
	C314.121,255.194,317.144,256.289,320.117,257.519z M199.275,170.461l15.856,21.725c-1.02,0.221-2.067,0.345-3.135,0.345
	c-8.106,0-14.701-6.595-14.701-14.701C197.296,175.184,198.004,172.657,199.275,170.461z M157.95,81.677l-8.38-11.482h21.637
	C168.335,74.195,164.087,78.709,157.95,81.677z M86.866,97.518c-3.385,0-6.139-2.754-6.139-6.139c0-3.385,2.754-6.139,6.139-6.139
	c3.384,0,6.138,2.754,6.138,6.139C93.004,94.764,90.25,97.518,86.866,97.518z M35.598,98.883v-0.115
	c0-15.761,13.458-28.573,29.222-28.573h8.613c-7.009,4-11.674,12.451-11.674,21.356c0,9.097,4.864,16.644,12.127,21.644H50.441
	C42.472,113.195,35.598,106.725,35.598,98.883z M202.686,286.875c-0.565-11.327-2.014-22.616-4.332-33.742
	c9.42,0.06,17.067,7.736,17.067,17.17C215.421,278.235,210.007,284.91,202.686,286.875z M229.861,354.479l2.737,0.547v56.169h-5
	v-57.254C227.598,354.134,228.983,354.323,229.861,354.479z M227.598,437.195v-7h5v7H227.598z M251.598,437.195v-7h6v7H251.598z
	 M257.598,339.507v71.688h-6v-72.064l-18.38-3.328c-5.825-1.035-11.011-3.275-15.331-6.48c-3.556-2.637-6.423-5.819-8.695-9.457
	c-0.265-0.425-0.479-0.855-0.728-1.289c-2.242-3.903-3.803-8.151-4.683-12.557c17.301-2.681,30.598-17.676,30.598-35.716
	c0-19.93-16.209-36.144-36.139-36.144c-1.56,0-3.097,0.109-4.619,0.303c-2.9-9.596-6.472-19.039-10.67-28.177l-33.21-72.035
	c-5.93-12.891-18.929-21.054-33.118-21.054H99.846c7.263-5,12.127-12.547,12.127-21.644c0-8.905-4.664-17.356-11.674-21.356h18.24
	c4.726,0,9.211,2.274,11.997,6.091l57.133,78.276c-5.907,6.159-9.341,14.426-9.341,23.27c0,18.566,15.104,33.669,33.669,33.669
	c5.195,0,10.211-1.181,14.751-3.399l10.194,13.967c4.878,6.683,11.656,11.913,19.328,14.979c-0.109,1.277-0.171,2.562-0.171,3.853
	c0,24.58,19.997,44.576,44.576,44.576c14.662,0,28.266-7.338,36.496-19.019c4.659,3.013,9.096,6.395,13.25,10.115
	c0.975,0.875,1.925,1.772,2.862,2.679c-8.395,6.403-13.723,16.516-13.723,27.564c0,19.088,15.529,34.618,34.618,34.618
	c3.41,0,6.765-0.508,9.972-1.473c0.518,3.803,0.585,7.643,0.665,11.503c0.017,0.764-0.218,59.729-0.218,59.729h-8v-28.756
	l-6.734-1.836c-9.213-2.378-15.266-10.696-15.266-20.228v-21.167l-10.219,0.305c-0.362,0.012-0.693,0.026-1.056,0.026
	c0,0-34.778-0.009-63.388-0.029L257.598,339.507z M350.598,391.669v19.526h-8v-27.432
	C344.598,386.727,347.598,389.388,350.598,391.669z M319.598,360.375v-1.876c6,0.003,12,0.004,16,0.006v1.87
	c0,7.957,2.447,15.463,6.565,21.778l-6.463-1.55C326.487,378.226,319.598,369.907,319.598,360.375z M342.598,437.195v-7h8v7H342.598
	z M376.598,437.195v-7h8v7H376.598z"/>
<g>
</g>
<g>
</g>
<g>
</g>
<g>
</g>
<g>
</g>
<g>
</g>
<g>
</g>
<g>
</g>
<g>
</g>
<g>
</g>
<g>
</g>
<g>
</g>
<g>
</g>
<g>
</g>
<g>
</g>
</svg>
