<?xml version="1.0" encoding="iso-8859-1"?>
<!-- Generator: Adobe Illustrator 18.0.0, SVG Export Plug-In . SVG Version: 6.00 Build 0)  -->
<!DOCTYPE svg PUBLIC "-//W3C//DTD SVG 1.1//EN" "http://www.w3.org/Graphics/SVG/1.1/DTD/svg11.dtd">
<svg version="1.1" id="Capa_1" xmlns="http://www.w3.org/2000/svg" xmlns:xlink="http://www.w3.org/1999/xlink" x="0px" y="0px"
	 viewBox="0 0 373.693 373.693" style="enable-background:new 0 0 373.693 373.693;" xml:space="preserve">
<g>
	<path d="M342.15,236.017c0-22.747-7.479-44.155-21.626-61.911l-10.166-12.758l-3.863,15.849
		c-6.241,25.601-29.039,43.481-55.44,43.481c-0.625,0-1.247-0.01-1.868-0.03c-36.524-1.191-57.932-41.152-40.38-73.204
		c20.673-37.751,15.048-86.182-16.88-118.118c-4.021-4.021-8.362-7.677-12.96-10.927c-3.372-2.384-6.628-4.924-9.896-7.449
		C160.193,4.09,149.075,0,137.014,0c-25.936,0-47.531,18.889-51.785,43.629c-15.854-0.134-31.016-6.427-42.371-17.783L31.543,37.16
		c10.28,10.28,23.035,17.262,36.806,20.468c-5.575,3.28-10.749,7.272-15.394,11.917L64.267,80.86
		c6.32-6.319,13.869-11.116,22.145-14.128c6.203,22.117,26.532,38.387,50.603,38.387c28.981,0,52.56-23.578,52.56-52.56
		c0-0.454-0.023-0.902-0.034-1.353c22.028,30.871,20.494,73.482-4.595,102.718c-1.799,2.096-3.82,3.99-5.95,5.748
		c-0.08,0.066-0.151,0.125-0.213,0.177c-22.606,18.966-35.512,46.562-35.512,76.167c0,46.355,31.888,85.4,74.881,96.363v41.313h16
		V335.08c2.824,0.242,5.679,0.373,8.564,0.373c1.15,0,2.294-0.027,3.436-0.066v38.307h16V333.54
		C307.706,324.477,342.15,284.196,342.15,236.017z M137.014,89.12c-20.159,0-36.56-16.401-36.56-36.56S116.854,16,137.014,16
		s36.56,16.401,36.56,36.56S157.173,89.12,137.014,89.12z M251.055,236.679c28.126,0,53.058-15.854,65.243-40.07
		c6.479,12.02,9.853,25.412,9.853,39.409c0,0.088,0,0.176,0,0.263c-0.052,16.531-10.816,31.272-26.547,36.354
		c-8.194,2.647-16.821,4.008-25.673,4.008c-41.761,0-76.452-30.836-82.504-70.932C204.703,224.419,226.535,236.679,251.055,236.679z
		 M242.715,319.453c-46.012,0-83.445-37.429-83.445-83.436c0-17.607,5.458-34.36,15.383-48.297c-0.1,1.825-0.165,3.654-0.165,5.487
		c0,54.829,44.61,99.435,99.443,99.435c12.292,0,24.227-2.199,35.407-6.462C294.095,306.373,269.906,319.453,242.715,319.453z"/>
	<path d="M151.24,31.8c-4.209-2.884-9.123-4.408-14.211-4.408c-8.314,0-16.081,4.09-20.776,10.942
		c-3.8,5.545-5.213,12.239-3.979,18.847c1.234,6.608,4.968,12.34,10.513,16.14c4.208,2.884,9.122,4.408,14.211,4.409h0.001
		c8.313,0,16.08-4.091,20.775-10.942c3.8-5.545,5.213-12.239,3.979-18.847C160.519,41.332,156.785,35.6,151.24,31.8z
		 M144.575,57.742c-1.71,2.497-4.543,3.987-7.576,3.987c-1.847,0-3.634-0.556-5.167-1.607c-2.021-1.384-3.38-3.472-3.83-5.879
		c-0.449-2.407,0.065-4.845,1.45-6.865c1.71-2.497,4.543-3.987,7.577-3.987c1.846,0,3.633,0.556,5.166,1.606
		c2.021,1.384,3.38,3.472,3.83,5.879C146.475,53.284,145.96,55.722,144.575,57.742z"/>
</g>
<g>
</g>
<g>
</g>
<g>
</g>
<g>
</g>
<g>
</g>
<g>
</g>
<g>
</g>
<g>
</g>
<g>
</g>
<g>
</g>
<g>
</g>
<g>
</g>
<g>
</g>
<g>
</g>
<g>
</g>
</svg>
