<?xml version="1.0" encoding="iso-8859-1"?>
<!-- Generator: Adobe Illustrator 18.0.0, SVG Export Plug-In . SVG Version: 6.00 Build 0)  -->
<!DOCTYPE svg PUBLIC "-//W3C//DTD SVG 1.1//EN" "http://www.w3.org/Graphics/SVG/1.1/DTD/svg11.dtd">
<svg version="1.1" id="Capa_1" xmlns="http://www.w3.org/2000/svg" xmlns:xlink="http://www.w3.org/1999/xlink" x="0px" y="0px"
	 viewBox="0 0 342.947 342.947" style="enable-background:new 0 0 342.947 342.947;" xml:space="preserve">
<line style="fill:none;" x1="251.477" y1="310.477" x2="251.477" y2="342.477"/>
<line style="fill:none;" x1="227.477" y1="310.477" x2="227.477" y2="342.477"/>
<g>
	<path d="M115.468,143.051c8.259,0,16.024-3.216,21.865-9.056c5.84-5.841,9.056-13.605,9.056-21.865
		c0-8.26-3.216-16.024-9.056-21.864c-5.841-5.84-13.605-9.056-21.865-9.056s-16.025,3.216-21.864,9.056
		c-5.841,5.84-9.057,13.605-9.057,21.864c0,8.26,3.216,16.024,9.057,21.865C99.444,139.834,107.209,143.051,115.468,143.051z
		 M105.153,101.814c2.755-2.755,6.419-4.273,10.315-4.273s7.56,1.518,10.316,4.273c2.755,2.755,4.273,6.418,4.273,10.315
		s-1.518,7.56-4.273,10.316c-2.755,2.755-6.419,4.273-10.316,4.273c-3.897,0-7.56-1.518-10.315-4.273
		c-2.755-2.755-4.273-6.419-4.273-10.316S102.397,104.569,105.153,101.814z"/>
	<path d="M282.161,107.746c-1.478-1.478-8.967-8.33-8.967-8.33l-5.194,3.095c-17.125,10.224-36.782,15.63-56.846,15.63
		c-9.726,0-19.306-1.266-28.534-3.716c0.024-0.768,0.041-1.527,0.041-2.295c0-1.264-0.045-2.521-0.115-3.774
		c2.56,0.676,5.222,1.031,7.941,1.031c8.259,0,16.024-3.216,21.864-9.056c5.841-5.84,9.057-13.605,9.057-21.864
		c0-8.26-3.216-16.024-9.057-21.865c-5.841-5.84-13.605-9.056-21.864-9.056c-0.308,0-0.613,0.014-0.919,0.022
		c1.2-9.201-1.72-18.841-8.773-25.895c-5.84-5.84-13.605-9.057-21.864-9.057c-6.051,0-11.832,1.733-16.79,4.952
		c-1.471-3.079-3.473-5.966-6.02-8.513C130.28,3.216,122.515,0,114.255,0c-8.259,0-16.024,3.216-21.865,9.056
		c-11.593,11.594-12.031,30.176-1.328,42.306c-7.734,3.266-14.843,8.022-20.959,14.138l-46.63,46.63c0,0,46.973,46.965,47.145,47.12
		c-3.895,12.315-5.815,25.275-5.815,38.562c0,57.467,37.729,106.163,90.729,121.976v23.158h7.971h8.029v-19.39
		c3,0.393,5,0.725,8,0.978v18.412h16V325.16c32-0.82,63.432-13.984,86.719-37.271c24.058-24.058,37.222-56.046,37.222-90.076
		C319.474,163.784,306.22,131.796,282.161,107.746z M180.171,68.151c2.755-2.755,6.419-4.272,10.316-4.272
		c3.897,0,7.56,1.517,10.315,4.272c2.755,2.755,4.273,6.419,4.273,10.316s-1.518,7.56-4.273,10.315s-6.419,4.273-10.315,4.273
		s-7.56-1.518-10.316-4.273c-2.755-2.755-4.273-6.418-4.273-10.315S177.416,70.907,180.171,68.151z M148.615,33.223
		c2.755-2.755,6.419-4.273,10.315-4.273c3.896,0,7.56,1.518,10.315,4.273c5.688,5.688,5.688,14.943,0,20.631
		c-2.755,2.755-6.419,4.273-10.315,4.273c-2.827,0-5.526-0.809-7.85-2.299c-0.105-0.065-0.208-0.135-0.313-0.198
		c-0.763-0.518-1.486-1.109-2.152-1.775c-2.756-2.755-4.273-6.419-4.273-10.315C144.341,39.642,145.859,35.979,148.615,33.223z
		 M103.94,20.606c2.755-2.755,6.419-4.273,10.315-4.273s7.56,1.518,10.315,4.273c5.688,5.688,5.688,14.943,0,20.631
		c-2.755,2.755-6.419,4.273-10.316,4.273c-3.897,0-7.56-1.518-10.315-4.273C98.252,35.549,98.252,26.294,103.94,20.606z
		 M46.576,112.131l35.075-35.075c9.367-9.375,21.829-14.528,35.075-14.528c9.091,0,17.805,2.426,25.405,6.974
		c0.324,0.211,0.649,0.421,0.981,0.618c3.108,1.961,6.027,4.271,8.689,6.936c8.787,8.787,13.589,20.065,14.389,31.588
		c0.4,5.692-0.18,11.441-1.739,16.978c-2.213,7.913-6.435,15.369-12.65,21.584c-6.623,6.623-14.798,11.147-23.699,13.221
		c-3.683,0.866-7.497,1.307-11.376,1.307c-2.711,0-5.39-0.213-8.011-0.645c-3.773-0.604-7.423-1.641-10.919-3.087
		c-2.703-1.111-5.308-2.474-7.783-4.059c-2.973-1.911-5.757-4.141-8.313-6.688c-0.016-0.016-0.033-0.033-0.049-0.049L46.576,112.131
		z M113.124,177.969c-0.719,1.78-1.797,3.422-3.201,4.827c-2.76,2.752-6.419,4.271-10.322,4.271c-3.895,0-7.554-1.519-10.314-4.271
		c-2.752-2.76-4.271-6.419-4.271-10.314c0-0.817,0.065-1.617,0.204-2.401C93.737,174.735,103.227,177.438,113.124,177.969z
		 M270.614,276.342c-20.98,20.971-48.868,32.527-78.529,32.527c-61.232,0-111.047-49.823-111.047-111.055
		c0-0.2,0.008-0.399,0.009-0.599c5.324,4.011,11.772,6.185,18.553,6.185c8.264,0,16.031-3.218,21.87-9.057
		c4.834-4.835,7.872-10.992,8.779-17.656c12.454-2.581,23.903-8.73,33.107-17.934c7.962-7.962,13.638-17.607,16.684-28.133
		c10.086,2.548,20.522,3.854,31.114,3.854c20.914,0,41.445-5.12,59.77-14.863c20.775,20.93,32.217,48.688,32.217,78.202
		C303.141,227.474,291.586,255.362,270.614,276.342z"/>
	<path d="M219.414,166.113c-30.62,0-55.532,24.912-55.532,55.532v2.589c0,30.62,24.912,55.532,55.532,55.532h2.589
		c30.62,0,55.532-24.912,55.532-55.532v-58.12H219.414z M261.202,224.233c0,21.615-17.585,39.199-39.199,39.199h-2.589
		c-21.614,0-39.199-17.584-39.199-39.199v-2.589c0-21.615,17.585-39.199,39.199-39.199h41.788V224.233z"/>
</g>
<g>
</g>
<g>
</g>
<g>
</g>
<g>
</g>
<g>
</g>
<g>
</g>
<g>
</g>
<g>
</g>
<g>
</g>
<g>
</g>
<g>
</g>
<g>
</g>
<g>
</g>
<g>
</g>
<g>
</g>
</svg>
