<?xml version="1.0" encoding="iso-8859-1"?>
<!-- Generator: Adobe Illustrator 18.0.0, SVG Export Plug-In . SVG Version: 6.00 Build 0)  -->
<!DOCTYPE svg PUBLIC "-//W3C//DTD SVG 1.1//EN" "http://www.w3.org/Graphics/SVG/1.1/DTD/svg11.dtd">
<svg version="1.1" id="Capa_1" xmlns="http://www.w3.org/2000/svg" xmlns:xlink="http://www.w3.org/1999/xlink" x="0px" y="0px"
	 viewBox="0 0 479.431 479.431" style="enable-background:new 0 0 479.431 479.431;" xml:space="preserve">
<g>
	<path d="M449.171,205.999h-4.156c-15.886-50.702-62.98-85.601-116.654-85.601h-84.88c-14.019,0-27.636,2.454-40.585,7.286
		c-2.258-3.333-4.973-6.384-8.104-9.054l-6.088-5.19l-10.918,12.805c-6.824-9.583-17.22-16.287-29.164-18.332l-7.888-1.351
		l-5.265,30.792c-4.598,2.54-8.547,6.249-11.433,10.902c-25.839,41.668-62.265,75.498-105.224,98.957
		c-6.188,3.379-11.492,8.498-12.903,10.504c-9.41,13.376-7.396,32.527,4.707,44.631c19.539,19.539,45.596,30.193,73.269,29.934
		c27.101-0.254,52.929-11.567,72.092-30.733l1.292-1.292c8.651,7.034,18.588,12.196,29.292,15.205v57.405h38.189h39.71h46.25
		v-48.817c4.687,1.991,9.59,3.447,14.61,4.362v44.455h39.35h38.551h47.409V242.669c0-6.952-0.599-13.869-1.757-20.67h0.297
		c7.876,0,14.261,6.385,14.261,14.261v22.259h16V236.26C479.431,219.547,465.883,205.999,449.171,205.999z M189.775,136.846
		c3.157,4.741,4.886,10.353,4.886,16.183c0,3.364-0.579,6.676-1.698,9.799c-0.031-0.007-0.062-0.017-0.094-0.024l-13.616-13.617
		L189.775,136.846z M166.116,137.593c-4.179-2.401-8.863-3.801-13.759-4.068l1.263-7.391
		C158.814,128.624,163.169,132.609,166.116,137.593z M82.898,316.288c-23.03,0-44.683-8.968-60.968-25.252
		c-5.236-5.236-6.896-12.714-4.981-19.373c1.209-4.206,4.281-7.608,8.145-9.663c46.138-24.533,84.964-60.841,112.54-105.311
		c2.802-4.518,7.658-7.215,12.99-7.215c4.056,0,7.876,1.587,10.757,4.469l23.558,23.558l2.388,0.471
		c25.002,4.934,42.681,27.051,42.035,52.59c-0.709,28.051-24.13,50.87-52.3,50.869c-5.204-0.008-10.345-0.781-15.279-2.298
		l-4.602-1.414l-13.317,13.316C127.58,307.32,105.928,316.288,82.898,316.288z M202.561,356.868v-38.604
		c2.053,0.154,4.111,0.254,6.17,0.254h16.02v38.35H202.561z M341.321,356.868v-27.427c8.044-0.43,15.957-2.263,23.35-5.398v32.825
		H341.321z M434.631,356.868h-31.409h-22.551v-61.721l-12.59,8.818c-9.932,6.957-22.073,10.311-34.188,9.443
		c-9.409-0.675-18.487-3.858-26.237-9.197l-12.945-8.964v61.62h-30.25h-23.71v-54.35h-32.02c-4.249,0-8.503-0.408-12.639-1.213
		c-4.613-0.899-9.08-2.289-13.345-4.127c34.145-2.847,61.73-31.446,62.609-66.213c0.682-26.984-14.316-51.031-37.366-62.653
		c1.758-4.873,2.671-10.04,2.671-15.285c0-3.638-0.45-7.217-1.29-10.68c10.895-3.947,22.336-5.95,34.111-5.95h84.88
		c48.473,0,90.784,32.733,102.895,79.604c2.239,8.654,3.375,17.626,3.375,26.666V356.868z"/>
	<path d="M122.443,198.435c-7.117,0-13.808,2.771-18.84,7.803c-10.388,10.389-10.388,27.29,0,37.679
		c5.032,5.031,11.723,7.803,18.84,7.803c7.116,0,13.807-2.771,18.839-7.803c10.388-10.389,10.388-27.29,0-37.679
		C136.25,201.207,129.56,198.435,122.443,198.435z M129.968,232.602c-2.01,2.011-4.683,3.117-7.524,3.117
		c-2.843,0-5.516-1.106-7.525-3.117c-4.149-4.149-4.149-10.9,0-15.05c2.01-2.011,4.683-3.117,7.525-3.117
		c2.842,0,5.515,1.106,7.524,3.117C134.117,221.702,134.117,228.453,129.968,232.602z"/>
</g>
<g>
</g>
<g>
</g>
<g>
</g>
<g>
</g>
<g>
</g>
<g>
</g>
<g>
</g>
<g>
</g>
<g>
</g>
<g>
</g>
<g>
</g>
<g>
</g>
<g>
</g>
<g>
</g>
<g>
</g>
</svg>
