<?xml version="1.0" encoding="iso-8859-1"?>
<!-- Generator: Adobe Illustrator 18.0.0, SVG Export Plug-In . SVG Version: 6.00 Build 0)  -->
<!DOCTYPE svg PUBLIC "-//W3C//DTD SVG 1.1//EN" "http://www.w3.org/Graphics/SVG/1.1/DTD/svg11.dtd">
<svg version="1.1" id="Capa_1" xmlns="http://www.w3.org/2000/svg" xmlns:xlink="http://www.w3.org/1999/xlink" x="0px" y="0px"
	 viewBox="0 0 425.02 425.02" style="enable-background:new 0 0 425.02 425.02;" xml:space="preserve">
<g>
	<path d="M401.157,142.18c0-11.868-4.622-23.025-13.013-31.416c-8.391-8.392-19.552-13.014-31.427-13.014
		c-19.748,0-36.827,13.166-42.477,31.357c-5.057-1.204-10.261-1.826-15.554-1.826c-16.268,0-32.825,5.813-46.62,16.367
		c-10.359,7.925-27.09,17.372-47.97,17.372h-9.401c-0.423-3.054-1.003-6.978-1.751-11.538l17.803-3.165l-2.801-15.754l-17.844,3.173
		c-1.038-5.26-2.238-10.88-3.613-16.682l19.534-3.805l-3.06-15.705l-20.494,3.992c-0.038-0.133-0.074-0.265-0.112-0.398
		c-1.284-4.518-2.613-8.821-3.986-12.914l15.628-8.102l-7.364-14.205l-13.927,7.22c-0.181-0.43-0.366-0.845-0.549-1.269
		c13.198-20.718,10.458-48.335-7.177-66.078l-5.641-5.676l-29.157,28.994l0.134-25.046l-16-0.086l-0.085,15.937
		C104.326,7.577,89.176,0,72.717,0h-8v51.935c-2.122,2.779-3.954,5.809-5.442,9.061l-32.288,70.445
		c-4.958,10.834-3.97,23.223,2.643,33.14c6.349,9.521,16.981,15.204,28.441,15.204c6.138,0,12.182-1.664,17.479-4.814l16.748-9.964
		c-9.377,20.393-17.425,41.242-17.425,52.736c0,22.778,7.745,44.683,21.808,61.677c4.891,5.911,10.491,11.144,16.635,15.629V425.02
		h33h15h42V313.032c23.457-1.98,55.128-15.901,83.098-30.767c-0.066,3.365-0.098,6.385-0.098,9.214v133.54h32h16h41V286.906
		l25.84,47.19V142.18z M162.889,53.953c-5.132-8.134-10.669-14.241-16.598-18.298l12.366-12.297
		C164.459,32.508,165.92,43.731,162.889,53.953z M103.36,32.093c-3.92,0.669-7.904,1.467-11.737,2.399
		c-3.846,0.935-7.495,2.317-10.906,4.074V16.867C89.937,18.894,98.031,24.367,103.36,32.093z M67.372,161.22
		c-2.823,1.678-6.039,2.565-9.3,2.565c-6.099,0-11.755-3.021-15.129-8.081c-3.514-5.27-4.039-11.851-1.408-17.601l32.288-70.445
		c4.049-8.848,11.915-15.27,21.581-17.619c11.352-2.76,25.289-4.409,32.205-4.409c10.077,0,19.946,10.408,28.724,29.881
		c8.6,19.079,1.664,41.892-16.556,52.187c-0.548,0.31-1.107,0.613-1.676,0.91c-13.224,6.896-27.214,7.729-27.354,7.736h0
		c-1.265,0.139-2.485,0.548-3.579,1.198L67.372,161.22z M146.317,310.394v69.626h-17v-75.577
		C134.749,306.945,140.437,308.949,146.317,310.394z M129.317,409.02v-13h17v13H129.317z M162.317,409.02v-13h25v13H162.317z
		 M197.851,297.273c-0.72,0-1.429-0.019-2.105-0.055l-8.428-0.452v83.253h-25v-82.874l-6.65-1.139
		c-38.149-6.53-64.793-38.714-64.793-78.264c0-9.31,9.746-34.426,25.539-65.917c6.197-0.845,17.433-3.066,28.577-8.769
		c9.081-4.648,19.051-12.112,25.548-23.885c6.44,26.756,9.137,50.457,9.168,50.733l0.794,7.113h23.597
		c20.072,0,40.021-7.146,57.691-20.665c11.021-8.431,24.125-13.074,36.898-13.074c5.913,0,11.673,0.99,17.123,2.943
		c1.512,0.542,2.837,1.149,4.295,1.969c5.778,3.25,11.132,7.427,16.849,13.145c14.422,14.421,22.364,34.407,22.364,56.278V380.02
		h-25v-81.374l-4.846-2.078c-10.42-4.471-17.154-14.845-17.154-26.429v-20.906l-12.021,6.989
		C254.765,282.694,218.382,297.273,197.851,297.273z M318.317,308.828v71.191h-16v-87.347
		C306.125,299.295,311.593,304.901,318.317,308.828z M302.317,409.02v-13h16v13H302.317z M334.317,409.02v-13h25v13H334.317z
		 M385.157,271.563l-9.84-17.97v-35.978c0-26.145-9.607-50.149-27.05-67.592c-6.377-6.378-12.477-11.18-19.078-15.048
		c3.229-12.237,14.468-21.226,27.528-21.226c7.602,0,14.744,2.957,20.113,8.327c5.37,5.369,8.327,12.509,8.327,20.103V271.563z"/>
	<path d="M121.911,102.575c3.565-5.203,4.891-11.482,3.733-17.682c-1.158-6.2-4.661-11.578-9.864-15.144
		c-3.948-2.705-8.559-4.136-13.333-4.136c-7.8,0-15.086,3.838-19.492,10.267c-7.359,10.74-4.609,25.465,6.131,32.825
		c3.948,2.705,8.559,4.136,13.333,4.136h0.001C110.22,112.842,117.506,109.004,121.911,102.575z M108.712,93.531
		c-1.42,2.073-3.773,3.311-6.292,3.311c-1.532,0-3.016-0.462-4.289-1.334c-3.462-2.373-4.349-7.121-1.977-10.583
		c1.42-2.073,3.773-3.311,6.293-3.311c1.532,0,3.015,0.462,4.29,1.335c1.677,1.149,2.806,2.883,3.18,4.881
		C110.289,89.829,109.862,91.854,108.712,93.531z"/>
</g>
<g>
</g>
<g>
</g>
<g>
</g>
<g>
</g>
<g>
</g>
<g>
</g>
<g>
</g>
<g>
</g>
<g>
</g>
<g>
</g>
<g>
</g>
<g>
</g>
<g>
</g>
<g>
</g>
<g>
</g>
</svg>
