<?xml version="1.0" encoding="iso-8859-1"?>
<!-- Generator: Adobe Illustrator 18.0.0, SVG Export Plug-In . SVG Version: 6.00 Build 0)  -->
<!DOCTYPE svg PUBLIC "-//W3C//DTD SVG 1.1//EN" "http://www.w3.org/Graphics/SVG/1.1/DTD/svg11.dtd">
<svg version="1.1" id="Capa_1" xmlns="http://www.w3.org/2000/svg" xmlns:xlink="http://www.w3.org/1999/xlink" x="0px" y="0px"
	 viewBox="0 0 463.17 463.17" style="enable-background:new 0 0 463.17 463.17;" xml:space="preserve">
<g>
	<path d="M463.17,173.229h-19.9v-8.39c0-13.237-5.207-25.655-14.66-34.966c-9.453-9.311-21.974-14.338-35.205-14.124
		c-26.646,0.414-48.325,22.719-48.325,49.72v7.76h-9.39c-0.005-1.81-0.007-2.818-0.007-2.818c0-15.121-12.537-27.423-27.947-27.423
		c-7.301,0-14.242,2.817-19.544,7.933c-0.379,0.366-0.744,0.742-1.099,1.124c-5.021-5.557-12.281-9.056-20.343-9.056
		c-15.12,0-27.42,12.301-27.42,27.42v2.82h-19.827v-2.818c0-15.121-12.249-27.423-27.304-27.423c-7.328,0-14.203,2.861-19.357,8.056
		c-0.147,0.148-0.285,0.302-0.428,0.452c-4.997-5.235-12.034-8.507-19.825-8.507c-15.12,0-27.42,12.301-27.42,27.42v2.82H75.078
		L37.115,96.856L0,116.198l28.483,57.03H2.17v50h69.795c-3.817,2.658-7.438,5.655-10.796,9.014
		c-14.5,14.501-22.123,33.308-22.89,52.343c-5.004,1.439-9.594,4.125-13.353,7.893c-5.885,5.879-9.126,13.695-9.126,22.011
		c0,8.314,3.241,16.131,9.124,22.007c6.011,6.011,14.015,9.057,22.036,9.057c4.605,0,9.214-1.011,13.455-3.036
		c0.255,0.263,0.495,0.535,0.755,0.794c14.834,14.834,34.556,23.003,55.534,23.003c10.736,0,21.137-2.153,30.729-6.23
		c7.391,2.859,15.189,4.313,23.239,4.313h101.06c26.574,0,49.432-16.424,59.207-39.779h6.932c27.068,0,49.09-22.026,49.09-49.1
		v-52.29h76.21V173.229z M361.081,165.469c0-18.314,14.613-33.442,32.571-33.722c8.942-0.158,17.357,3.248,23.731,9.525
		c6.376,6.279,9.887,14.649,9.887,23.566v16.45c0,2.724-2.216,4.939-4.94,4.939c-1.322,0-2.57-0.519-3.503-1.447
		c-0.933-0.933-1.447-2.173-1.447-3.492v-16.101c0-6.302-2.592-12.463-7.112-16.904c-4.472-4.393-10.338-6.709-16.493-6.645
		c-12.58,0.213-22.815,10.62-22.815,23.199v8.39h-9.88V165.469z M386.96,173.229v-8.39c0-3.905,3.179-7.136,7.091-7.201
		c1.862-0.048,3.618,0.698,5.003,2.061c1.478,1.451,2.325,3.453,2.325,5.49v8.04H386.96z M335.816,223.229h9.265v52.29
		c0,3.748-2.917,6.903-6.64,7.183l-2.475,0.027C335.939,271.741,335.824,226.651,335.816,223.229z M219.503,223.229h19.827v13.023
		h-19.827V223.229z M255.331,223.229h22.84v12.776c-0.749,0.028-22.84,0.248-22.84,0.248V223.229z M255.331,170.408
		c0-6.297,5.123-11.42,11.42-11.42s11.42,5.123,11.42,11.42v2.82h-22.84V170.408z M279.799,189.229v18h-60.295v-18H279.799z
		 M164.896,189.229v7.333c-0.005-0.005-0.01-0.011-0.016-0.016c-3.307-3.311-7.228-5.785-11.506-7.316H164.896z M153.563,207.855
		c3.515,3.515,4.952,8.369,4.248,12.987c-8.462-5.219-17.822-8.751-27.666-10.44c0.584-0.911,1.257-1.771,2.036-2.55
		c2.856-2.858,6.652-4.434,10.69-4.434C146.908,203.418,150.704,204.993,153.563,207.855z M141.17,170.408
		c0-6.297,5.123-11.42,11.42-11.42s11.42,5.123,11.42,11.42v2.82h-22.84V170.408z M18.17,189.229h36.188l-33.017-66.11l8.706-4.536
		l35.117,70.646h67.201c-4.277,1.531-8.196,4.004-11.501,7.313c-3.075,3.075-5.439,6.718-6.989,10.688H18.17V189.229z
		 M36.234,325.179c-2.859-2.855-4.434-6.652-4.434-10.689c0-4.038,1.575-7.835,4.444-10.701c0.952-0.954,2.017-1.755,3.157-2.413
		c1.7,9.747,5.245,19.225,10.631,27.881C45.182,330.256,39.934,328.878,36.234,325.179z M72.483,331.997
		c-24.383-24.383-24.383-64.058,0-88.44C84.295,231.744,100,225.24,116.704,225.24c16.705,0,32.409,6.505,44.221,18.317
		c24.383,24.383,24.383,64.058,0,88.44c-11.812,11.813-27.517,18.317-44.221,18.317C100,350.315,84.295,343.81,72.483,331.997z
		 M305.808,333.891c-9.164,9.354-21.266,14.507-34.077,14.507c0,0-103.628-0.066-104.9-0.164c1.864-1.551,3.672-3.186,5.407-4.922
		c27.386-27.387,30.258-70.125,8.658-100.757V170.41c0-3.074,1.173-5.95,3.304-8.098c2.128-2.145,4.969-3.325,8-3.325
		c6.233,0,11.304,5.124,11.304,11.423v81.842h92.295V170.41c0-2.965,1.243-5.797,3.501-7.975c2.271-2.191,5.347-3.448,8.437-3.448
		c6.476,0,11.947,5.231,11.947,11.444c0,0,0.083,31.391,0.157,63.196c0.108,41.607,0.165,64.308,0.165,65.648
		C320.005,312.251,314.963,324.543,305.808,333.891z M370.96,275.519c0,18.251-14.844,33.1-33.09,33.1h-2.536
		c0.435-3.052,0.671-6.169,0.671-9.342c0-0.091,0-0.277-0.001-0.548c0,0,2.983-0.009,3.735-0.08
		c11.976-0.951,21.341-11.092,21.341-23.13v-52.29h9.88V275.519z M447.17,207.229H335.777c-0.016-6.601-0.032-12.717-0.045-18
		h67.205c1.041,2.54,2.585,4.875,4.589,6.879c3.964,3.947,9.222,6.121,14.805,6.121c8.736,0,16.231-5.382,19.366-13h5.474V207.229z"
		/>
	<path d="M104.166,288.229c-7.696,0-14.932,2.997-20.375,8.439c-11.234,11.234-11.234,29.515,0,40.75
		c5.442,5.441,12.678,8.438,20.375,8.438c7.697,0,14.933-2.997,20.375-8.439c11.234-11.234,11.234-29.515,0-40.75
		C119.099,291.226,111.863,288.229,104.166,288.229z M113.228,326.104c-2.42,2.42-5.638,3.753-9.062,3.753
		c-3.423,0-6.641-1.333-9.061-3.752c-4.997-4.997-4.997-13.127,0-18.123c2.42-2.42,5.638-3.753,9.061-3.753
		c3.423,0,6.641,1.333,9.061,3.752C118.224,312.978,118.224,321.108,113.228,326.104z"/>
	<path d="M167.06,255.409c-5.442-5.441-12.678-8.438-20.375-8.438c-7.696,0-14.932,2.997-20.375,8.439
		c-11.234,11.234-11.234,29.515,0,40.75c5.442,5.441,12.678,8.438,20.375,8.438c7.697,0,14.933-2.997,20.375-8.439
		C178.294,284.925,178.294,266.645,167.06,255.409z M155.746,284.846c-2.42,2.42-5.638,3.753-9.062,3.753
		c-3.423,0-6.641-1.333-9.061-3.752c-4.997-4.997-4.997-13.127,0-18.123c2.42-2.42,5.638-3.753,9.061-3.753
		c3.423,0,6.641,1.333,9.061,3.752C160.742,271.72,160.742,279.85,155.746,284.846z"/>
</g>
<g>
</g>
<g>
</g>
<g>
</g>
<g>
</g>
<g>
</g>
<g>
</g>
<g>
</g>
<g>
</g>
<g>
</g>
<g>
</g>
<g>
</g>
<g>
</g>
<g>
</g>
<g>
</g>
<g>
</g>
</svg>
