<?xml version="1.0" encoding="iso-8859-1"?>
<!-- Generator: Adobe Illustrator 18.0.0, SVG Export Plug-In . SVG Version: 6.00 Build 0)  -->
<!DOCTYPE svg PUBLIC "-//W3C//DTD SVG 1.1//EN" "http://www.w3.org/Graphics/SVG/1.1/DTD/svg11.dtd">
<svg version="1.1" id="Capa_1" xmlns="http://www.w3.org/2000/svg" xmlns:xlink="http://www.w3.org/1999/xlink" x="0px" y="0px"
	 viewBox="0 0 463.905 463.905" style="enable-background:new 0 0 463.905 463.905;" xml:space="preserve">
<g>
	<path d="M199.272,173.863c7.605-5.559,12.248-14.432,12.248-24.201c0-16.562-13.474-30.037-30.036-30.037
		c-7.053,0-13.825,2.514-19.159,6.928c-12.123-7.151-26.244-11.261-41.308-11.261c-16.386,0-31.656,4.862-44.452,13.212
		c-5.199-4.063-11.615-6.313-18.421-6.313c-16.562,0-30.036,13.474-30.036,30.037c0,10.377,5.285,19.769,13.692,25.205
		c-1.526,6.226-2.342,12.728-2.342,19.418c0,44.972,36.587,81.559,81.559,81.559s81.559-36.587,81.559-81.559
		C202.575,188.87,201.418,181.157,199.272,173.863z M181.485,135.413c7.856,0,14.248,6.392,14.248,14.249
		c0,3.195-1.05,6.186-2.879,8.603c-4.403-8.165-10.156-15.499-16.961-21.698C177.641,135.818,179.54,135.413,181.485,135.413z
		 M43.896,152.227c0-7.857,6.392-14.249,14.248-14.249c1.891,0,3.718,0.368,5.403,1.058c-6.57,6.532-12.038,14.171-16.093,22.612
		C45.215,159.109,43.896,155.793,43.896,152.227z M121.017,262.621c-36.266,0-65.771-29.505-65.771-65.771
		c0-36.266,29.505-65.771,65.771-65.771s65.771,29.505,65.771,65.771C186.788,233.116,157.283,262.621,121.017,262.621z"/>
	<path d="M88.978,171.873c-14.2,0-25.753,11.553-25.753,25.754s11.553,25.753,25.753,25.753s25.753-11.552,25.753-25.753
		S103.178,171.873,88.978,171.873z M88.978,207.592c-5.495,0-9.966-4.47-9.966-9.965c0-5.496,4.47-9.966,9.966-9.966
		s9.966,4.47,9.966,9.966C98.943,203.121,94.473,207.592,88.978,207.592z"/>
	<path d="M129.181,197.627c0,14.2,11.553,25.753,25.753,25.753c14.2,0,25.753-11.552,25.753-25.753s-11.553-25.754-25.753-25.754
		C140.734,171.873,129.181,183.426,129.181,197.627z M164.899,197.627c0,5.495-4.471,9.965-9.966,9.965
		c-5.495,0-9.965-4.47-9.965-9.965c0-5.496,4.47-9.966,9.965-9.966C160.428,187.661,164.899,192.131,164.899,197.627z"/>
	<path d="M454.193,289.058c-4.535-4.535-10.179-7.59-16.179-8.947v-20.529c0-38.066-29.664-69.415-67.045-72.151
		c-11.489-27.691-38.963-47.29-70.849-47.29H233.28c-6.008-14-15.003-28.478-26.691-40.167
		c-22.857-22.857-53.247-35.414-85.572-35.414c-32.324,0-62.714,12.603-85.572,35.461C12.588,122.879,0,153.278,0,185.602
		s12.588,62.718,35.445,85.575l85.572,85.574l26.088-26.087l0.058,30.856c-13.296,3.492-23.149,15.568-23.149,29.888v7.911
		l106-0.136V292.97l44-0.228v13.612c0,19.765,13.593,37.123,32.012,42.866l0.012,12.315c-13.213,3.508-23.024,15.573-23.024,29.875
		v7.935l112-0.16V335.26c0-13.788-3.561-27.671-10.108-40.144c-2.79-5.318-5.231-10.672-6.524-15.919
		c-1.324-5.351-2.367-11.034-2.367-16.892v-45.752c0-4.275-0.059-8.467-0.74-12.553c26.368,4.761,46.74,27.864,46.74,55.582v20.826
		c-6,1.48-10.775,4.423-15.002,8.649c-6.287,6.287-9.74,14.646-9.74,23.537c0,8.892,3.468,17.251,9.755,23.538l23.54,23.538
		l23.582-23.538C467.128,323.155,467.172,302.037,454.193,289.058z M46.608,260.018c-19.875-19.875-30.821-46.3-30.821-74.408
		s10.946-54.533,30.821-74.408c19.875-19.876,46.3-30.821,74.408-30.821c28.107,0,54.533,10.946,74.408,30.821
		c19.875,19.875,30.821,46.301,30.821,74.408s-10.946,54.533-30.821,74.408l-74.408,74.408L46.608,260.018z M180.014,297.667v63.79
		c-7,1.731-12.798,5.721-17.058,11.113l-0.171-57.651L180.014,297.667z M155.095,376.142h5.374c-1.291,2-2.309,4.714-3,7.245
		l-15.363-0.006C144.795,379.063,149.612,376.142,155.095,376.142z M301.488,383.261c2.63-4.334,7.386-7.119,12.928-7.119h7.93
		l-0.187-40.097l-6.513-0.951c-13.924-2.051-24.633-14.654-24.633-28.74v-13.692l8.202,0.48c0.003,0,0.007,0,0.01,0
		c3.6,0,6.997,1.296,9.556,3.839c2.554,2.538,3.966,5.931,3.966,9.504c0,10.903,3.868,21.321,10.982,29.452
		c4.669,5.338,11.283,9.471,17.283,12.114v14.533c-9,3.533-16.051,11.558-18.584,20.558L301.488,383.261z M378.014,335.26v47.882
		H339.22c2.65-4,7.438-7,13.016-7h7.908l-0.075-40.104l-6.731-0.963c-6.741-0.993-13.187-4.513-17.687-9.655
		c-4.596-5.254-7.127-12.075-7.127-19.153c0-7.81-3.062-15.571-8.621-21.094c-5.537-5.503-12.88-9.029-20.677-9.029
		c-0.007,0-0.014,0-0.022,0l-85.192,1.048v105.952h-39.26c2.651-4,7.442-7,13.022-7h8.237V281.88l10.637-10.698
		c22.857-22.857,35.414-52.704,35.414-85.028c0-10.097-1.259-21.012-3.645-29.012h61.701c33.498,0,60.893,26.053,60.893,59.411
		v45.752c0,7.134,0.756,14.093,2.384,20.677c1.596,6.473,3.576,13.023,6.957,19.469C375.72,312.673,378.014,324.018,378.014,335.26z
		 M442.944,324.97l-12.374,12.374l-12.374-12.374c-3.305-3.305-5.126-7.7-5.126-12.374c0-4.674,1.82-9.069,5.126-12.373
		c3.305-3.306,7.7-5.126,12.374-5.126c4.675,0,9.069,1.82,12.374,5.126C449.767,307.045,449.767,318.146,442.944,324.97z"/>
</g>
<g>
</g>
<g>
</g>
<g>
</g>
<g>
</g>
<g>
</g>
<g>
</g>
<g>
</g>
<g>
</g>
<g>
</g>
<g>
</g>
<g>
</g>
<g>
</g>
<g>
</g>
<g>
</g>
<g>
</g>
</svg>
