<?xml version="1.0" encoding="iso-8859-1"?>
<!-- Generator: Adobe Illustrator 18.0.0, SVG Export Plug-In . SVG Version: 6.00 Build 0)  -->
<!DOCTYPE svg PUBLIC "-//W3C//DTD SVG 1.1//EN" "http://www.w3.org/Graphics/SVG/1.1/DTD/svg11.dtd">
<svg version="1.1" id="Capa_1" xmlns="http://www.w3.org/2000/svg" xmlns:xlink="http://www.w3.org/1999/xlink" x="0px" y="0px"
	 viewBox="0 0 334.348 334.348" style="enable-background:new 0 0 334.348 334.348;" xml:space="preserve">
<g>
	<path d="M139.456,147.163c0-19.412-15.793-35.205-35.206-35.205s-35.206,15.793-35.206,35.205s15.793,35.206,35.206,35.206
		S139.456,166.576,139.456,147.163z M85.452,147.163c0-10.365,8.432-18.797,18.798-18.797s18.798,8.432,18.798,18.797
		c0,10.366-8.432,18.798-18.798,18.798S85.452,157.529,85.452,147.163z"/>
	<path d="M317.348,66.198v194.551c0,21.618-17,39.297-38,40.158v-44.792c0-0.614,0-1.222,0-1.831v-35.632
		c0-54.441-44.388-98.735-98.829-98.735c-0.595,0-1.237,0.008-1.832,0.025c-1.884-5.708-4.453-11.122-7.556-16.153
		c22.873-1.197,41.099-20.181,41.099-43.348c0-23.936-19.481-43.409-43.416-43.409S125.4,36.505,125.4,60.441
		c0,3.308,0.382,6.525,1.086,9.622c-6.62-1.866-13.597-2.873-20.804-2.873c-6.877,0-13.545,0.915-19.893,2.619
		c0.667-3.019,1.029-6.151,1.029-9.368c0-23.936-19.473-43.409-43.409-43.409C19.473,17.032,0,36.505,0,60.441
		c0,22.892,18.044,41.689,40.536,43.287c-7.235,11.703-11.188,25.482-11.188,40.219v76.251H81.72c0.001,0,0,0.167,0.001,0.201
		c1.091,53.498,44.949,96.799,98.702,96.799l98.924,0.117c30-0.87,55-25.9,55-56.566V66.198H317.348z M168.805,33.44
		c14.888,0,27.001,12.113,27.001,27.001c0,14.889-12.113,27.002-27.001,27.002s-27.001-12.113-27.001-27.002
		C141.804,45.553,153.917,33.44,168.805,33.44z M16.408,60.441c0-14.888,12.112-27.001,27.001-27.001
		c14.888,0,27.001,12.113,27.001,27.001c0,14.889-12.113,27.002-27.001,27.002C28.52,87.443,16.408,75.33,16.408,60.441z
		 M45.348,204.198v-60.251c0-33.275,27.084-60.348,60.36-60.348c25.416,0,47.219,15.793,56.096,38.083
		c2.002,5.029,3.35,10.378,3.932,15.956c0.213,2.075,0.33,4.127,0.33,6.26c0,33.275-27.072,60.3-60.347,60.3H45.348z M98.13,220.516
		c-0.001-0.046-0.001-0.318-0.003-0.318h7.591c42.324,0,76.756-34.179,76.756-76.504c0-2.568-0.123-4.937-0.369-7.439
		c43.148,0.886,78.226,35.17,80.479,77.976c-11.187-11.942-27.079-19.404-44.695-19.404c-33.782,0-61.266,27.495-61.266,61.278
		c0,17.626,7.492,33.445,19.447,44.633C133.366,298.503,99.185,263.513,98.13,220.516z M262.348,301.198h-45.563
		c-24.225-1-43.753-20.592-43.753-44.957c0-24.735,19.946-44.921,44.682-44.921c24.121,0,43.635,19.075,44.635,42.964V301.198z"/>
</g>
<g>
</g>
<g>
</g>
<g>
</g>
<g>
</g>
<g>
</g>
<g>
</g>
<g>
</g>
<g>
</g>
<g>
</g>
<g>
</g>
<g>
</g>
<g>
</g>
<g>
</g>
<g>
</g>
<g>
</g>
</svg>
