<?xml version="1.0" encoding="iso-8859-1"?>
<!-- Generator: Adobe Illustrator 18.0.0, SVG Export Plug-In . SVG Version: 6.00 Build 0)  -->
<!DOCTYPE svg PUBLIC "-//W3C//DTD SVG 1.1//EN" "http://www.w3.org/Graphics/SVG/1.1/DTD/svg11.dtd">
<svg version="1.1" id="Capa_1" xmlns="http://www.w3.org/2000/svg" xmlns:xlink="http://www.w3.org/1999/xlink" x="0px" y="0px"
	 viewBox="0 0 427.27 427.27" style="enable-background:new 0 0 427.27 427.27;" xml:space="preserve">
<path d="M420.097,135.634c-5.917-13.328-19.349-21.018-33.115-20.319c4.697-12.956,1.277-28.053-9.734-37.617
	c-10.628-9.222-25.371-10.722-37.326-4.997c-1.605-13.155-10.801-24.777-24.297-28.781c-8.783-2.601-18.05-1.624-26.094,2.745
	c-8.046,4.37-13.908,11.613-16.506,20.393l-19.397,65.467c-2.273-0.197-4.567-0.318-6.891-0.318h-38.941
	c-37.799,0-69.492,26.561-77.448,61.993h-8.682c-4.103,0-7.44-3.337-7.44-7.418c0.361-134.116,0.287-135.146,0.26-135.528
	C112.443,22.513,88.254,0,59.415,0C44.67,0,30.807,5.743,20.382,16.169C9.95,26.588,4.205,40.453,4.205,55.21v8h8
	c12.572,0,24.396,4.899,33.293,13.797c8.897,8.896,13.797,20.72,13.797,33.293v76.46c0,34.391,27.979,62.37,62.37,62.37h16.191
	c10.031,18.618,27.284,32.779,47.979,38.747v29.673c0,13.002,8.346,24.087,19.96,28.194v65.526h-24v16h70v-80.867
	c12.7-3.451,22.07-15.075,22.07-28.852v-31.337c29.472-10.748,50.827-38.489,52.181-71.306l76.624-34.025
	c8.371-3.716,14.794-10.469,18.086-19.015C424.047,153.321,423.812,144.005,420.097,135.634z M366.759,89.779
	c7.611,6.611,8.43,18.184,1.825,25.796v0c-5.037,5.803-11.289,10.427-18.312,13.545l-51.29,22.774
	c-1.963-1.72-4.01-3.343-6.137-4.866l48.118-55.424C347.575,83.995,359.149,83.175,366.759,89.779z M288.366,71.6
	c1.73-5.847,6.172-10.412,12.204-12.317c2.156-0.681,4.442-0.933,6.695-0.74c11.965,1.026,19.376,12.573,16.16,23.441v0
	c-1.611,5.426-4.364,10.444-8.074,14.718l-36.67,42.238c-2.995-1.322-6.083-2.465-9.257-3.413L288.366,71.6z M61.207,17.158
	c5.384,0,9.765,4.381,9.765,9.765c0,5.385-4.38,9.766-9.765,9.766c-5.385,0-9.765-4.381-9.765-9.766
	C51.442,21.539,55.822,17.158,61.207,17.158z M121.665,233.13c-25.568,0-46.37-20.802-46.37-46.37V110.3
	c0-16.847-6.564-32.688-18.483-44.607C46.968,55.85,34.45,49.658,20.899,47.801c1.455-7.654,5.162-14.69,10.793-20.315
	c1.237-1.237,2.547-2.372,3.912-3.42c-0.104,0.939-0.162,1.891-0.162,2.857c0,14.207,11.558,25.766,25.765,25.766
	c14.056,0,25.512-11.317,25.753-25.317c6.51,6.432,10.811,15.115,11.55,24.817c0.047,4.913-0.165,89.809-0.285,134.571
	c0,12.925,10.515,23.439,23.44,23.439h6.774c-0.008,0.467-0.036,0.93-0.036,1.399c0,7.463,1.057,14.679,2.992,21.531H121.665z
	 M201.835,290.743c1.97,0.147,12.229,0.247,12.229,0.247v26.56c0,4.969,1.225,9.654,3.379,13.781
	c-0.565,0.07-1.134,0.118-1.708,0.118c-7.665,0-13.9-6.235-13.9-13.899V290.743z M221.795,411.27v-64.448
	c2.813-0.583,5.528-1.566,8.058-2.92c1.87,1.006,3.861,1.812,5.942,2.404v64.964H221.795z M257.865,317.55
	c0,7.664-6.235,13.899-13.9,13.899s-13.9-6.235-13.9-13.899v-26.56h16.673c3.778,0,7.489-0.283,11.128-0.796V317.55z
	 M246.737,274.99h-38.941c-34.955,0-63.393-28.438-63.393-63.393c0-34.954,28.438-63.392,63.393-63.392h38.941
	c34.955,0,63.393,28.438,63.393,63.393C310.13,246.553,281.692,274.99,246.737,274.99z M405.824,156.117
	c-1.755,4.558-5.18,8.158-9.646,10.141l-71.255,31.641c-2.171-12.421-7.219-23.864-14.46-33.595l70.877-31.472
	c9.215-4.089,20.043,0.078,24.133,9.293C407.455,146.591,407.58,151.56,405.824,156.117z"/>
<g>
</g>
<g>
</g>
<g>
</g>
<g>
</g>
<g>
</g>
<g>
</g>
<g>
</g>
<g>
</g>
<g>
</g>
<g>
</g>
<g>
</g>
<g>
</g>
<g>
</g>
<g>
</g>
<g>
</g>
</svg>
