<?xml version="1.0" encoding="iso-8859-1"?>
<!-- Generator: Adobe Illustrator 18.0.0, SVG Export Plug-In . SVG Version: 6.00 Build 0)  -->
<!DOCTYPE svg PUBLIC "-//W3C//DTD SVG 1.1//EN" "http://www.w3.org/Graphics/SVG/1.1/DTD/svg11.dtd">
<svg version="1.1" id="Capa_1" xmlns="http://www.w3.org/2000/svg" xmlns:xlink="http://www.w3.org/1999/xlink" x="0px" y="0px"
	 viewBox="0 0 346.87 346.87" style="enable-background:new 0 0 346.87 346.87;" xml:space="preserve">
<g>
	<path d="M307.976,26.652h-71.271c-0.322,0-0.639,0.02-0.961,0.024C219.521,9.679,197.029,0,173.43,0
		c-23.593,0-46.081,9.679-62.305,26.676c-0.321-0.004-0.639-0.024-0.961-0.024H38.894v71.271c0,19.081,7.552,36.421,19.806,49.227
		v72.421c0,31.522,13.19,61.97,36.185,83.533c15.817,14.847,35.233,24.735,56.145,28.846v14.921h16v-12.932
		c2.062,0.111,8.071,0.16,9,0.138v12.794h16v-14.301c21.865-3.616,42.268-13.511,58.799-28.744
		c23.483-21.627,36.951-52.337,36.951-84.254v-72.012c12.485-12.844,20.196-30.351,20.196-49.635V26.652z M173.43,16
		c15.243,0,29.921,4.96,41.934,13.919c-18.2,5.724-33.259,18.574-41.929,35.257c-8.67-16.683-23.729-29.533-41.929-35.257
		C143.518,20.96,158.192,16,173.43,16z M54.894,42.652h55.271c30.476,0,55.271,24.794,55.271,55.271v55.271h-55.271
		c-30.476,0-55.271-24.794-55.271-55.27V42.652z M74.7,219.57v-59.867c10.453,6.024,22.558,9.49,35.464,9.49h13.866v50.377
		c0,25.609-8.378,48.827-23.74,66.245C83.733,267.676,74.7,244.439,74.7,219.57z M111.997,296.737
		c18.138-20.38,28.033-47.443,28.033-77.166v-50.377h25.405h16h20.595v50.377c0,28.252,11.414,56.173,31.578,77.866
		c-17.222,13.376-38.355,20.674-60.368,20.674C150.825,318.11,129.377,310.562,111.997,296.737z M245.421,286.645
		c-17.489-18.763-27.39-42.819-27.39-67.075v-50.377h18.675c12.746,0,24.711-3.38,35.075-9.266v59.643
		C271.78,244.465,262.256,268.505,245.421,286.645z M291.976,97.923c0,30.476-24.794,55.27-55.271,55.27h-55.271V97.922
		c0-30.476,24.794-55.271,55.271-55.271h55.271V97.923z"/>
	<path d="M120.793,144.739c21.162,0,38.378-17.217,38.378-38.379s-17.216-38.378-38.378-38.378S82.414,85.198,82.414,106.36
		S99.631,144.739,120.793,144.739z M120.793,83.981c12.339,0,22.378,10.039,22.378,22.378c0,12.34-10.039,22.379-22.378,22.379
		c-12.34,0-22.379-10.039-22.379-22.379C98.414,94.021,108.453,83.981,120.793,83.981z"/>
	<path d="M184.799,106.36c0,21.162,17.216,38.379,38.378,38.379s38.379-17.217,38.379-38.379s-17.217-38.378-38.379-38.378
		S184.799,85.198,184.799,106.36z M245.556,106.36c0,12.34-10.039,22.379-22.379,22.379c-12.339,0-22.378-10.039-22.378-22.379
		c0-12.339,10.039-22.378,22.378-22.378C235.517,83.981,245.556,94.021,245.556,106.36z"/>
</g>
<g>
</g>
<g>
</g>
<g>
</g>
<g>
</g>
<g>
</g>
<g>
</g>
<g>
</g>
<g>
</g>
<g>
</g>
<g>
</g>
<g>
</g>
<g>
</g>
<g>
</g>
<g>
</g>
<g>
</g>
</svg>
