<?xml version="1.0" encoding="iso-8859-1"?>
<!-- Generator: Adobe Illustrator 18.0.0, SVG Export Plug-In . SVG Version: 6.00 Build 0)  -->
<!DOCTYPE svg PUBLIC "-//W3C//DTD SVG 1.1//EN" "http://www.w3.org/Graphics/SVG/1.1/DTD/svg11.dtd">
<svg version="1.1" id="Capa_1" xmlns="http://www.w3.org/2000/svg" xmlns:xlink="http://www.w3.org/1999/xlink" x="0px" y="0px"
	 viewBox="0 0 417.521 417.521" style="enable-background:new 0 0 417.521 417.521;" xml:space="preserve">
<g>
	<path d="M392.306,330.303c2.064-8.048,3.014-15.711,3.014-24.023c-0.035-47.851-15.475-92.965-44.648-130.465
		c-27.175-34.931-65.267-60.919-107.691-73.592c-1.146-5.539-2.685-10.935-4.584-16.16c10.058-8.56,15.914-21.028,15.914-34.499
		c0-25.012-20.348-45.359-45.359-45.359c-12.025,0-23.566,4.869-32.009,13.251c-14.826-6.799-31.304-10.596-48.654-10.596
		c-17.956,0-34.979,4.067-50.203,11.32C69.59,11.341,57.796,6.206,45.36,6.206C20.349,6.206,0,26.553,0,51.565
		C0,65.766,6.64,78.979,17.677,87.49c-4.208,12.06-6.504,25.009-6.504,38.486c0,32.684,13.464,62.279,35.13,83.544v161.696
		c0,22.11,17.988,40.099,40.099,40.099c13.078,0,24.712-6.296,32.037-16.014c7.324,9.718,18.958,16.014,32.037,16.014
		c0.741,0,84.764-0.06,95.289-0.067c25.224-0.018,45.567-0.033,45.567-0.033c18.451,0,36.872-5.463,53.698-15.843
		c7.734,8.958,19.02,14.268,31.203,14.268c22.767,0,41.289-18.522,41.289-41.289C417.521,351.485,407.318,336.638,392.306,330.303z
		 M208.95,22.206c16.188,0,29.359,13.171,29.359,29.359c0,7.069-2.491,13.716-6.903,18.935
		c-9.386-17.376-23.036-32.122-39.538-42.832C196.776,24.143,202.685,22.206,208.95,22.206z M16,51.565
		c0-16.188,13.171-29.359,29.36-29.359c6.643,0,13.007,2.261,18.123,6.269C47.043,39.438,33.52,54.444,24.344,72.062
		C19.078,66.653,16,59.339,16,51.565z M27.173,125.976c0-55.755,45.36-101.115,101.115-101.115s101.115,45.36,101.115,101.115
		s-45.36,101.115-101.115,101.115S27.173,181.731,27.173,125.976z M182.578,395.215c0.953-1.272,1.823-2.608,2.623-3.989
		c1.087,1.388,2.242,2.719,3.461,3.989H182.578z M342.086,377.203c0,0-9.402,6.894-11.586,8.033
		c-10.373,5.413-23.7,9.979-39.17,9.979h-67.556c-16.84-1.177-30.54-13.906-33.202-30.3l-0.084-0.641
		c-0.481-3.656-0.452-7.36,0.084-11.008l0,0c2.795-17.214,17.758-30.4,35.75-30.4h87.022v-16h-87.022
		c-13.823,0-26.399,5.408-35.75,14.206v-42.228h-16v91.773c0,13.296-10.513,24.538-23.808,24.696
		c-12.799,0.152-23.36-9.731-24.311-22.257c0.028-0.61,0.047-94.212,0.047-94.212h-0.124H110.5h-0.124
		c0,0,0.019,93.602,0.047,94.212c-0.951,12.525-11.512,22.408-24.31,22.257c-13.296-0.157-23.809-11.399-23.809-24.696l0-147.937
		c18.803,12.871,41.529,20.411,65.985,20.411c64.577,0,117.115-52.538,117.115-117.115c0-2.096-0.058-4.179-0.167-6.248
		c36.502,12.381,69.133,35.48,92.807,65.911c26.971,34.669,41.244,76.39,41.277,120.646c0,9.065-1.368,17.257-4.416,26.512
		l-0.101,0.304C368.939,350.753,357.32,366.416,342.086,377.203z M376.231,393.641c-7.212,0-13.92-3.029-18.639-8.187
		c12.886-10.703,23.128-24.509,29.612-39.91c8.574,4.125,14.315,12.897,14.315,22.808
		C401.521,382.296,390.176,393.641,376.231,393.641z"/>
	<path d="M88.894,83.278c-9.449,0-18.333,3.68-25.016,10.361l-18.909,18.909c-13.793,13.794-13.793,36.238,0,50.031
		c6.682,6.683,15.566,10.363,25.017,10.363c9.449,0,18.334-3.681,25.016-10.362l18.909-18.909c13.793-13.794,13.793-36.238,0-50.032
		C107.228,86.958,98.344,83.278,88.894,83.278z M102.596,132.357l-18.909,18.91c-3.66,3.66-8.525,5.676-13.701,5.676
		c-5.177,0-10.042-2.016-13.702-5.677c-7.556-7.555-7.556-19.849,0-27.403l18.909-18.909c3.659-3.66,8.525-5.676,13.701-5.676
		c5.177,0,10.043,2.016,13.702,5.676C110.151,112.508,110.151,124.802,102.596,132.357z"/>
	<path d="M161.268,162.58c6.682,6.683,15.566,10.363,25.017,10.363c9.449,0,18.334-3.681,25.015-10.362
		c6.683-6.682,10.363-15.566,10.363-25.017c0-9.449-3.681-18.334-10.362-25.015l-18.909-18.91
		c-6.682-6.682-15.566-10.361-25.016-10.361s-18.334,3.68-25.017,10.361c-13.793,13.794-13.793,36.238,0,50.032L161.268,162.58z
		 M153.672,104.954c3.661-3.66,8.527-5.676,13.703-5.676s10.042,2.016,13.702,5.675l18.909,18.91
		c3.66,3.66,5.676,8.525,5.676,13.701c0,5.177-2.016,10.042-5.677,13.703c-3.66,3.66-8.525,5.676-13.701,5.676
		c-5.177,0-10.042-2.016-13.702-5.677l-18.909-18.909c-3.66-3.659-5.676-8.525-5.676-13.701
		C147.997,113.479,150.013,108.613,153.672,104.954z"/>
</g>
<g>
</g>
<g>
</g>
<g>
</g>
<g>
</g>
<g>
</g>
<g>
</g>
<g>
</g>
<g>
</g>
<g>
</g>
<g>
</g>
<g>
</g>
<g>
</g>
<g>
</g>
<g>
</g>
<g>
</g>
</svg>
