<?xml version="1.0" encoding="iso-8859-1"?>
<!-- Generator: Adobe Illustrator 18.0.0, SVG Export Plug-In . SVG Version: 6.00 Build 0)  -->
<!DOCTYPE svg PUBLIC "-//W3C//DTD SVG 1.1//EN" "http://www.w3.org/Graphics/SVG/1.1/DTD/svg11.dtd">
<svg version="1.1" id="Capa_1" xmlns="http://www.w3.org/2000/svg" xmlns:xlink="http://www.w3.org/1999/xlink" x="0px" y="0px"
	 viewBox="0 0 364.869 364.869" style="enable-background:new 0 0 364.869 364.869;" xml:space="preserve">
<g>
	<path d="M262.161,324.72c12.428-16.675,18.996-36.402,18.996-57.051c0-5.422-0.476-10.95-1.415-16.431L247.65,91.713
		c-4.916-24.453-19.63-46.085-40.495-59.656C195.47,12.853,174.338,0,150.261,0c-36.695,0-66.549,29.854-66.549,66.549v66.549
		h27.521L90.894,251.23c-3.782,21.958-0.033,43.781,10.84,63.108c8.072,14.362,19.553,26.13,33.091,34.53h-27.677v16h157v-16
		h-28.116C245.987,342.641,254.852,334.519,262.161,324.72z M265.157,267.669c0,14.959-4.154,29.345-12.063,41.984
		c-13.204-9.946-25.837-43.415-25.837-88.404c0-29.606,5.885-57.495,15.106-74.695l21.627,107.497
		C264.765,258.604,265.157,263.186,265.157,267.669z M99.712,66.549C99.712,38.676,122.388,16,150.261,16
		s50.549,22.676,50.549,50.549s-22.676,50.549-50.549,50.549H99.712V66.549z M106.661,253.946l13.013-75.579
		c2.747,13.09,4.234,27.728,4.234,42.876c0,28.43-5.304,55.111-13.994,72.541C105.45,281.112,104.316,267.563,106.661,253.946z
		 M118.358,310.915c13.386-19.373,21.55-52.931,21.55-89.67c0-29.204-5.229-57.007-14.378-76.889l1.938-11.257h22.792
		c36.695,0,66.549-29.854,66.549-66.549c0-1.513-0.069-3.01-0.169-4.499c7.563,9.497,12.895,20.735,15.324,32.817l6.069,30.164
		c-16.384,17.601-26.776,54.497-26.776,96.218c0,25.325,3.921,49.784,11.039,68.873c5.582,14.966,12.745,25.853,21.041,32.188
		c-15.03,15.984-35.713,24.989-58.02,24.989C158.234,347.299,133.032,333.48,118.358,310.915z"/>
	<path d="M178.851,68.414c0-16.681-13.57-30.251-30.251-30.251s-30.252,13.57-30.252,30.251s13.571,30.252,30.252,30.252
		S178.851,85.095,178.851,68.414z M148.6,82.666c-7.858,0-14.252-6.394-14.252-14.252s6.394-14.251,14.252-14.251
		s14.251,6.393,14.251,14.251S156.458,82.666,148.6,82.666z"/>
</g>
<g>
</g>
<g>
</g>
<g>
</g>
<g>
</g>
<g>
</g>
<g>
</g>
<g>
</g>
<g>
</g>
<g>
</g>
<g>
</g>
<g>
</g>
<g>
</g>
<g>
</g>
<g>
</g>
<g>
</g>
</svg>
