<?xml version="1.0" encoding="iso-8859-1"?>
<!-- Generator: Adobe Illustrator 18.0.0, SVG Export Plug-In . SVG Version: 6.00 Build 0)  -->
<!DOCTYPE svg PUBLIC "-//W3C//DTD SVG 1.1//EN" "http://www.w3.org/Graphics/SVG/1.1/DTD/svg11.dtd">
<svg version="1.1" id="Capa_1" xmlns="http://www.w3.org/2000/svg" xmlns:xlink="http://www.w3.org/1999/xlink" x="0px" y="0px"
	 viewBox="0 0 344.756 344.756" style="enable-background:new 0 0 344.756 344.756;" xml:space="preserve">
<g>
	<path d="M312.171,258.824c-6.96-6.96-16.707-10.821-25.707-11.048v-2.395c0-54.796-44.987-99.624-99.738-99.624h-13.862
		c-2.371-9-6.405-17.555-11.75-25.07c13.96-5.12,26.632-13.179,37.3-23.847c19.468-19.468,30.05-45.289,30.05-72.82v-9.263h-7.933
		c-15.867,0-31.416,4.086-45.463,11.043c-0.335-6.07-1.205-11.956-2.605-17.892L170.578,0l-7.991,1.923
		c-22.087,5.2-41.381,17.194-55.797,34.644C94.286,51.702,86.249,70.384,83.853,89.759C48.4,96.57,21.464,127.823,21.464,165.228
		v76.529H86.4c-10.302,11-16.125,26.129-16.125,41.317c0,33.926,27.515,61.683,61.334,61.683h154.854v-21.349
		c9-0.212,18.867-4.115,25.818-11.066C327.036,297.587,326.925,273.579,312.171,258.824z M164.374,52.893
		c13.438-11.449,30.055-18.478,47.521-20.229c-1.956,19.879-10.645,38.312-24.956,52.623c-10.585,10.586-23.618,18.19-37.894,22.175
		c-3.907-3.425-8.162-6.46-12.706-9.047C140.619,80.781,150.42,64.782,164.374,52.893z M119.453,47.049
		c10.269-12.431,23.487-21.554,38.588-26.708c0.506,3.797,0.761,7.621,0.761,11.439c0,1.485-0.042,2.971-0.119,4.449
		c-1.69,1.271-3.346,2.591-4.962,3.968c-15.867,13.519-27.235,31.655-32.654,51.593c-6.474-1.999-13.313-3.151-20.384-3.356
		C103.156,73.348,109.654,58.911,119.453,47.049z M37.464,225.756v-60.529c0-33.313,27.391-60.416,60.704-60.416
		s60.56,27.159,60.56,60.472c0,33.313-26.958,60.472-60.272,60.472H37.464z M131.61,328.756c-24.763,0-44.909-20.445-44.909-45.314
		c0-6.051,1.216-11.783,3.516-17.184c5.442,25.963,20.975,47.498,42.256,62.498H131.61z M104.464,245.381v-3.549
		c40-3.099,70.809-36.109,70.809-76.441c0-0.937,0.003-1.634-0.031-2.634h11.484c44.409,0,80.767,34.986,82.776,78.951
		c-11.217-12.188-27.289-19.923-45.12-19.923c-33.819,0-61.333,27.473-61.333,61.292c0,17.875,7.665,33.965,19.906,45.185
		C139.356,326.279,104.464,289.853,104.464,245.381z M269.464,328.756h-45.081c-24.762,0-44.907-20.552-44.907-45.314
		c0-24.762,20.232-45.11,44.994-45.11s44.995,19.942,44.995,44.703V328.756z M300.556,300.726
		c-3.848,3.849-9.092,6.049-14.092,6.255v-42.783c5,0.216,10.352,2.39,14.203,6.241
		C309.018,278.789,308.907,292.376,300.556,300.726z"/>
	<path d="M126.128,168.005c0-18.133-14.752-32.884-32.884-32.884c-18.133,0-32.885,14.752-32.885,32.884
		c0,18.133,14.752,32.885,32.885,32.885C111.376,200.89,126.128,186.138,126.128,168.005z M93.244,184.464
		c-9.076,0-16.459-7.384-16.459-16.459s7.384-16.459,16.459-16.459c9.075,0,16.459,7.383,16.459,16.459
		S102.319,184.464,93.244,184.464z"/>
</g>
<g>
</g>
<g>
</g>
<g>
</g>
<g>
</g>
<g>
</g>
<g>
</g>
<g>
</g>
<g>
</g>
<g>
</g>
<g>
</g>
<g>
</g>
<g>
</g>
<g>
</g>
<g>
</g>
<g>
</g>
</svg>
