<?xml version="1.0" encoding="iso-8859-1"?>
<!-- Generator: Adobe Illustrator 18.0.0, SVG Export Plug-In . SVG Version: 6.00 Build 0)  -->
<!DOCTYPE svg PUBLIC "-//W3C//DTD SVG 1.1//EN" "http://www.w3.org/Graphics/SVG/1.1/DTD/svg11.dtd">
<svg version="1.1" id="Capa_1" xmlns="http://www.w3.org/2000/svg" xmlns:xlink="http://www.w3.org/1999/xlink" x="0px" y="0px"
	 viewBox="0 0 422.216 422.216" style="enable-background:new 0 0 422.216 422.216;" xml:space="preserve">
<path d="M407.405,149.346l-36.353-73.652l-73.662,36.322c-14.7,7.248-27.863,16.777-39.189,28.35
	c-2.125-0.756-4.268-1.476-6.434-2.117l-22.713-22.66c0.083-0.983,0.074-49.621,0.074-49.621c0-11.383-6.389-21.389-16.753-26.113
	c-10.186-4.641-21.717-2.98-30.135,4.336c-5.53,4.801-10.124,10.512-13.594,16.82c-12.644-6.586-26.764-10.081-41.429-10.081
	c-14.708,0-28.87,3.515-41.544,10.138c-3.476-6.259-8.131-11.988-13.753-16.874c-8.448-7.342-20.362-8.993-30.645-4.307
	C30.87,44.63,24.128,54.623,24.128,65.968c0,0,0.382,48.925,0.54,50.017L0,140.796l63.607,63.538
	c2.366,2.366,4.909,4.608,7.474,6.653c7.231,5.795,15.341,10.385,23.933,13.678c-3.168,11.165-4.762,22.631-4.762,34.188
	c0,8.998,0.951,17.848,2.78,26.445c-6.467,10.316-9.876,22.159-9.876,34.49c0,1.368,0.048,2.77,0.147,4.292
	c0.27,4.144,0.949,8.223,1.991,12.191c-3.543,2.038-7.169,4.545-10.079,7.449c-8.654,8.653-14.087,20.64-14.087,32.889v8.353h281
	v-43.078C413.128,306.814,442.466,220.447,407.405,149.346z M391.201,153.062L307.9,124.781l55.791-27.518L391.201,153.062z
	 M289.122,135.414l110.496,37.514c4.748,14.36,6.792,29.132,6.347,43.684l-86.399-29.333c-1.964-2.833-4.047-5.594-6.25-8.267
	c-10.845-13.158-24.237-23.915-39.177-31.699C278.823,142.972,283.829,139.006,289.122,135.414z M331.392,208.275l73.044,24.812
	c-2.484,15.386-7.701,30.231-15.492,43.746l-46.816-15.91v-2.104C342.128,241.335,338.357,224.109,331.392,208.275z M192.827,56.351
	c3.652-3.174,8.485-3.863,12.921-1.84c4.62,2.105,7.38,6.389,7.38,11.457v33.643l-22.364-22.362
	c-2.698-2.698-5.539-5.201-8.503-7.507C184.868,64.712,188.449,60.151,192.827,56.351z M187.898,97.163l43.632,43.632
	l-52.158,52.151c-0.243,0.243-0.497,0.468-0.742,0.707l-10.787-10.782c-2.379-2.379-4.437-4.959-6.191-7.678
	c1.162,0.163,2.335,0.252,3.512,0.252c9.155,0,17.658-4.938,22.19-12.885c6.971-12.227,2.694-27.845-9.532-34.817
	c-3.848-2.193-8.214-3.353-12.626-3.353c-1.135,0-2.259,0.077-3.368,0.225c1.714-2.617,3.717-5.098,6.014-7.395L187.898,97.163z
	 M160.515,158.098c-2.185-1.246-3.755-3.268-4.42-5.695c-0.665-2.426-0.344-4.966,0.903-7.152c1.673-2.934,4.814-4.757,8.198-4.757
	c1.619,0,3.227,0.429,4.648,1.239c4.512,2.572,6.09,8.336,3.518,12.848c-1.673,2.934-4.815,4.757-8.199,4.757
	C163.522,159.338,161.958,158.921,160.515,158.098z M40.128,65.968c0-5.031,3.113-9.302,7.774-11.425
	c4.535-2.066,9.606-1.391,13.287,1.808c4.484,3.897,8.209,8.48,10.819,13.461c-2.932,2.286-6.032,4.767-8.704,7.438l-23.176,22.889
	V65.968z M75.805,193.664c-0.247-0.24-0.496-0.476-0.739-0.719l-52.15-52.15l43.63-43.635l20.058,20.058
	c2.302,2.302,4.307,4.789,6.024,7.411c-1.14-0.157-2.29-0.24-3.444-0.24c-9.155,0-17.659,4.937-22.189,12.885
	c-3.378,5.922-4.246,12.806-2.446,19.382c1.8,6.576,6.054,12.057,11.976,15.433c3.848,2.195,8.214,3.355,12.626,3.355
	c0.001,0,0,0,0.001,0c1.234,0,2.454-0.097,3.657-0.272c-1.756,2.727-3.818,5.312-6.202,7.697L75.805,193.664z M93.831,141.733
	c2.185,1.246,3.755,3.27,4.42,5.697c0.665,2.426,0.344,4.966-0.903,7.152c-1.673,2.934-4.814,4.757-8.198,4.757
	c-1.643,0-3.207-0.418-4.649-1.24c-2.185-1.246-3.755-3.268-4.42-5.695c-0.665-2.426-0.344-4.966,0.903-7.152
	c1.673-2.934,4.814-4.757,8.198-4.757C90.802,140.494,92.409,140.923,93.831,141.733z M88.613,203.634l9.379-9.374
	c24.38-24.38,24.38-64.05,0-88.431L78.017,85.853c13.546-12.159,30.863-18.816,49.205-18.816c18.344,0,35.66,6.658,49.204,18.82
	l-19.972,19.973c-24.38,24.38-24.38,64.05,0.002,88.432l9.386,9.381c-11.5,7.098-24.762,10.908-38.616,10.908
	C113.569,214.551,100.154,210.719,88.613,203.634z M79.272,368.961c1.394-5,4.071-9.922,7.794-13.645
	c1.349-1.346,2.821-2.656,4.373-3.725c2.89,5.152,6.489,10.084,10.739,14.335c1.003,1.002,2.042,2.035,3.097,3.035H79.272z
	 M148.088,368.961c-13.059,0-25.319-5.272-34.522-14.474c-8.385-8.384-13.424-19.584-14.191-31.347
	c-0.075-1.169-0.112-2.283-0.112-3.303c0-3.76,0.423-7.483,1.244-11.069c6.216,14.39,15.156,27.809,26.569,39.223
	c8.245,8.245,17.426,14.97,27.299,20.97H148.088z M215.966,368.961c-2.617,0-5.22-0.299-7.806-0.48
	c1.396-4.929,4.003-9.494,7.671-13.163c1.396-1.393,2.893-2.672,4.471-3.748c2.886,5.14,6.478,10.087,10.719,14.33
	c1.003,1.003,2.042,2.06,3.097,3.06H215.966z M325.128,368.961h-27.449h-20.741c-13.063,0-25.325-5.272-34.526-14.473
	c-8.383-8.388-13.422-19.59-14.19-31.381c-0.072-1.067-0.109-2.2-0.109-3.268c0-26.922,21.908-48.851,48.837-48.851
	c7.884,0,15.709,1.905,22.635,5.534c11.126,5.822,19.406,15.948,23.359,27.8c1.693,5.064,2.184,10.263,2.184,15.466V368.961z
	 M325.128,277.125c-5-6.042-11.286-11.14-18.44-14.883c-9.218-4.831-19.445-7.384-29.922-7.384
	c-35.809,0-64.851,29.128-64.851,64.931c0,1.432,0.096,2.882,0.191,4.288c0.272,4.177,0.983,8.286,2.038,12.283
	c-3.51,2.02-6.751,4.51-9.708,7.461c-6.163,6.163-10.37,13.578-12.326,22.133c-20.146-4.466-38.664-14.584-53.647-29.567
	c-20.7-20.7-32.098-48.236-32.098-77.534c0-10.064,1.398-20.054,4.16-29.789c5.484,1.04,11.074,1.593,16.702,1.593
	c24.001,0,46.566-9.349,63.535-26.323l51.886-51.879c22.687,5.649,42.876,18.605,57.872,36.8
	c16.107,19.54,24.609,44.245,24.609,69.564V277.125z M342.128,323.633v-3.844v-41.857l37.622,12.77
	C369.758,303.749,357.128,315.033,342.128,323.633z"/>
<g>
</g>
<g>
</g>
<g>
</g>
<g>
</g>
<g>
</g>
<g>
</g>
<g>
</g>
<g>
</g>
<g>
</g>
<g>
</g>
<g>
</g>
<g>
</g>
<g>
</g>
<g>
</g>
<g>
</g>
<g>
</g>
</svg>
