<?xml version="1.0" encoding="iso-8859-1"?>
<!-- Generator: Adobe Illustrator 18.0.0, SVG Export Plug-In . SVG Version: 6.00 Build 0)  -->
<!DOCTYPE svg PUBLIC "-//W3C//DTD SVG 1.1//EN" "http://www.w3.org/Graphics/SVG/1.1/DTD/svg11.dtd">
<svg version="1.1" id="Capa_1" xmlns="http://www.w3.org/2000/svg" xmlns:xlink="http://www.w3.org/1999/xlink" x="0px" y="0px"
	 viewBox="0 0 468.618 468.618" style="enable-background:new 0 0 468.618 468.618;" xml:space="preserve">
<g>
	<path d="M146.652,176.979c-6.603,0-12.81,2.571-17.479,7.239c-4.669,4.669-7.24,10.877-7.24,17.479s2.571,12.811,7.24,17.478
		c4.669,4.669,10.876,7.241,17.479,7.241s12.81-2.572,17.479-7.24c4.668-4.669,7.24-10.876,7.24-17.479s-2.571-12.811-7.24-17.479
		C159.462,179.551,153.254,176.979,146.652,176.979z M152.816,207.863c-1.646,1.646-3.836,2.554-6.165,2.554
		s-4.518-0.907-6.166-2.555c-1.646-1.646-2.553-3.836-2.553-6.164c0-2.329,0.907-4.519,2.554-6.165
		c1.646-1.646,3.836-2.554,6.165-2.554s4.519,0.907,6.165,2.553c1.647,1.647,2.554,3.837,2.554,6.166
		S154.463,206.216,152.816,207.863z"/>
	<path d="M431.479,196.786c-3.622-38.038-33.707-65.836-72.803-65.836H214.809c-1.293-8.614-5.587-16.386-12.282-22.091
		l-6.089-5.189l-17.688,20.756l-8.99-8.99l-8.035,8.035l-16.874-19.802l-6.089,5.189c-13.437,11.45-16.391,30.692-7.904,45.479
		l-11.754,11.754l-51.197-19.655l16.915,50.818L0,139.818l51.364,94.014l-16.725,16.725l5.657,5.657
		c20.565,20.565,47.908,31.891,76.992,31.891c12.124,0,23.943-1.975,35.097-5.76c4.003,4.317,8.328,8.296,12.941,11.914v70.691
		h42.52h11.57h51.43v-45h54.21v45h44.79h9.3h52.7v-151.9c11.856,2.548,20.772,13.107,20.772,25.713v34.84h16v-34.84
		C468.618,217.186,452.376,199.342,431.479,196.786z M197.172,127.478c1.104,2.249,1.785,4.71,1.99,7.283
		c0.206,2.573-0.076,5.111-0.81,7.508l-7.985-6.806L197.172,127.478z M144.127,127.486l6.25,7.334l-7.431,7.431
		C141.461,137.371,141.885,132.07,144.127,127.486z M106.721,178.475l-8.466,8.466l-4.472-13.434L106.721,178.475z M45.692,190.08
		l29.469,19.955l-12.007,12.007L45.692,190.08z M57.505,250.318l1.853-1.853l0.12,0.219l111.167-109.005l59.137,58.404
		l-46.816,46.816c-17.543,17.544-40.868,27.205-65.678,27.205C95.165,272.104,74.221,264.421,57.505,250.318z M181.326,348.949
		v-44.22c8.374,4.509,17.246,7.919,26.52,10.165v34.055H181.326z M341.056,348.949v-29h28.79v29H341.056z M415.846,348.949h-30v-45
		h-131v45h-31v-47.228l-6.581-1.186c-12.405-2.235-24.058-6.803-34.64-13.577c-5.196-3.322-10.043-7.14-14.495-11.399
		c9.512-5.035,18.323-11.519,26.149-19.346l58.13-58.131l-42.63-42.63c1.669-2.67,2.96-5.528,3.871-8.504h145.025
		c15.888,0,30.417,5.834,40.911,16.429c10.485,10.585,16.259,25.21,16.259,41.182V348.949z"/>
</g>
<g>
</g>
<g>
</g>
<g>
</g>
<g>
</g>
<g>
</g>
<g>
</g>
<g>
</g>
<g>
</g>
<g>
</g>
<g>
</g>
<g>
</g>
<g>
</g>
<g>
</g>
<g>
</g>
<g>
</g>
</svg>
