<?xml version="1.0" encoding="iso-8859-1"?>
<!-- Generator: Adobe Illustrator 18.0.0, SVG Export Plug-In . SVG Version: 6.00 Build 0)  -->
<!DOCTYPE svg PUBLIC "-//W3C//DTD SVG 1.1//EN" "http://www.w3.org/Graphics/SVG/1.1/DTD/svg11.dtd">
<svg version="1.1" id="Capa_1" xmlns="http://www.w3.org/2000/svg" xmlns:xlink="http://www.w3.org/1999/xlink" x="0px" y="0px"
	 viewBox="0 0 365.858 365.858" style="enable-background:new 0 0 365.858 365.858;" xml:space="preserve">
<g>
	<path d="M353.792,220.542c-15.684-15.717-36.548-24.372-58.752-24.372c-18.916,0-36.86,6.307-51.461,17.893
		c-2.021-26.338-8.496-51.772-19.043-75.416c18.834-1.927,36.636-10.263,50.212-23.805l12.102-12.063l-12.076-12.096
		c-24.687-24.738-62.389-31.188-93.686-16.671c-1.734-1.816-3.489-3.617-5.289-5.384C132.773,26.398,75.907,3.139,15.673,3.139
		c-1.358,0-2.729,0.013-4.091,0.036L0,3.377L0.204,14.96c1.06,60.363,25.367,116.893,68.444,159.177
		c2.484,2.438,5.019,4.806,7.593,7.117c-12.277,30.603-5.277,65.879,18.304,89.511l12.062,12.1L118.7,270.79
		c13.189-13.153,21.369-29.885,23.684-48.021c23.843,9.735,49.345,15.388,75.619,16.604c-26.723,32.542-24.927,80.832,5.432,111.255
		l12.065,12.09l12.092-12.065c23.384-23.337,29.908-57.263,19.573-86.517c8.858,3.162,18.288,4.811,27.974,4.811
		c22.137,0,42.958-8.612,58.629-24.25l12.09-12.066L353.792,220.542z M263.449,101.989l0.764,0.765l-0.762,0.76
		c-12.408,12.377-29.193,19.35-46.596,19.548c-6.946-12.822-15.153-25.01-24.551-36.412
		C216.606,77.475,244.683,83.184,263.449,101.989z M228.121,223.627c-55.772-0.169-108.406-21.784-148.265-60.909
		c-1.798-1.765-3.549-3.565-5.276-5.383c42.59-6.572,76.805-40.606,82.918-83.933c2.405,2.158,4.772,4.37,7.092,6.647
		C203.589,118.329,226.046,169.169,228.121,223.627z M142.439,61.079c-0.831,44.551-36.299,80.253-80.779,81.354
		C33.91,107.277,18.052,64.466,16.326,19.14C62.297,19.279,106.129,34.002,142.439,61.079z M107.398,259.465l-0.765,0.763
		l-0.76-0.762c-17.778-17.816-23.884-43.825-16.547-67.304c11.823,9.136,24.418,17.033,37.623,23.618
		C126.054,232.303,119.227,247.667,107.398,259.465z M255.961,291.972c-0.019,17.896-7.005,34.715-19.672,47.355l-0.767,0.765
		l-0.764-0.765c-26.096-26.151-26.051-68.657,0.1-94.754l0.765-0.763l0.764,0.766C249.029,257.243,255.981,274.075,255.961,291.972z
		 M342.465,233.372c-12.648,12.623-29.456,19.575-47.326,19.575c-17.923,0-34.766-6.987-47.426-19.673l-0.765-0.767l0.767-0.764
		c12.648-12.623,29.456-19.574,47.325-19.574c17.924,0,34.767,6.986,47.427,19.674l0.764,0.766L342.465,233.372z"/>
	<path d="M73.754,105.957l0.435,0.003c18.169,0,33.141-14.783,33.373-32.955c0.235-18.406-14.547-33.572-32.953-33.808l-0.435-0.003
		c-18.169,0-33.141,14.784-33.373,32.956c-0.114,8.916,3.251,17.344,9.475,23.729C56.5,102.265,64.839,105.844,73.754,105.957z
		 M74.174,55.487h0.229c9.584,0,17.282,7.638,17.159,17.222c-0.121,9.462-7.915,16.778-17.374,16.778h-0.23
		c-4.643,0-8.984-1.614-12.226-4.939c-3.241-3.325-4.993-7.404-4.933-12.046C56.921,63.039,64.715,55.487,74.174,55.487z"/>
</g>
<g>
</g>
<g>
</g>
<g>
</g>
<g>
</g>
<g>
</g>
<g>
</g>
<g>
</g>
<g>
</g>
<g>
</g>
<g>
</g>
<g>
</g>
<g>
</g>
<g>
</g>
<g>
</g>
<g>
</g>
</svg>
