<?xml version="1.0" encoding="iso-8859-1"?>
<!-- Generator: Adobe Illustrator 18.0.0, SVG Export Plug-In . SVG Version: 6.00 Build 0)  -->
<!DOCTYPE svg PUBLIC "-//W3C//DTD SVG 1.1//EN" "http://www.w3.org/Graphics/SVG/1.1/DTD/svg11.dtd">
<svg version="1.1" id="Capa_1" xmlns="http://www.w3.org/2000/svg" xmlns:xlink="http://www.w3.org/1999/xlink" x="0px" y="0px"
	 viewBox="0 0 363.872 363.872" style="enable-background:new 0 0 363.872 363.872;" xml:space="preserve">
<g>
	<path d="M277.631,287.452c13.918,0,26.994-5.418,36.813-15.249c9.839-9.826,15.257-22.902,15.257-36.821h-16
		c0,9.641-3.751,18.697-10.57,25.507c-6.804,6.812-15.859,10.563-25.5,10.563c-19.884,0-36.06-16.181-36.06-36.07v-46.726
		c0.496-0.086,0.995-0.167,1.485-0.269c15.769-3.251,28.512-14.442,33.932-29.281h15.115c11.623,0,22.368-5.276,29.48-14.477
		c7.08-9.158,9.473-20.824,6.563-32.005C310.891,46.313,250.767,0,181.936,0C113.104,0,52.98,46.313,35.724,112.624
		c-2.91,11.181-0.518,22.846,6.563,32.005c7.112,9.2,17.857,14.477,29.48,14.477h15.129c5.66,15.397,19.278,26.726,35.404,29.55
		v46.726c0,19.89-16.176,36.07-36.069,36.07c-19.884,0-36.061-16.181-36.061-36.07h-16c0,28.712,23.354,52.07,52.07,52.07
		c28.706,0,52.06-23.358,52.06-52.07v-46.04h18.45v122.47c0,19.884-16.181,36.061-36.07,36.061c-9.634,0-18.687-3.751-25.496-10.571
		c-6.813-6.802-10.563-15.854-10.563-25.489h-16c0,13.912,5.418,26.985,15.25,36.804c9.825,9.839,22.897,15.257,36.81,15.257
		c28.712,0,52.07-23.354,52.07-52.061v-122.47h18.37v122.47c0,28.706,23.358,52.061,52.07,52.061
		c13.912,0,26.984-5.418,36.803-15.249c9.839-9.826,15.257-22.899,15.257-36.812h-16c0,9.635-3.751,18.688-10.571,25.497
		c-6.802,6.813-15.854,10.563-25.488,10.563c-19.89,0-36.07-16.177-36.07-36.061v-122.47h18.45v46.04
		C225.571,264.094,248.925,287.452,277.631,287.452z M243.09,143.105c-3.157-4.314-4.873-9.502-4.873-14.914
		c0-13.944,11.345-25.289,25.29-25.289c13.94,0,25.281,11.345,25.281,25.289c0,5.409-1.713,10.598-4.867,14.914H243.09z
		 M54.945,134.843c-4.027-5.21-5.389-11.839-3.736-18.189C66.63,57.391,120.388,16,181.936,16
		c61.548,0,115.306,41.391,130.728,100.653c1.652,6.35,0.29,12.979-3.737,18.189c-1.652,2.136-3.65,3.894-5.882,5.237
		c1.145-3.817,1.744-7.814,1.744-11.889c0-22.767-18.519-41.289-41.281-41.289c-22.768,0-41.29,18.522-41.29,41.289
		c0,5.167,0.961,10.208,2.784,14.914H71.767C65.137,143.105,59.005,140.094,54.945,134.843z M104.604,159.105h154.675
		c-4.27,6.895-11.229,11.915-19.468,13.614c-1.982,0.413-4.041,0.622-6.119,0.622h-103.51
		C119.585,173.342,109.985,167.725,104.604,159.105z"/>
	<path d="M116.213,69.665c-18.227,0-33.056,14.829-33.056,33.056c0,18.228,14.829,33.057,33.056,33.057
		c18.228,0,33.057-14.829,33.057-33.057C149.269,84.494,134.44,69.665,116.213,69.665z M116.213,119.777
		c-9.404,0-17.056-7.651-17.056-17.057c0-9.404,7.651-17.056,17.056-17.056c9.405,0,17.057,7.651,17.057,17.056
		C133.269,112.126,125.618,119.777,116.213,119.777z"/>
	<path d="M199.115,21.281c-15.822,0-28.694,12.872-28.694,28.693c0,15.822,12.872,28.694,28.694,28.694
		c15.821,0,28.693-12.872,28.693-28.694C227.808,34.153,214.936,21.281,199.115,21.281z M199.115,62.669
		c-7,0-12.694-5.694-12.694-12.694c0-6.999,5.694-12.693,12.694-12.693c6.999,0,12.693,5.694,12.693,12.693
		C211.808,56.975,206.114,62.669,199.115,62.669z"/>
</g>
<g>
</g>
<g>
</g>
<g>
</g>
<g>
</g>
<g>
</g>
<g>
</g>
<g>
</g>
<g>
</g>
<g>
</g>
<g>
</g>
<g>
</g>
<g>
</g>
<g>
</g>
<g>
</g>
<g>
</g>
</svg>
