<?xml version="1.0" encoding="iso-8859-1"?>
<!-- Generator: Adobe Illustrator 18.0.0, SVG Export Plug-In . SVG Version: 6.00 Build 0)  -->
<!DOCTYPE svg PUBLIC "-//W3C//DTD SVG 1.1//EN" "http://www.w3.org/Graphics/SVG/1.1/DTD/svg11.dtd">
<svg version="1.1" id="Capa_1" xmlns="http://www.w3.org/2000/svg" xmlns:xlink="http://www.w3.org/1999/xlink" x="0px" y="0px"
	 viewBox="0 0 451.362 451.362" style="enable-background:new 0 0 451.362 451.362;" xml:space="preserve">
<g>
	<path d="M388.712,273.724h-6.142c-21.041-100.306-119.042-167.396-221.755-150.382l-11.349,1.881
		c-15.568-11.456-34.778-18.235-55.545-18.235C42.132,106.988,0,149.12,0,200.908v59.622c0,18.911,15.386,34.297,34.297,34.297
		h20.601c-7.706,11.483-11.896,25.072-11.896,39.028v8h70.07c7.766,0,15.371-1.272,22.65-3.763
		c15.993,4.153,32.533,6.283,49.22,6.283h266.42v-8C451.362,301.829,423.258,273.724,388.712,273.724z M30.685,184.827
		c8.082,0,14.657,6.575,14.657,14.657c0,8.081-6.575,14.656-14.657,14.656c-8.047,0-14.596-6.52-14.652-14.554
		c0.002-0.137,0.007-0.274,0.01-0.411C16.21,191.237,22.708,184.827,30.685,184.827z M16,260.53v-34.144
		c4.364,2.391,9.368,3.754,14.685,3.754c16.904,0,30.657-13.752,30.657-30.656s-13.752-30.657-30.657-30.657
		c-2.863,0-5.632,0.403-8.262,1.14c11.996-27.613,39.522-46.979,71.497-46.979c42.965,0,77.919,34.955,77.919,77.92
		s-34.955,77.919-77.919,77.919H34.297C24.208,278.827,16,270.619,16,260.53z M67.337,305.018
		c10.816,8.177,22.326,15.135,34.45,20.837H59.598C60.706,318.448,63.345,311.347,67.337,305.018z M378.702,328.375h-10.29h-47.234
		c-3.985-34.881-33.669-62.068-69.599-62.068h-18.202v16h18.202c27.096,0,49.602,20.034,53.478,46.068h-53.517
		c-29.797-0.021-54.032-24.268-54.032-54.068v-23.022h-16v23.022c0,21.744,9.956,41.206,25.549,54.068h-22.116
		c-16.128,0-32.108-2.138-47.498-6.355c-20.584-5.635-39.689-14.769-56.968-27.192H93.92c51.787,0,93.919-42.132,93.919-93.919
		c0-23.71-8.835-45.392-23.381-61.938c95.948-15.334,187.165,49.122,203.63,144.117c0.891,5.15,1.563,10.432,1.998,15.67
		c0.075,0.958,0.152,1.928,0.21,2.886l15.971-0.957c-0.063-1.062-0.147-2.133-0.233-3.223c-0.214-2.581-0.488-5.165-0.804-7.739
		h3.482c22.996,0,42.159,16.726,45.964,38.65H378.702z"/>
	<path d="M123.698,234.198c0-16.904-13.752-30.657-30.657-30.657s-30.657,13.753-30.657,30.657s13.752,30.656,30.657,30.656
		S123.698,251.102,123.698,234.198z M93.041,248.854c-8.082,0-14.657-6.575-14.657-14.656c0-8.082,6.575-14.657,14.657-14.657
		s14.657,6.575,14.657,14.657C107.698,242.279,101.123,248.854,93.041,248.854z"/>
</g>
<g>
</g>
<g>
</g>
<g>
</g>
<g>
</g>
<g>
</g>
<g>
</g>
<g>
</g>
<g>
</g>
<g>
</g>
<g>
</g>
<g>
</g>
<g>
</g>
<g>
</g>
<g>
</g>
<g>
</g>
</svg>
