<?xml version="1.0" encoding="iso-8859-1"?>
<!-- Generator: Adobe Illustrator 18.0.0, SVG Export Plug-In . SVG Version: 6.00 Build 0)  -->
<!DOCTYPE svg PUBLIC "-//W3C//DTD SVG 1.1//EN" "http://www.w3.org/Graphics/SVG/1.1/DTD/svg11.dtd">
<svg version="1.1" id="Capa_1" xmlns="http://www.w3.org/2000/svg" xmlns:xlink="http://www.w3.org/1999/xlink" x="0px" y="0px"
	 viewBox="0 0 428.284 428.284" style="enable-background:new 0 0 428.284 428.284;" xml:space="preserve">
<g>
	<path d="M428.284,179.996c0-17.401-14.124-31.557-31.525-31.557c-0.785,0-1.55,0.035-2.329,0.092
		c-4.749-16.805-13.726-32.391-26.414-45.079c-19.557-19.557-45.55-30.512-73.206-30.512H174.268
		c-26.106,0-50.841,9.854-69.954,27.469c-17.047,2.34-32.8,10.218-45.217,22.637L8.865,174.256C3.148,180.173,0,187.981,0,196.201
		c0,17.4,14.156,31.568,31.557,31.568c5.626,0,11.048-1.469,15.807-4.233l11.646,11.786c12.662,12.663,29.213,20.521,46.213,22.655
		v38.125c0,13.828,9,25.488,22,28.88v22.636c0,4.267,3.732,7.727,8,7.727c4.268,0,8-3.46,8-7.727v-22.636
		c6-1.506,10.481-4.639,14.337-8.87c3.696,4.109,8.663,7.178,13.663,8.731v22.775c0,4.267,3.732,7.727,8,7.727
		c4.268,0,8-3.46,8-7.727v-22.543c5-1.305,9.693-3.99,13.546-7.873c5.583-5.637,8.454-13.131,8.454-21.1v-16.163h84v16.163
		c0,13.828,10,25.488,23,28.88v22.636c0,4.267,3.232,7.727,7.5,7.727s7.5-3.46,7.5-7.727v-22.636c6-1.506,10.984-4.641,14.84-8.874
		c3.696,4.107,9.16,7.176,14.16,8.732v22.778c0,4.267,3.232,7.727,7.5,7.727s7.5-3.46,7.5-7.727v-22.571
		c13-3.311,23-15.043,23-28.945v-84.589C414.222,210.697,428.284,196.873,428.284,179.996z M48.202,202.524l-5.462,5.278
		c-3.02,2.917-6.992,4.525-11.183,4.525c-8.879,0-16.103-7.224-16.103-16.102c0-4.192,1.607-8.163,4.482-11.139l50.139-51.071
		c12.071-12.071,28.12-18.718,45.192-18.718c17.071,0,33.12,6.647,45.155,18.682l50.305,50.973c2.973,3.03,4.61,7.034,4.61,11.273
		c0,8.879-7.224,16.102-16.103,16.102c-4.239,0-8.243-1.637-11.273-4.61l-5.463-5.36l-22.04,22.04
		c-12.071,12.071-28.12,18.718-45.191,18.718c-17.071,0-33.121-6.647-45.192-18.718L48.202,202.524z M134.722,310.528
		c-8.095,0-14.5-6.471-14.5-14.426v-30.557c10,5.457,20,9.513,29,11.982v18.575C149.222,304.057,142.818,310.528,134.722,310.528z
		 M323.722,310.528c-8.095,0-14.5-6.471-14.5-14.426V279.35c10-1.439,20-4.366,29-8.771v25.523
		C338.222,304.057,331.818,310.528,323.722,310.528z M382.222,296.102c0,7.928-5.735,13.837-13.641,13.837h-0.032
		c-7.853,0-14.326-5.907-14.326-13.837v-38.118v-14.155l-11.732,7.241c-14.964,9.203-30.977,13.869-47.68,13.869H193.222v31.163
		c0,3.87-0.918,7.501-3.611,10.22c-2.691,2.712-6.273,4.206-10.105,4.206c-7.882,0-14.284-6.471-14.284-14.426V271.12v-6.401
		l-6.141-1.105c-8.264-1.424-16.118-4.025-23.591-7.671c13.405-3.533,25.764-10.554,35.827-20.618l11.91-11.876
		c4.795,2.824,10.292,4.331,15.989,4.331c17.401,0,31.565-14.156,31.565-31.556c0-8.311-3.204-16.158-9.044-22.112l-50.355-51.026
		c-11.615-11.615-26.195-19.094-42.034-21.914c13.456-8.027,28.883-12.233,44.919-12.233H294.81
		c23.528,0,45.311,9.075,61.949,25.713c16.638,16.637,25.463,38.67,25.463,62.198V296.102z M398.222,196.019V176.85
		c0-4.354-0.203-8.666-0.729-12.919c8.522,0.404,15.304,7.444,15.304,16.064C412.797,188.348,406.222,195.232,398.222,196.019z"/>
	<path d="M78.692,148.44c-17.401,0-31.557,14.156-31.557,31.557c0,17.4,14.156,31.556,31.557,31.556s31.557-14.156,31.557-31.556
		C110.248,162.596,96.092,148.44,78.692,148.44z M78.692,196.099c-8.879,0-16.103-7.224-16.103-16.102
		c0-8.879,7.224-16.103,16.103-16.103s16.103,7.224,16.103,16.103C94.794,188.876,87.571,196.099,78.692,196.099z"/>
	<path d="M147.207,211.553c17.401,0,31.557-14.156,31.557-31.556c0-17.401-14.156-31.557-31.557-31.557
		s-31.557,14.156-31.557,31.557C115.651,197.397,129.807,211.553,147.207,211.553z M147.207,163.894
		c8.879,0,16.103,7.224,16.103,16.103c0,8.879-7.224,16.102-16.103,16.102c-8.879,0-16.103-7.224-16.103-16.102
		C131.105,171.118,138.328,163.894,147.207,163.894z"/>
</g>
<g>
</g>
<g>
</g>
<g>
</g>
<g>
</g>
<g>
</g>
<g>
</g>
<g>
</g>
<g>
</g>
<g>
</g>
<g>
</g>
<g>
</g>
<g>
</g>
<g>
</g>
<g>
</g>
<g>
</g>
</svg>
