<?xml version="1.0" encoding="iso-8859-1"?>
<!-- Generator: Adobe Illustrator 18.0.0, SVG Export Plug-In . SVG Version: 6.00 Build 0)  -->
<!DOCTYPE svg PUBLIC "-//W3C//DTD SVG 1.1//EN" "http://www.w3.org/Graphics/SVG/1.1/DTD/svg11.dtd">
<svg version="1.1" id="Capa_1" xmlns="http://www.w3.org/2000/svg" xmlns:xlink="http://www.w3.org/1999/xlink" x="0px" y="0px"
	 viewBox="0 0 385.4 385.4" style="enable-background:new 0 0 385.4 385.4;" xml:space="preserve">
<path d="M355.032,273.487c19.638-22.416,30.368-50.841,30.368-80.919c0-32.854-12.794-63.74-36.024-86.971
	c-23.231-23.23-54.118-36.024-86.97-36.024c-32.854,0-63.74,12.794-86.971,36.024c-21.054,21.054-32.862,47.905-35.429,75.463
	c-0.632-0.45-1.277-0.882-1.934-1.297v-25.928c0-17.877-14.54-32.421-32.411-32.421h-9.136c-3.636-11.505-14.409-19.87-27.101-19.87
	c-8.052,0-15.327,3.372-20.503,8.771c-5.176-5.399-12.451-8.771-20.503-8.771C12.748,101.545,0,114.292,0,129.961
	c0,15.669,12.748,28.417,28.417,28.417c8.052,0,15.327-3.372,20.503-8.772c5.176,5.399,12.451,8.772,20.503,8.772
	c6.383,0,12.28-2.116,17.029-5.682c0.028,0.378,0.055,0.756,0.055,1.139v30.484c-0.486,0.443-0.965,0.893-1.428,1.355
	c-8.07,8.071-12.514,18.796-12.514,30.2c0,26.697,10.397,51.797,29.275,70.677c18.88,18.879,43.98,29.275,70.677,29.275h82.867
	c0,0,9.223-0.278,10.319-0.307c31.618-0.826,61.221-13.529,83.673-35.981C350.432,278.483,355.032,273.487,355.032,273.487z
	 M120.986,153.835v19.714c-1.878-0.25-3.779-0.39-5.706-0.39c-4.002,0-7.924,0.547-11.686,1.615v-20.939
	c0-5.443-1.332-10.677-3.84-15.335h5.908C114.111,138.5,120.986,145.38,120.986,153.835z M28.417,141.292
	c-6.248,0-11.331-5.083-11.331-11.331c0-6.248,5.083-11.33,11.331-11.33s11.331,5.082,11.331,11.33
	C39.748,136.209,34.665,141.292,28.417,141.292z M69.423,141.292c-6.248,0-11.331-5.083-11.331-11.331
	c0-6.248,5.083-11.33,11.331-11.33s11.331,5.082,11.331,11.33C80.754,136.209,75.671,141.292,69.423,141.292z M173.609,298.741
	c-22.253,0-43.833-8.467-59.593-24.178c-15.711-15.662-24.365-36.511-24.365-58.689c0-6.841,2.667-13.276,7.508-18.117
	c0.911-0.909,1.905-1.764,2.956-2.537c4.422-3.255,9.666-4.975,15.165-4.975c3.74,0,7.33,0.782,10.689,2.332
	c6.36,2.917,11.308,8.384,13.575,15.008c0.154,0.45,0.314,0.904,0.478,1.365c0.591,1.656,1.024,3.365,1.329,5.097
	c4.223,24.005,15.58,46.988,34.084,65.493c7.525,7.525,15.857,13.947,24.796,19.202H173.609z M187.517,267.457
	c-41.294-41.294-41.294-108.484,0-149.778c20.003-20.003,46.599-31.02,74.889-31.02c28.289,0,54.885,11.017,74.888,31.02
	c20.003,20.003,31.02,46.599,31.02,74.889c0,26.774-9.874,52.028-27.889,71.615c-27.81,25.044-70.82,24.186-97.585-2.581
	c-21.457-21.457-21.457-56.372,0.001-77.83c16.499-16.5,43.347-16.501,59.848-0.001c12.534,12.533,12.535,32.927,0.002,45.46
	c-9.359,9.359-24.59,9.358-33.951-0.003c-6.822-6.824-6.819-17.927,0.007-24.753l-12.082-12.082
	c-13.487,13.488-13.49,35.431-0.007,48.916c16.023,16.022,42.093,16.023,58.115,0.003c19.194-19.196,19.193-50.428-0.002-69.624
	c-23.164-23.161-60.852-23.16-84.012,0.001c-28.12,28.12-28.12,73.874-0.001,101.994c12.699,12.699,28.347,20.693,44.759,23.994
	c-4.317,0.53-8.693,0.798-13.111,0.798C234.116,298.477,207.52,287.461,187.517,267.457z"/>
<g>
</g>
<g>
</g>
<g>
</g>
<g>
</g>
<g>
</g>
<g>
</g>
<g>
</g>
<g>
</g>
<g>
</g>
<g>
</g>
<g>
</g>
<g>
</g>
<g>
</g>
<g>
</g>
<g>
</g>
</svg>
