<?xml version="1.0" encoding="iso-8859-1"?>
<!-- Generator: Adobe Illustrator 18.0.0, SVG Export Plug-In . SVG Version: 6.00 Build 0)  -->
<!DOCTYPE svg PUBLIC "-//W3C//DTD SVG 1.1//EN" "http://www.w3.org/Graphics/SVG/1.1/DTD/svg11.dtd">
<svg version="1.1" id="Capa_1" xmlns="http://www.w3.org/2000/svg" xmlns:xlink="http://www.w3.org/1999/xlink" x="0px" y="0px"
	 viewBox="0 0 376.731 376.731" style="enable-background:new 0 0 376.731 376.731;" xml:space="preserve">
<g>
	<path d="M376.729,159.843c-0.113-8.755-4.12-16.86-10.563-22.316c4.004-7.437,4.788-16.425,1.716-24.604
		c-3.062-8.14-9.55-14.376-17.431-17.342c1.215-8.324-1.1-17.014-6.736-23.635c-7.73-9.063-19.77-12.319-30.557-9.341
		c-0.109-11.19-6.557-21.869-17.399-26.808c-10.423-4.735-22.176-2.924-30.625,3.679c-4.948-9.541-14.761-16.079-26.23-16.079
		c-16.38,0-29.554,13.326-29.554,29.706v71.607c-7,1.162-13.296,1.765-19.975,1.765c-9.891,0-19.714-1.295-29.143-3.814
		c0.03-0.825,0.022-1.65,0.022-2.48c0-17.734-6.925-34.408-19.465-46.948c-4.135-4.135-8.735-7.643-13.659-10.507
		c1.287-14.543-7.893-28.451-22.439-32.571c-7.97-2.259-16.345-1.279-23.577,2.759c-7.235,4.039-12.464,10.654-14.719,18.619
		c-0.806,2.836-1.186,5.768-1.168,8.695c-6.724,3.213-12.926,7.579-18.352,13.004L0,120.181l29.349,29.277v59.535
		c0,10.931,5.767,20.885,15.144,26.045c9.652,42.976,40.856,77.027,79.856,91.958v26.339h16v-21.467c3,0.617,6,1.151,8,1.601v19.866
		h17v-18.222c1,0.066,3.139,0.105,4.835,0.105c34.317,0,66.464-13.363,90.729-37.628c23.04-23.041,36.185-53.292,37.46-85.663
		l34.472,11.041c2.997,0.958,6.02,1.413,9.011,1.413c12.574,0,24.279-8.054,28.317-20.658c2.453-7.675,1.66-15.808-1.927-22.713
		C373.699,175.454,376.829,167.907,376.729,159.843z M340.079,109.728c5.65,0,10.783,3.556,12.772,8.844
		c1.549,4.126,0.966,8.699-1.367,12.288c-1.59-0.24-3.206-0.357-4.844-0.338l-66.537,0.849l55.174-20.763
		C336.826,110.024,338.442,109.728,340.079,109.728z M312.251,80.831c5.726-4.883,14.36-4.195,19.242,1.528
		c2.817,3.311,3.831,7.747,2.911,11.866c-1.623,0.318-3.224,0.767-4.787,1.357l-62.089,23.365L312.251,80.831z M271.036,57.188
		c3.114-6.849,11.225-9.888,18.074-6.775c6.851,3.12,9.892,11.232,6.778,18.081l-3.85,8.468l-38.129,32.496l-7.141,1.198
		c-0.026,0.015-0.053,0.03-0.079,0.045L271.036,57.188z M225.349,53.102c0-7.526,5.974-13.649,13.5-13.649
		c7.526,0,13.5,6.123,13.5,13.649v6.274l-27,59.992V53.102z M88.939,46.935c3.488-1.947,7.526-2.419,11.371-1.331
		c5.168,1.464,8.917,5.497,10.292,10.321c-5.413-1.404-11.039-2.138-16.779-2.138c-3.935,0-7.813,0.359-11.61,1.025
		C83.444,51.465,85.792,48.691,88.939,46.935z M58.229,84.588c9.507-9.507,22.148-14.743,35.593-14.743s26.086,5.236,35.593,14.743
		s14.743,22.148,14.743,35.593s-5.236,26.086-14.743,35.593c-9.507,9.507-22.148,14.743-35.593,14.743s-26.086-5.236-35.593-14.743
		l-35.593-35.593L58.229,84.588z M81.349,185.407c4,0.764,8.065,1.167,12.284,1.167c5.067,0,9.716-0.583,14.716-1.681v43.224
		c0,7.526-5.97,13.649-13.492,13.649c-7.53,0-13.508-6.123-13.508-13.649V185.407z M46.927,167.128
		c5.455,5.455,12.422,9.84,18.422,13.058v40.846c-2,1.047-4.161,1.617-6.423,1.617c-1.576,0-3.076-0.264-4.537-0.786
		c-5.431-1.937-9.04-7.109-9.04-12.871v-43.478L46.927,167.128z M249.443,286.235c-21.232,21.233-49.462,32.926-79.49,32.926
		c-50.228,0-93.968-33.317-107.856-80.631c1.63-0.175,3.236-0.478,4.802-0.914c3.973,11.735,14.887,20.207,27.949,20.207
		c16.375,0,29.5-13.326,29.5-29.706v-49.156c6-3.076,11.429-7.039,16.223-11.833c8.067-8.067,13.886-17.849,16.951-28.519
		c10.277,2.602,20.918,3.923,31.65,3.923c21.145,0,41.93-5.193,60.447-15.068c21.107,21.202,32.737,49.344,32.737,79.281
		C282.357,236.772,270.676,265.002,249.443,286.235z M354.873,198.828c-2.297,7.169-9.998,11.134-17.164,8.845l-39.823-12.743
		c-0.96-10.598-3.208-20.925-6.669-30.798l54.819,17.538c2.1,0.67,3.947,1.797,5.495,3.355
		C355.151,188.66,356.432,193.952,354.873,198.828z M357.257,169.26c-1.988-1.203-4.116-2.178-6.334-2.886l-59.66-19.087
		l55.577-0.709c1.637-0.036,3.22,0.239,4.743,0.787c5.363,1.894,9.016,6.992,9.089,12.681
		C360.716,163.507,359.464,166.764,357.257,169.26z"/>
	<path d="M134.349,228.538c0,36.61,29.89,66.299,66.5,66.299c36.609,0,66.5-29.879,66.5-66.489v-66.013h-66.606
		C164.133,162.335,134.349,191.929,134.349,228.538z M251.349,228.348c0,27.756-22.716,50.395-50.471,50.395
		c-27.756,0-50.317-22.477-50.317-50.233s22.426-50.174,50.182-50.174h50.606V228.348z"/>
	<path d="M92.55,151.197c8.285,0,16.074-3.226,21.932-9.085c12.093-12.093,12.093-31.771,0-43.865
		c-5.858-5.858-13.647-9.084-21.932-9.084s-16.074,3.226-21.932,9.084c-12.093,12.094-12.093,31.772,0,43.865
		C76.476,147.971,84.265,151.197,92.55,151.197z M81.972,109.602c2.826-2.826,6.582-4.381,10.578-4.381
		c3.996,0,7.753,1.556,10.578,4.381c5.833,5.832,5.833,15.323,0,21.156c-2.825,2.826-6.582,4.382-10.578,4.382
		c-3.996,0-7.753-1.556-10.578-4.382C76.139,124.926,76.139,115.435,81.972,109.602z"/>
</g>
<g>
</g>
<g>
</g>
<g>
</g>
<g>
</g>
<g>
</g>
<g>
</g>
<g>
</g>
<g>
</g>
<g>
</g>
<g>
</g>
<g>
</g>
<g>
</g>
<g>
</g>
<g>
</g>
<g>
</g>
</svg>
