<?xml version="1.0" encoding="iso-8859-1"?>
<!-- Generator: Adobe Illustrator 18.0.0, SVG Export Plug-In . SVG Version: 6.00 Build 0)  -->
<!DOCTYPE svg PUBLIC "-//W3C//DTD SVG 1.1//EN" "http://www.w3.org/Graphics/SVG/1.1/DTD/svg11.dtd">
<svg version="1.1" id="Capa_1" xmlns="http://www.w3.org/2000/svg" xmlns:xlink="http://www.w3.org/1999/xlink" x="0px" y="0px"
	 viewBox="0 0 465.708 465.708" style="enable-background:new 0 0 465.708 465.708;" xml:space="preserve">
<g>
	<path d="M465.708,232.847l-30.725-30.729l0.002-0.002l-32.908-32.909l-24.034-24.037c-5.31-5.375-11.123-9.938-13.577-11.753
		c-21.583-15.965-47.113-24.568-74.102-24.568c-26.707,0-52.059,8.333-73.43,24.078c-0.377,0.278-0.763,0.538-1.137,0.821
		c-0.021,0.016-0.041,0.032-0.061,0.048c0,0-7.878,6.124-13.057,11.374l-37.903,37.907l-18.633,18.633l0.001,0.001l-19.896,19.898
		c-11.074-9.525-25.026-14.735-39.786-14.735c-16.332,0-31.682,6.359-43.222,17.905L0,268.007l43.237,43.225
		c11.542,11.548,26.893,17.907,43.224,17.907c16.331,0,31.684-6.359,43.23-17.906l20.579-20.578v66.18h85.09v-12.844
		c17.297,8.573,36.144,12.869,54.995,12.869c18.855,0,37.708-4.298,55.01-12.875v12.852h85.09v-77.09
		c0-3.526-0.436-6.993-1.283-10.364L465.708,232.847z M158.947,254.034l-13.228-13.227h29.98
		C169.054,243.739,163.295,248.32,158.947,254.034z M145.676,224.807l12.377-12.378c5.965,3.847,12.909,5.917,20.177,5.917
		c20.586,0,37.335-16.749,37.335-37.335c0-7.269-2.071-14.215-5.919-20.181l4.346-4.347c1.109-1.109,2.256-2.19,3.42-3.258
		c13.624,27.392,41.67,45.135,72.952,45.135c31.279,0,59.321-17.742,72.944-45.134c1.163,1.067,2.309,2.147,3.416,3.254l4.738,4.738
		c-3.689,5.883-5.674,12.694-5.674,19.792c0,20.586,16.751,37.335,37.342,37.335c7.088,0,13.894-1.985,19.78-5.673l12.133,12.134
		H145.676z M199.565,181.011c0,11.764-9.571,21.335-21.335,21.335c-2.932,0-5.773-0.587-8.39-1.706l28.02-28.02
		C198.979,175.237,199.565,178.079,199.565,181.011z M232.22,141.817c0.249-0.16,0.496-0.324,0.746-0.482
		c34.914-21.91,79.872-21.911,114.771-0.013c0.264,0.166,0.525,0.339,0.787,0.508c0.633,0.405,1.259,0.825,1.886,1.245
		c-10.33,23.721-33.773,39.285-60.045,39.285c-26.277,0-49.722-15.563-60.052-39.285
		C230.946,142.651,231.579,142.227,232.22,141.817z M411.062,200.823c-2.494,0.999-5.177,1.522-7.932,1.522
		c-11.768,0-21.342-9.571-21.342-21.335c0-2.761,0.523-5.448,1.521-7.942l7.33,7.33L411.062,200.823z M435.122,240.807
		l-13.272,13.272c-1.175-1.549-2.462-3.024-3.856-4.419c-3.784-3.783-8.159-6.755-12.911-8.853H435.122z M118.378,299.92
		c-8.525,8.524-19.86,13.219-31.917,13.219c-12.057,0-23.388-4.694-31.91-13.22l-31.921-31.912l31.923-31.915
		c8.52-8.523,19.851-13.218,31.908-13.218c11.165,0,21.706,4.033,29.975,11.398l33.795,33.795L118.378,299.92z M219.361,340.835
		h-53.09v-61.09c0-14.637,11.908-26.545,26.545-26.545c14.637,0,26.545,11.908,26.545,26.545V340.835z M235.361,325.796v-46.052
		c0-17.372-10.471-32.337-25.429-38.938h160.856c-14.954,6.603-25.421,21.568-25.421,38.94v46.051
		C311.512,345.882,269.215,345.878,235.361,325.796z M414.456,340.836h-53.09v-61.09c0-14.64,11.906-26.55,26.54-26.55
		c7.091,0,13.758,2.762,18.772,7.776c2.617,2.618,4.62,5.677,5.956,9.095l0.005,0.011l-0.001,0c1.206,3.073,1.817,6.326,1.817,9.667
		V340.836z"/>
	<path d="M85.899,241.091c-15.697,0-28.468,12.771-28.468,28.468s12.771,28.468,28.468,28.468s28.468-12.771,28.468-28.468
		S101.597,241.091,85.899,241.091z M85.899,282.026c-6.875,0-12.468-5.593-12.468-12.468s5.593-12.468,12.468-12.468
		s12.468,5.593,12.468,12.468S92.774,282.026,85.899,282.026z"/>
</g>
<g>
</g>
<g>
</g>
<g>
</g>
<g>
</g>
<g>
</g>
<g>
</g>
<g>
</g>
<g>
</g>
<g>
</g>
<g>
</g>
<g>
</g>
<g>
</g>
<g>
</g>
<g>
</g>
<g>
</g>
</svg>
