<?xml version="1.0" encoding="iso-8859-1"?>
<!-- Generator: Adobe Illustrator 18.0.0, SVG Export Plug-In . SVG Version: 6.00 Build 0)  -->
<!DOCTYPE svg PUBLIC "-//W3C//DTD SVG 1.1//EN" "http://www.w3.org/Graphics/SVG/1.1/DTD/svg11.dtd">
<svg version="1.1" id="Capa_1" xmlns="http://www.w3.org/2000/svg" xmlns:xlink="http://www.w3.org/1999/xlink" x="0px" y="0px"
	 viewBox="0 0 441.15 441.15" style="enable-background:new 0 0 441.15 441.15;" xml:space="preserve">
<path d="M414.352,325.683H361.82c-24.417,0-44.283-19.865-44.283-44.283c0,0-0.002-122.11-0.01-122.342
	c-0.18-26.036-10.495-50.485-29.054-68.854c-18.611-18.422-43.236-28.442-69.376-28.332c-32.363,0.183-62.514,16.553-80.651,43.786
	c-10.897,16.345-16.657,35.392-16.657,55.079v119.299c0,22.075-15.835,40.237-37.001,43.681
	c-4.609-10.068-14.773-17.084-26.55-17.084c-12.012,0-22.349,7.295-26.823,17.686h-4.625c-7.168,0-13.897,2.789-18.942,7.848
	C2.787,337.226,0,343.957,0,351.117c0,14.771,12.018,26.789,26.789,26.789h50.716c22.259,0,43.236-7.281,60.665-21.058
	c16.283-12.871,27.867-30.176,33.499-50.037c2.466-8.677,3.716-17.686,3.716-26.775V159.751c0-8.762,2.563-17.232,7.417-24.505
	c5.159-7.745,12.779-13.788,21.455-17.016c5.074-1.887,10.406-2.854,15.855-2.763c4.31,0.038,8.547,0.707,12.616,1.994
	c8.767,2.747,16.678,8.402,22.277,15.922c5.853,7.866,8.946,17.214,8.946,27.031V281.4c0,6.558,0.655,13.126,1.948,19.53
	c4.128,20.354,14.436,38.556,29.805,52.634c15.434,14.157,34.558,22.844,55.3,25.123c3.56,0.393,7.199,0.592,10.816,0.592h52.532
	c7.162,0,13.892-2.787,18.951-7.847c5.061-5.06,7.848-11.79,7.848-18.951C441.15,337.705,429.128,325.683,414.352,325.683z
	 M344.83,361.505c-11.686-2.451-22.594-7.413-32.157-14.627l14.703-16.047c5.913,4.133,12.591,7.237,19.785,9.041L344.83,361.505z
	 M280.385,289.836c-0.286-2.801-0.435-5.619-0.435-8.436v-23.344l21.586-0.081l0.002,23.426c0,1.392,0.065,2.768,0.158,4.136
	L280.385,289.836z M301.531,196.724l-21.581,0.081v-29.19l21.579-0.266L301.531,196.724z M279.316,151.622
	c-1.065-7.447-3.48-14.582-7.169-21.146l17.431-13.317c6.343,10.355,10.284,21.984,11.524,34.194L279.316,151.622z M279.95,212.805
	l21.582-0.081l0.002,29.25l-21.584,0.081V212.805z M147.648,121.412l17.849,11.914c-3.403,6.949-5.43,14.48-5.965,22.246
	l-21.579,0.081C138.68,143.624,141.98,131.985,147.648,121.412z M158.066,294.691l-20.926-5.788
	c0.428-2.912,0.648-5.874,0.648-8.867v-17.879l21.597-0.081v17.96C159.384,284.971,158.937,289.873,158.066,294.691z
	 M159.384,246.075l-21.597,0.081v-29.251l21.597-0.081V246.075z M159.384,200.824l-21.597,0.081v-29.251l21.597-0.081V200.824z
	 M58.236,322.633c7.272,0,13.189,5.917,13.189,13.189s-5.917,13.189-13.189,13.189s-13.189-5.917-13.189-13.189
	S50.964,322.633,58.236,322.633z M16,351.117c0-2.887,1.123-5.6,3.168-7.646c2.028-2.033,4.735-3.153,7.621-3.153h2.605
	c1.469,9.461,7.501,17.427,15.765,21.588h-18.37C20.84,361.906,16,357.066,16,351.117z M71.314,361.906
	c8.492-4.275,14.619-12.573,15.868-22.377c7.425-1.195,14.498-3.757,20.919-7.55l13.583,16.992
	c-13.156,8.477-28.272,12.935-44.18,12.935H71.314z M134.242,339.057l-13.557-16.959c0.019-0.019,0.039-0.037,0.058-0.057
	c5.089-5.236,9.103-11.252,11.965-17.762l20.977,5.802C149.378,321.043,142.785,330.87,134.242,339.057z M174.381,120.019
	l-17.869-11.927c7.53-9.251,16.853-16.644,27.266-21.803l7.586,20.261C184.967,109.976,179.186,114.561,174.381,120.019z
	 M206.352,100.949l-7.607-20.316c6.599-1.771,13.458-2.722,20.442-2.761c0.162-0.001,0.322-0.002,0.483-0.002
	c5.513,0,10.943,0.55,16.233,1.614l-6.273,20.819c-3.083-0.521-6.214-0.806-9.37-0.835
	C215.544,99.415,210.893,99.918,206.352,100.949z M244.9,105.087l6.301-20.913c9.58,4.01,18.402,9.865,26.016,17.401
	c0.93,0.921,1.832,1.862,2.713,2.819l-17.374,13.274C257.453,112.446,251.442,108.163,244.9,105.087z M283.566,305.516l21.332-4.304
	c2.419,6.93,6.062,13.289,10.681,18.811l-14.7,16.043C292.913,327.22,287.04,316.858,283.566,305.516z M360.733,363.264
	l2.325-21.581h28.314l0.081,21.596H361.82C361.458,363.279,361.095,363.269,360.733,363.264z M421.989,360.119
	c-2.038,2.038-4.75,3.16-7.637,3.16h-6.898l-0.081-21.596h6.979c5.954,0,10.798,4.844,10.798,10.798
	C425.15,355.368,424.027,358.08,421.989,360.119z"/>
<g>
</g>
<g>
</g>
<g>
</g>
<g>
</g>
<g>
</g>
<g>
</g>
<g>
</g>
<g>
</g>
<g>
</g>
<g>
</g>
<g>
</g>
<g>
</g>
<g>
</g>
<g>
</g>
<g>
</g>
</svg>
